<?xml version="1.0" encoding="utf-8" standalone="no"?>
<!DOCTYPE svg PUBLIC "-//W3C//DTD SVG 1.1//EN"
  "http://www.w3.org/Graphics/SVG/1.1/DTD/svg11.dtd">
<svg xmlns:xlink="http://www.w3.org/1999/xlink" width="737.621875pt" height="403.535937pt" viewBox="0 0 737.621875 403.535937" xmlns="http://www.w3.org/2000/svg" version="1.1">
 <metadata>
  <rdf:RDF xmlns:dc="http://purl.org/dc/elements/1.1/" xmlns:cc="http://creativecommons.org/ns#" xmlns:rdf="http://www.w3.org/1999/02/22-rdf-syntax-ns#">
   <cc:Work>
    <dc:type rdf:resource="http://purl.org/dc/dcmitype/StillImage"/>
    <dc:date>2026-01-18T15:09:57.637056</dc:date>
    <dc:format>image/svg+xml</dc:format>
    <dc:creator>
     <cc:Agent>
      <dc:title>Matplotlib v3.10.0, https://matplotlib.org/</dc:title>
     </cc:Agent>
    </dc:creator>
   </cc:Work>
  </rdf:RDF>
 </metadata>
 <defs>
  <style type="text/css">*{stroke-linejoin: round; stroke-linecap: butt}</style>
 </defs>
 <g id="figure_1">
  <g id="patch_1">
   <path d="M 0 403.535937 
L 737.621875 403.535937 
L 737.621875 0 
L 0 0 
z
" style="fill: #ffffff"/>
  </g>
  <g id="axes_1">
   <g id="patch_2">
    <path d="M 39.221875 365.76 
L 730.421875 365.76 
L 730.421875 41.76 
L 39.221875 41.76 
z
" style="fill: #ffffff"/>
   </g>
   <g id="matplotlib.axis_1">
    <g id="xtick_1">
     <g id="line2d_1">
      <path d="M 108.341875 365.76 
L 108.341875 41.76 
" clip-path="url(#p1ce21e109d)" style="fill: none; stroke: #cccccc; stroke-linecap: round"/>
     </g>
     <g id="line2d_2"/>
     <g id="text_1">
      <!-- knn -->
      <g style="fill: #262626" transform="translate(100.280938 380.006875) scale(0.1 -0.1)">
       <defs>
        <path id="LiberationSans-6b" d="M 2550 0 
L 1406 1544 
L 994 1203 
L 994 0 
L 431 0 
L 431 4638 
L 994 4638 
L 994 1741 
L 2478 3381 
L 3138 3381 
L 1766 1928 
L 3209 0 
L 2550 0 
z
" transform="scale(0.015625)"/>
        <path id="LiberationSans-6e" d="M 2578 0 
L 2578 2144 
Q 2578 2478 2512 2662 
Q 2447 2847 2303 2928 
Q 2159 3009 1881 3009 
Q 1475 3009 1240 2731 
Q 1006 2453 1006 1959 
L 1006 0 
L 444 0 
L 444 2659 
Q 444 3250 425 3381 
L 956 3381 
Q 959 3366 962 3297 
Q 966 3228 970 3139 
Q 975 3050 981 2803 
L 991 2803 
Q 1184 3153 1439 3298 
Q 1694 3444 2072 3444 
Q 2628 3444 2886 3167 
Q 3144 2891 3144 2253 
L 3144 0 
L 2578 0 
z
" transform="scale(0.015625)"/>
       </defs>
       <use xlink:href="#LiberationSans-6b"/>
       <use xlink:href="#LiberationSans-6e" transform="translate(50 0)"/>
       <use xlink:href="#LiberationSans-6e" transform="translate(105.615234 0)"/>
      </g>
     </g>
    </g>
    <g id="xtick_2">
     <g id="line2d_3">
      <path d="M 246.581875 365.76 
L 246.581875 41.76 
" clip-path="url(#p1ce21e109d)" style="fill: none; stroke: #cccccc; stroke-linecap: round"/>
     </g>
     <g id="line2d_4"/>
     <g id="text_2">
      <!-- lr -->
      <g style="fill: #262626" transform="translate(243.806094 380.006875) scale(0.1 -0.1)">
       <defs>
        <path id="LiberationSans-6c" d="M 431 0 
L 431 4638 
L 994 4638 
L 994 0 
L 431 0 
z
" transform="scale(0.015625)"/>
        <path id="LiberationSans-72" d="M 444 0 
L 444 2594 
Q 444 2950 425 3381 
L 956 3381 
Q 981 2806 981 2691 
L 994 2691 
Q 1128 3125 1303 3284 
Q 1478 3444 1797 3444 
Q 1909 3444 2025 3413 
L 2025 2897 
Q 1913 2928 1725 2928 
Q 1375 2928 1190 2626 
Q 1006 2325 1006 1763 
L 1006 0 
L 444 0 
z
" transform="scale(0.015625)"/>
       </defs>
       <use xlink:href="#LiberationSans-6c"/>
       <use xlink:href="#LiberationSans-72" transform="translate(22.216797 0)"/>
      </g>
     </g>
    </g>
    <g id="xtick_3">
     <g id="line2d_5">
      <path d="M 384.821875 365.76 
L 384.821875 41.76 
" clip-path="url(#p1ce21e109d)" style="fill: none; stroke: #cccccc; stroke-linecap: round"/>
     </g>
     <g id="line2d_6"/>
     <g id="text_3">
      <!-- nb -->
      <g style="fill: #262626" transform="translate(379.260938 380.006875) scale(0.1 -0.1)">
       <defs>
        <path id="LiberationSans-62" d="M 3291 1706 
Q 3291 -63 2047 -63 
Q 1663 -63 1408 76 
Q 1153 216 994 525 
L 988 525 
Q 988 428 975 229 
Q 963 31 956 0 
L 413 0 
Q 431 169 431 697 
L 431 4638 
L 994 4638 
L 994 3316 
Q 994 3113 981 2838 
L 994 2838 
Q 1150 3163 1408 3303 
Q 1666 3444 2047 3444 
Q 2688 3444 2989 3012 
Q 3291 2581 3291 1706 
z
M 2700 1688 
Q 2700 2397 2512 2703 
Q 2325 3009 1903 3009 
Q 1428 3009 1211 2684 
Q 994 2359 994 1653 
Q 994 988 1206 670 
Q 1419 353 1897 353 
Q 2322 353 2511 667 
Q 2700 981 2700 1688 
z
" transform="scale(0.015625)"/>
       </defs>
       <use xlink:href="#LiberationSans-6e"/>
       <use xlink:href="#LiberationSans-62" transform="translate(55.615234 0)"/>
      </g>
     </g>
    </g>
    <g id="xtick_4">
     <g id="line2d_7">
      <path d="M 523.061875 365.76 
L 523.061875 41.76 
" clip-path="url(#p1ce21e109d)" style="fill: none; stroke: #cccccc; stroke-linecap: round"/>
     </g>
     <g id="line2d_8"/>
     <g id="text_4">
      <!-- rf -->
      <g style="fill: #262626" transform="translate(520.007969 380.006875) scale(0.1 -0.1)">
       <defs>
        <path id="LiberationSans-66" d="M 1128 2972 
L 1128 0 
L 566 0 
L 566 2972 
L 91 2972 
L 91 3381 
L 566 3381 
L 566 3763 
Q 566 4225 769 4428 
Q 972 4631 1391 4631 
Q 1625 4631 1788 4594 
L 1788 4166 
Q 1647 4191 1538 4191 
Q 1322 4191 1225 4081 
Q 1128 3972 1128 3684 
L 1128 3381 
L 1788 3381 
L 1788 2972 
L 1128 2972 
z
" transform="scale(0.015625)"/>
       </defs>
       <use xlink:href="#LiberationSans-72"/>
       <use xlink:href="#LiberationSans-66" transform="translate(33.300781 0)"/>
      </g>
     </g>
    </g>
    <g id="xtick_5">
     <g id="line2d_9">
      <path d="M 661.301875 365.76 
L 661.301875 41.76 
" clip-path="url(#p1ce21e109d)" style="fill: none; stroke: #cccccc; stroke-linecap: round"/>
     </g>
     <g id="line2d_10"/>
     <g id="text_5">
      <!-- svm -->
      <g style="fill: #262626" transform="translate(652.137031 380.006875) scale(0.1 -0.1)">
       <defs>
        <path id="LiberationSans-73" d="M 2969 934 
Q 2969 456 2608 196 
Q 2247 -63 1597 -63 
Q 966 -63 623 145 
Q 281 353 178 794 
L 675 891 
Q 747 619 972 492 
Q 1197 366 1597 366 
Q 2025 366 2223 497 
Q 2422 628 2422 891 
Q 2422 1091 2284 1216 
Q 2147 1341 1841 1422 
L 1438 1528 
Q 953 1653 748 1773 
Q 544 1894 428 2066 
Q 313 2238 313 2488 
Q 313 2950 642 3192 
Q 972 3434 1603 3434 
Q 2163 3434 2492 3237 
Q 2822 3041 2909 2606 
L 2403 2544 
Q 2356 2769 2151 2889 
Q 1947 3009 1603 3009 
Q 1222 3009 1040 2893 
Q 859 2778 859 2544 
Q 859 2400 934 2306 
Q 1009 2213 1156 2147 
Q 1303 2081 1775 1966 
Q 2222 1853 2419 1758 
Q 2616 1663 2730 1547 
Q 2844 1431 2906 1279 
Q 2969 1128 2969 934 
z
" transform="scale(0.015625)"/>
        <path id="LiberationSans-76" d="M 1916 0 
L 1250 0 
L 22 3381 
L 622 3381 
L 1366 1181 
Q 1406 1056 1581 441 
L 1691 806 
L 1813 1175 
L 2581 3381 
L 3178 3381 
L 1916 0 
z
" transform="scale(0.015625)"/>
        <path id="LiberationSans-6d" d="M 2400 0 
L 2400 2144 
Q 2400 2634 2265 2821 
Q 2131 3009 1781 3009 
Q 1422 3009 1212 2734 
Q 1003 2459 1003 1959 
L 1003 0 
L 444 0 
L 444 2659 
Q 444 3250 425 3381 
L 956 3381 
Q 959 3366 962 3297 
Q 966 3228 970 3139 
Q 975 3050 981 2803 
L 991 2803 
Q 1172 3163 1406 3303 
Q 1641 3444 1978 3444 
Q 2363 3444 2586 3291 
Q 2809 3138 2897 2803 
L 2906 2803 
Q 3081 3144 3329 3294 
Q 3578 3444 3931 3444 
Q 4444 3444 4676 3166 
Q 4909 2888 4909 2253 
L 4909 0 
L 4353 0 
L 4353 2144 
Q 4353 2634 4218 2821 
Q 4084 3009 3734 3009 
Q 3366 3009 3161 2736 
Q 2956 2463 2956 1959 
L 2956 0 
L 2400 0 
z
" transform="scale(0.015625)"/>
       </defs>
       <use xlink:href="#LiberationSans-73"/>
       <use xlink:href="#LiberationSans-76" transform="translate(50 0)"/>
       <use xlink:href="#LiberationSans-6d" transform="translate(100 0)"/>
      </g>
     </g>
    </g>
    <g id="text_6">
     <!-- model -->
     <g style="fill: #262626" transform="translate(369.842969 394.053437) scale(0.11 -0.11)">
      <defs>
       <path id="LiberationSans-6f" d="M 3291 1694 
Q 3291 806 2900 371 
Q 2509 -63 1766 -63 
Q 1025 -63 647 389 
Q 269 841 269 1694 
Q 269 3444 1784 3444 
Q 2559 3444 2925 3017 
Q 3291 2591 3291 1694 
z
M 2700 1694 
Q 2700 2394 2492 2711 
Q 2284 3028 1794 3028 
Q 1300 3028 1079 2704 
Q 859 2381 859 1694 
Q 859 1025 1076 689 
Q 1294 353 1759 353 
Q 2266 353 2483 678 
Q 2700 1003 2700 1694 
z
" transform="scale(0.015625)"/>
       <path id="LiberationSans-64" d="M 2566 544 
Q 2409 219 2151 78 
Q 1894 -63 1513 -63 
Q 872 -63 570 368 
Q 269 800 269 1675 
Q 269 3444 1513 3444 
Q 1897 3444 2153 3303 
Q 2409 3163 2566 2856 
L 2572 2856 
L 2566 3234 
L 2566 4638 
L 3128 4638 
L 3128 697 
Q 3128 169 3147 0 
L 2609 0 
Q 2600 50 2589 231 
Q 2578 413 2578 544 
L 2566 544 
z
M 859 1694 
Q 859 984 1046 678 
Q 1234 372 1656 372 
Q 2134 372 2350 703 
Q 2566 1034 2566 1731 
Q 2566 2403 2350 2715 
Q 2134 3028 1663 3028 
Q 1238 3028 1048 2714 
Q 859 2400 859 1694 
z
" transform="scale(0.015625)"/>
       <path id="LiberationSans-65" d="M 863 1572 
Q 863 991 1103 675 
Q 1344 359 1806 359 
Q 2172 359 2392 506 
Q 2613 653 2691 878 
L 3184 738 
Q 2881 -63 1806 -63 
Q 1056 -63 664 384 
Q 272 831 272 1713 
Q 272 2550 664 2997 
Q 1056 3444 1784 3444 
Q 3275 3444 3275 1647 
L 3275 1572 
L 863 1572 
z
M 2694 2003 
Q 2647 2538 2422 2783 
Q 2197 3028 1775 3028 
Q 1366 3028 1127 2754 
Q 888 2481 869 2003 
L 2694 2003 
z
" transform="scale(0.015625)"/>
      </defs>
      <use xlink:href="#LiberationSans-6d"/>
      <use xlink:href="#LiberationSans-6f" transform="translate(83.300781 0)"/>
      <use xlink:href="#LiberationSans-64" transform="translate(138.916016 0)"/>
      <use xlink:href="#LiberationSans-65" transform="translate(194.53125 0)"/>
      <use xlink:href="#LiberationSans-6c" transform="translate(250.146484 0)"/>
     </g>
    </g>
   </g>
   <g id="matplotlib.axis_2">
    <g id="ytick_1">
     <g id="line2d_11">
      <path d="M 39.221875 345.949202 
L 730.421875 345.949202 
" clip-path="url(#p1ce21e109d)" style="fill: none; stroke: #cccccc; stroke-linecap: round"/>
     </g>
     <g id="line2d_12"/>
     <g id="text_7">
      <!-- 0.550 -->
      <g style="fill: #262626" transform="translate(7.2 349.572639) scale(0.1 -0.1)">
       <defs>
        <path id="LiberationSans-30" d="M 3309 2203 
Q 3309 1100 2920 518 
Q 2531 -63 1772 -63 
Q 1013 -63 631 515 
Q 250 1094 250 2203 
Q 250 3338 620 3903 
Q 991 4469 1791 4469 
Q 2569 4469 2939 3897 
Q 3309 3325 3309 2203 
z
M 2738 2203 
Q 2738 3156 2517 3584 
Q 2297 4013 1791 4013 
Q 1272 4013 1045 3591 
Q 819 3169 819 2203 
Q 819 1266 1048 831 
Q 1278 397 1778 397 
Q 2275 397 2506 840 
Q 2738 1284 2738 2203 
z
" transform="scale(0.015625)"/>
        <path id="LiberationSans-2e" d="M 584 0 
L 584 684 
L 1194 684 
L 1194 0 
L 584 0 
z
" transform="scale(0.015625)"/>
        <path id="LiberationSans-35" d="M 3291 1434 
Q 3291 738 2877 337 
Q 2463 -63 1728 -63 
Q 1113 -63 734 206 
Q 356 475 256 984 
L 825 1050 
Q 1003 397 1741 397 
Q 2194 397 2450 670 
Q 2706 944 2706 1422 
Q 2706 1838 2448 2094 
Q 2191 2350 1753 2350 
Q 1525 2350 1328 2278 
Q 1131 2206 934 2034 
L 384 2034 
L 531 4403 
L 3034 4403 
L 3034 3925 
L 1044 3925 
L 959 2528 
Q 1325 2809 1869 2809 
Q 2519 2809 2905 2428 
Q 3291 2047 3291 1434 
z
" transform="scale(0.015625)"/>
       </defs>
       <use xlink:href="#LiberationSans-30"/>
       <use xlink:href="#LiberationSans-2e" transform="translate(55.615234 0)"/>
       <use xlink:href="#LiberationSans-35" transform="translate(83.398438 0)"/>
       <use xlink:href="#LiberationSans-35" transform="translate(139.013672 0)"/>
       <use xlink:href="#LiberationSans-30" transform="translate(194.628906 0)"/>
      </g>
     </g>
    </g>
    <g id="ytick_2">
     <g id="line2d_13">
      <path d="M 39.221875 305.280997 
L 730.421875 305.280997 
" clip-path="url(#p1ce21e109d)" style="fill: none; stroke: #cccccc; stroke-linecap: round"/>
     </g>
     <g id="line2d_14"/>
     <g id="text_8">
      <!-- 0.575 -->
      <g style="fill: #262626" transform="translate(7.2 308.904434) scale(0.1 -0.1)">
       <defs>
        <path id="LiberationSans-37" d="M 3238 3947 
Q 2563 2916 2284 2331 
Q 2006 1747 1867 1178 
Q 1728 609 1728 0 
L 1141 0 
Q 1141 844 1498 1776 
Q 1856 2709 2694 3925 
L 328 3925 
L 328 4403 
L 3238 4403 
L 3238 3947 
z
" transform="scale(0.015625)"/>
       </defs>
       <use xlink:href="#LiberationSans-30"/>
       <use xlink:href="#LiberationSans-2e" transform="translate(55.615234 0)"/>
       <use xlink:href="#LiberationSans-35" transform="translate(83.398438 0)"/>
       <use xlink:href="#LiberationSans-37" transform="translate(139.013672 0)"/>
       <use xlink:href="#LiberationSans-35" transform="translate(194.628906 0)"/>
      </g>
     </g>
    </g>
    <g id="ytick_3">
     <g id="line2d_15">
      <path d="M 39.221875 264.612792 
L 730.421875 264.612792 
" clip-path="url(#p1ce21e109d)" style="fill: none; stroke: #cccccc; stroke-linecap: round"/>
     </g>
     <g id="line2d_16"/>
     <g id="text_9">
      <!-- 0.600 -->
      <g style="fill: #262626" transform="translate(7.2 268.236229) scale(0.1 -0.1)">
       <defs>
        <path id="LiberationSans-36" d="M 3278 1441 
Q 3278 744 2900 340 
Q 2522 -63 1856 -63 
Q 1113 -63 719 490 
Q 325 1044 325 2100 
Q 325 3244 734 3856 
Q 1144 4469 1900 4469 
Q 2897 4469 3156 3572 
L 2619 3475 
Q 2453 4013 1894 4013 
Q 1413 4013 1148 3564 
Q 884 3116 884 2266 
Q 1038 2550 1316 2698 
Q 1594 2847 1953 2847 
Q 2563 2847 2920 2465 
Q 3278 2084 3278 1441 
z
M 2706 1416 
Q 2706 1894 2472 2153 
Q 2238 2413 1819 2413 
Q 1425 2413 1183 2183 
Q 941 1953 941 1550 
Q 941 1041 1192 716 
Q 1444 391 1838 391 
Q 2244 391 2475 664 
Q 2706 938 2706 1416 
z
" transform="scale(0.015625)"/>
       </defs>
       <use xlink:href="#LiberationSans-30"/>
       <use xlink:href="#LiberationSans-2e" transform="translate(55.615234 0)"/>
       <use xlink:href="#LiberationSans-36" transform="translate(83.398438 0)"/>
       <use xlink:href="#LiberationSans-30" transform="translate(139.013672 0)"/>
       <use xlink:href="#LiberationSans-30" transform="translate(194.628906 0)"/>
      </g>
     </g>
    </g>
    <g id="ytick_4">
     <g id="line2d_17">
      <path d="M 39.221875 223.944587 
L 730.421875 223.944587 
" clip-path="url(#p1ce21e109d)" style="fill: none; stroke: #cccccc; stroke-linecap: round"/>
     </g>
     <g id="line2d_18"/>
     <g id="text_10">
      <!-- 0.625 -->
      <g style="fill: #262626" transform="translate(7.2 227.568024) scale(0.1 -0.1)">
       <defs>
        <path id="LiberationSans-32" d="M 322 0 
L 322 397 
Q 481 763 711 1042 
Q 941 1322 1194 1548 
Q 1447 1775 1695 1969 
Q 1944 2163 2144 2356 
Q 2344 2550 2467 2762 
Q 2591 2975 2591 3244 
Q 2591 3606 2378 3806 
Q 2166 4006 1788 4006 
Q 1428 4006 1195 3811 
Q 963 3616 922 3263 
L 347 3316 
Q 409 3844 795 4156 
Q 1181 4469 1788 4469 
Q 2453 4469 2811 4155 
Q 3169 3841 3169 3263 
Q 3169 3006 3051 2753 
Q 2934 2500 2703 2247 
Q 2472 1994 1819 1463 
Q 1459 1169 1246 933 
Q 1034 697 941 478 
L 3238 478 
L 3238 0 
L 322 0 
z
" transform="scale(0.015625)"/>
       </defs>
       <use xlink:href="#LiberationSans-30"/>
       <use xlink:href="#LiberationSans-2e" transform="translate(55.615234 0)"/>
       <use xlink:href="#LiberationSans-36" transform="translate(83.398438 0)"/>
       <use xlink:href="#LiberationSans-32" transform="translate(139.013672 0)"/>
       <use xlink:href="#LiberationSans-35" transform="translate(194.628906 0)"/>
      </g>
     </g>
    </g>
    <g id="ytick_5">
     <g id="line2d_19">
      <path d="M 39.221875 183.276382 
L 730.421875 183.276382 
" clip-path="url(#p1ce21e109d)" style="fill: none; stroke: #cccccc; stroke-linecap: round"/>
     </g>
     <g id="line2d_20"/>
     <g id="text_11">
      <!-- 0.650 -->
      <g style="fill: #262626" transform="translate(7.2 186.89982) scale(0.1 -0.1)">
       <use xlink:href="#LiberationSans-30"/>
       <use xlink:href="#LiberationSans-2e" transform="translate(55.615234 0)"/>
       <use xlink:href="#LiberationSans-36" transform="translate(83.398438 0)"/>
       <use xlink:href="#LiberationSans-35" transform="translate(139.013672 0)"/>
       <use xlink:href="#LiberationSans-30" transform="translate(194.628906 0)"/>
      </g>
     </g>
    </g>
    <g id="ytick_6">
     <g id="line2d_21">
      <path d="M 39.221875 142.608177 
L 730.421875 142.608177 
" clip-path="url(#p1ce21e109d)" style="fill: none; stroke: #cccccc; stroke-linecap: round"/>
     </g>
     <g id="line2d_22"/>
     <g id="text_12">
      <!-- 0.675 -->
      <g style="fill: #262626" transform="translate(7.2 146.231615) scale(0.1 -0.1)">
       <use xlink:href="#LiberationSans-30"/>
       <use xlink:href="#LiberationSans-2e" transform="translate(55.615234 0)"/>
       <use xlink:href="#LiberationSans-36" transform="translate(83.398438 0)"/>
       <use xlink:href="#LiberationSans-37" transform="translate(139.013672 0)"/>
       <use xlink:href="#LiberationSans-35" transform="translate(194.628906 0)"/>
      </g>
     </g>
    </g>
    <g id="ytick_7">
     <g id="line2d_23">
      <path d="M 39.221875 101.939972 
L 730.421875 101.939972 
" clip-path="url(#p1ce21e109d)" style="fill: none; stroke: #cccccc; stroke-linecap: round"/>
     </g>
     <g id="line2d_24"/>
     <g id="text_13">
      <!-- 0.700 -->
      <g style="fill: #262626" transform="translate(7.2 105.56341) scale(0.1 -0.1)">
       <use xlink:href="#LiberationSans-30"/>
       <use xlink:href="#LiberationSans-2e" transform="translate(55.615234 0)"/>
       <use xlink:href="#LiberationSans-37" transform="translate(83.398438 0)"/>
       <use xlink:href="#LiberationSans-30" transform="translate(139.013672 0)"/>
       <use xlink:href="#LiberationSans-30" transform="translate(194.628906 0)"/>
      </g>
     </g>
    </g>
    <g id="ytick_8">
     <g id="line2d_25">
      <path d="M 39.221875 61.271767 
L 730.421875 61.271767 
" clip-path="url(#p1ce21e109d)" style="fill: none; stroke: #cccccc; stroke-linecap: round"/>
     </g>
     <g id="line2d_26"/>
     <g id="text_14">
      <!-- 0.725 -->
      <g style="fill: #262626" transform="translate(7.2 64.895205) scale(0.1 -0.1)">
       <use xlink:href="#LiberationSans-30"/>
       <use xlink:href="#LiberationSans-2e" transform="translate(55.615234 0)"/>
       <use xlink:href="#LiberationSans-37" transform="translate(83.398438 0)"/>
       <use xlink:href="#LiberationSans-32" transform="translate(139.013672 0)"/>
       <use xlink:href="#LiberationSans-35" transform="translate(194.628906 0)"/>
      </g>
     </g>
    </g>
   </g>
   <g id="line2d_27">
    <path d="M 73.781875 260.199188 
L 142.901875 260.199188 
L 142.901875 144.439848 
L 73.781875 144.439848 
L 73.781875 260.199188 
" clip-path="url(#p1ce21e109d)" style="fill: none; stroke: #020202; stroke-linecap: round"/>
   </g>
   <g id="line2d_28">
    <path d="M 108.341875 260.199188 
L 108.341875 287.488657 
" clip-path="url(#p1ce21e109d)" style="fill: none; stroke: #020202; stroke-linecap: round"/>
   </g>
   <g id="line2d_29">
    <path d="M 108.341875 144.439848 
L 108.341875 104.33222 
" clip-path="url(#p1ce21e109d)" style="fill: none; stroke: #020202; stroke-linecap: round"/>
   </g>
   <g id="line2d_30">
    <path d="M 91.061875 287.488657 
L 125.621875 287.488657 
" clip-path="url(#p1ce21e109d)" style="fill: none; stroke: #111111; stroke-linecap: round"/>
   </g>
   <g id="line2d_31">
    <path d="M 91.061875 104.33222 
L 125.621875 104.33222 
" clip-path="url(#p1ce21e109d)" style="fill: none; stroke: #111111; stroke-linecap: round"/>
   </g>
   <g id="line2d_32"/>
   <g id="line2d_33">
    <path d="M 212.021875 223.944587 
L 281.141875 223.944587 
L 281.141875 180.544151 
L 212.021875 180.544151 
L 212.021875 223.944587 
" clip-path="url(#p1ce21e109d)" style="fill: none; stroke: #020202; stroke-linecap: round"/>
   </g>
   <g id="line2d_34">
    <path d="M 246.581875 223.944587 
L 246.581875 223.944587 
" clip-path="url(#p1ce21e109d)" style="fill: none; stroke: #020202; stroke-linecap: round"/>
   </g>
   <g id="line2d_35">
    <path d="M 246.581875 180.544151 
L 246.581875 180.263922 
" clip-path="url(#p1ce21e109d)" style="fill: none; stroke: #020202; stroke-linecap: round"/>
   </g>
   <g id="line2d_36">
    <path d="M 229.301875 223.944587 
L 263.861875 223.944587 
" clip-path="url(#p1ce21e109d)" style="fill: none; stroke: #111111; stroke-linecap: round"/>
   </g>
   <g id="line2d_37">
    <path d="M 229.301875 180.263922 
L 263.861875 180.263922 
" clip-path="url(#p1ce21e109d)" style="fill: none; stroke: #111111; stroke-linecap: round"/>
   </g>
   <g id="line2d_38">
    <defs>
     <path id="mb2d7b50b89" d="M 0 3 
C 0.795609 3 1.55874 2.683901 2.12132 2.12132 
C 2.683901 1.55874 3 0.795609 3 0 
C 3 -0.795609 2.683901 -1.55874 2.12132 -2.12132 
C 1.55874 -2.683901 0.795609 -3 0 -3 
C -0.795609 -3 -1.55874 -2.683901 -2.12132 -2.12132 
C -2.683901 -1.55874 -3 -0.795609 -3 0 
C -3 0.795609 -2.683901 1.55874 -2.12132 2.12132 
C -1.55874 2.683901 -0.795609 3 0 3 
z
" style="stroke: #000000"/>
    </defs>
    <g clip-path="url(#p1ce21e109d)">
     <use xlink:href="#mb2d7b50b89" x="246.581875" y="294.877502" style="fill-opacity: 0; stroke: #000000"/>
     <use xlink:href="#mb2d7b50b89" x="246.581875" y="305.601219" style="fill-opacity: 0; stroke: #000000"/>
     <use xlink:href="#mb2d7b50b89" x="246.581875" y="100.659084" style="fill-opacity: 0; stroke: #000000"/>
     <use xlink:href="#mb2d7b50b89" x="246.581875" y="62.232434" style="fill-opacity: 0; stroke: #000000"/>
    </g>
   </g>
   <g id="line2d_39">
    <path d="M 350.261875 213.092616 
L 419.381875 213.092616 
L 419.381875 176.464458 
L 350.261875 176.464458 
L 350.261875 213.092616 
" clip-path="url(#p1ce21e109d)" style="fill: none; stroke: #020202; stroke-linecap: round"/>
   </g>
   <g id="line2d_40">
    <path d="M 384.821875 213.092616 
L 384.821875 244.436318 
" clip-path="url(#p1ce21e109d)" style="fill: none; stroke: #020202; stroke-linecap: round"/>
   </g>
   <g id="line2d_41">
    <path d="M 384.821875 176.464458 
L 384.821875 139.085734 
" clip-path="url(#p1ce21e109d)" style="fill: none; stroke: #020202; stroke-linecap: round"/>
   </g>
   <g id="line2d_42">
    <path d="M 367.541875 244.436318 
L 402.101875 244.436318 
" clip-path="url(#p1ce21e109d)" style="fill: none; stroke: #111111; stroke-linecap: round"/>
   </g>
   <g id="line2d_43">
    <path d="M 367.541875 139.085734 
L 402.101875 139.085734 
" clip-path="url(#p1ce21e109d)" style="fill: none; stroke: #111111; stroke-linecap: round"/>
   </g>
   <g id="line2d_44">
    <g clip-path="url(#p1ce21e109d)">
     <use xlink:href="#mb2d7b50b89" x="384.821875" y="271.789534" style="fill-opacity: 0; stroke: #000000"/>
    </g>
   </g>
   <g id="line2d_45">
    <path d="M 488.501875 206.007147 
L 557.621875 206.007147 
L 557.621875 110.557008 
L 488.501875 110.557008 
L 488.501875 206.007147 
" clip-path="url(#p1ce21e109d)" style="fill: none; stroke: #020202; stroke-linecap: round"/>
   </g>
   <g id="line2d_46">
    <path d="M 523.061875 206.007147 
L 523.061875 238.585141 
" clip-path="url(#p1ce21e109d)" style="fill: none; stroke: #020202; stroke-linecap: round"/>
   </g>
   <g id="line2d_47">
    <path d="M 523.061875 110.557008 
L 523.061875 56.487273 
" clip-path="url(#p1ce21e109d)" style="fill: none; stroke: #020202; stroke-linecap: round"/>
   </g>
   <g id="line2d_48">
    <path d="M 505.781875 238.585141 
L 540.341875 238.585141 
" clip-path="url(#p1ce21e109d)" style="fill: none; stroke: #111111; stroke-linecap: round"/>
   </g>
   <g id="line2d_49">
    <path d="M 505.781875 56.487273 
L 540.341875 56.487273 
" clip-path="url(#p1ce21e109d)" style="fill: none; stroke: #111111; stroke-linecap: round"/>
   </g>
   <g id="line2d_50"/>
   <g id="line2d_51">
    <path d="M 626.741875 218.515154 
L 695.861875 218.515154 
L 695.861875 176.464458 
L 626.741875 176.464458 
L 626.741875 218.515154 
" clip-path="url(#p1ce21e109d)" style="fill: none; stroke: #020202; stroke-linecap: round"/>
   </g>
   <g id="line2d_52">
    <path d="M 661.301875 218.515154 
L 661.301875 219.215726 
" clip-path="url(#p1ce21e109d)" style="fill: none; stroke: #020202; stroke-linecap: round"/>
   </g>
   <g id="line2d_53">
    <path d="M 661.301875 176.464458 
L 661.301875 151.894618 
" clip-path="url(#p1ce21e109d)" style="fill: none; stroke: #020202; stroke-linecap: round"/>
   </g>
   <g id="line2d_54">
    <path d="M 644.021875 219.215726 
L 678.581875 219.215726 
" clip-path="url(#p1ce21e109d)" style="fill: none; stroke: #111111; stroke-linecap: round"/>
   </g>
   <g id="line2d_55">
    <path d="M 644.021875 151.894618 
L 678.581875 151.894618 
" clip-path="url(#p1ce21e109d)" style="fill: none; stroke: #111111; stroke-linecap: round"/>
   </g>
   <g id="line2d_56">
    <g clip-path="url(#p1ce21e109d)">
     <use xlink:href="#mb2d7b50b89" x="661.301875" y="351.032727" style="fill-opacity: 0; stroke: #000000"/>
     <use xlink:href="#mb2d7b50b89" x="661.301875" y="307.487799" style="fill-opacity: 0; stroke: #000000"/>
     <use xlink:href="#mb2d7b50b89" x="661.301875" y="62.232434" style="fill-opacity: 0; stroke: #000000"/>
    </g>
   </g>
   <g id="line2d_57">
    <path d="M 73.781875 196.72571 
L 142.901875 196.72571 
" clip-path="url(#p1ce21e109d)" style="fill: none; stroke: #a2a2a2"/>
   </g>
   <g id="line2d_58">
    <path d="M 212.021875 192.680904 
L 281.141875 192.680904 
" clip-path="url(#p1ce21e109d)" style="fill: none; stroke: #a2a2a2"/>
   </g>
   <g id="line2d_59">
    <path d="M 350.261875 194.424113 
L 419.381875 194.424113 
" clip-path="url(#p1ce21e109d)" style="fill: none; stroke: #a2a2a2"/>
   </g>
   <g id="line2d_60">
    <path d="M 488.501875 160.433873 
L 557.621875 160.433873 
" clip-path="url(#p1ce21e109d)" style="fill: none; stroke: #a2a2a2"/>
   </g>
   <g id="line2d_61">
    <path d="M 626.741875 207.980574 
L 695.861875 207.980574 
" clip-path="url(#p1ce21e109d)" style="fill: none; stroke: #a2a2a2"/>
   </g>
   <g id="patch_3">
    <path d="M 39.221875 365.76 
L 39.221875 41.76 
" style="fill: none; stroke: #cccccc; stroke-width: 1.25; stroke-linejoin: miter; stroke-linecap: square"/>
   </g>
   <g id="patch_4">
    <path d="M 730.421875 365.76 
L 730.421875 41.76 
" style="fill: none; stroke: #cccccc; stroke-width: 1.25; stroke-linejoin: miter; stroke-linecap: square"/>
   </g>
   <g id="patch_5">
    <path d="M 39.221875 365.76 
L 730.421875 365.76 
" style="fill: none; stroke: #cccccc; stroke-width: 1.25; stroke-linejoin: miter; stroke-linecap: square"/>
   </g>
   <g id="patch_6">
    <path d="M 39.221875 41.76 
L 730.421875 41.76 
" style="fill: none; stroke: #cccccc; stroke-width: 1.25; stroke-linejoin: miter; stroke-linecap: square"/>
   </g>
   <g id="text_15">
    <!-- accuracy -->
    <g style="fill: #262626" transform="translate(360.814375 35.76) scale(0.12 -0.12)">
     <defs>
      <path id="LiberationSans-61" d="M 1294 -63 
Q 784 -63 528 206 
Q 272 475 272 944 
Q 272 1469 617 1750 
Q 963 2031 1731 2050 
L 2491 2063 
L 2491 2247 
Q 2491 2659 2316 2837 
Q 2141 3016 1766 3016 
Q 1388 3016 1216 2887 
Q 1044 2759 1009 2478 
L 422 2531 
Q 566 3444 1778 3444 
Q 2416 3444 2737 3151 
Q 3059 2859 3059 2306 
L 3059 850 
Q 3059 600 3125 473 
Q 3191 347 3375 347 
Q 3456 347 3559 369 
L 3559 19 
Q 3347 -31 3125 -31 
Q 2813 -31 2670 133 
Q 2528 297 2509 647 
L 2491 647 
Q 2275 259 1989 98 
Q 1703 -63 1294 -63 
z
M 1422 359 
Q 1731 359 1972 500 
Q 2213 641 2352 886 
Q 2491 1131 2491 1391 
L 2491 1669 
L 1875 1656 
Q 1478 1650 1273 1575 
Q 1069 1500 959 1344 
Q 850 1188 850 934 
Q 850 659 998 509 
Q 1147 359 1422 359 
z
" transform="scale(0.015625)"/>
      <path id="LiberationSans-63" d="M 859 1706 
Q 859 1031 1071 706 
Q 1284 381 1713 381 
Q 2013 381 2214 543 
Q 2416 706 2463 1044 
L 3031 1006 
Q 2966 519 2616 228 
Q 2266 -63 1728 -63 
Q 1019 -63 645 385 
Q 272 834 272 1694 
Q 272 2547 647 2995 
Q 1022 3444 1722 3444 
Q 2241 3444 2583 3175 
Q 2925 2906 3013 2434 
L 2434 2391 
Q 2391 2672 2212 2837 
Q 2034 3003 1706 3003 
Q 1259 3003 1059 2706 
Q 859 2409 859 1706 
z
" transform="scale(0.015625)"/>
      <path id="LiberationSans-75" d="M 981 3381 
L 981 1238 
Q 981 903 1047 718 
Q 1113 534 1256 453 
Q 1400 372 1678 372 
Q 2084 372 2318 650 
Q 2553 928 2553 1422 
L 2553 3381 
L 3116 3381 
L 3116 722 
Q 3116 131 3134 0 
L 2603 0 
Q 2600 16 2597 84 
Q 2594 153 2589 242 
Q 2584 331 2578 578 
L 2569 578 
Q 2375 228 2120 82 
Q 1866 -63 1488 -63 
Q 931 -63 673 214 
Q 416 491 416 1128 
L 416 3381 
L 981 3381 
z
" transform="scale(0.015625)"/>
      <path id="LiberationSans-79" d="M 597 -1328 
Q 366 -1328 209 -1294 
L 209 -872 
Q 328 -891 472 -891 
Q 997 -891 1303 -119 
L 1356 16 
L 16 3381 
L 616 3381 
L 1328 1513 
Q 1344 1469 1366 1408 
Q 1388 1347 1506 1000 
Q 1625 653 1634 613 
L 1853 1228 
L 2594 3381 
L 3188 3381 
L 1888 0 
Q 1678 -541 1497 -805 
Q 1316 -1069 1095 -1198 
Q 875 -1328 597 -1328 
z
" transform="scale(0.015625)"/>
     </defs>
     <use xlink:href="#LiberationSans-61"/>
     <use xlink:href="#LiberationSans-63" transform="translate(55.615234 0)"/>
     <use xlink:href="#LiberationSans-63" transform="translate(105.615234 0)"/>
     <use xlink:href="#LiberationSans-75" transform="translate(155.615234 0)"/>
     <use xlink:href="#LiberationSans-72" transform="translate(211.230469 0)"/>
     <use xlink:href="#LiberationSans-61" transform="translate(244.53125 0)"/>
     <use xlink:href="#LiberationSans-63" transform="translate(300.146484 0)"/>
     <use xlink:href="#LiberationSans-79" transform="translate(350.146484 0)"/>
    </g>
   </g>
  </g>
  <g id="text_16">
   <!-- Boxplot grouped by model -->
   <g style="fill: #262626" transform="translate(301.173625 17.6355) scale(0.144 -0.144)">
    <defs>
     <path id="LiberationSans-42" d="M 3931 1241 
Q 3931 653 3503 326 
Q 3075 0 2313 0 
L 525 0 
L 525 4403 
L 2125 4403 
Q 3675 4403 3675 3334 
Q 3675 2944 3456 2678 
Q 3238 2413 2838 2322 
Q 3363 2259 3647 1970 
Q 3931 1681 3931 1241 
z
M 3075 3263 
Q 3075 3619 2831 3772 
Q 2588 3925 2125 3925 
L 1122 3925 
L 1122 2531 
L 2125 2531 
Q 2603 2531 2839 2711 
Q 3075 2891 3075 3263 
z
M 3328 1288 
Q 3328 2066 2234 2066 
L 1122 2066 
L 1122 478 
L 2281 478 
Q 2828 478 3078 681 
Q 3328 884 3328 1288 
z
" transform="scale(0.015625)"/>
     <path id="LiberationSans-78" d="M 2503 0 
L 1594 1388 
L 678 0 
L 72 0 
L 1275 1738 
L 128 3381 
L 750 3381 
L 1594 2066 
L 2431 3381 
L 3059 3381 
L 1913 1744 
L 3131 0 
L 2503 0 
z
" transform="scale(0.015625)"/>
     <path id="LiberationSans-70" d="M 3291 1706 
Q 3291 -63 2047 -63 
Q 1266 -63 997 525 
L 981 525 
Q 994 500 994 -6 
L 994 -1328 
L 431 -1328 
L 431 2691 
Q 431 3213 413 3381 
L 956 3381 
Q 959 3369 965 3292 
Q 972 3216 980 3056 
Q 988 2897 988 2838 
L 1000 2838 
Q 1150 3150 1397 3295 
Q 1644 3441 2047 3441 
Q 2672 3441 2981 3022 
Q 3291 2603 3291 1706 
z
M 2700 1694 
Q 2700 2400 2509 2703 
Q 2319 3006 1903 3006 
Q 1569 3006 1380 2865 
Q 1191 2725 1092 2426 
Q 994 2128 994 1650 
Q 994 984 1206 668 
Q 1419 353 1897 353 
Q 2316 353 2508 661 
Q 2700 969 2700 1694 
z
" transform="scale(0.015625)"/>
     <path id="LiberationSans-74" d="M 1731 25 
Q 1453 -50 1163 -50 
Q 488 -50 488 716 
L 488 2972 
L 97 2972 
L 97 3381 
L 509 3381 
L 675 4138 
L 1050 4138 
L 1050 3381 
L 1675 3381 
L 1675 2972 
L 1050 2972 
L 1050 838 
Q 1050 594 1129 495 
Q 1209 397 1406 397 
Q 1519 397 1731 441 
L 1731 25 
z
" transform="scale(0.015625)"/>
     <path id="LiberationSans-20" transform="scale(0.015625)"/>
     <path id="LiberationSans-67" d="M 1713 -1328 
Q 1159 -1328 831 -1111 
Q 503 -894 409 -494 
L 975 -413 
Q 1031 -647 1223 -773 
Q 1416 -900 1728 -900 
Q 2569 -900 2569 84 
L 2569 628 
L 2563 628 
Q 2403 303 2125 139 
Q 1847 -25 1475 -25 
Q 853 -25 561 387 
Q 269 800 269 1684 
Q 269 2581 583 3007 
Q 897 3434 1538 3434 
Q 1897 3434 2161 3270 
Q 2425 3106 2569 2803 
L 2575 2803 
Q 2575 2897 2587 3128 
Q 2600 3359 2613 3381 
L 3147 3381 
Q 3128 3213 3128 2681 
L 3128 97 
Q 3128 -1328 1713 -1328 
z
M 2569 1691 
Q 2569 2103 2456 2401 
Q 2344 2700 2139 2858 
Q 1934 3016 1675 3016 
Q 1244 3016 1047 2703 
Q 850 2391 850 1691 
Q 850 997 1034 694 
Q 1219 391 1666 391 
Q 1931 391 2137 547 
Q 2344 703 2456 995 
Q 2569 1288 2569 1691 
z
" transform="scale(0.015625)"/>
    </defs>
    <use xlink:href="#LiberationSans-42"/>
    <use xlink:href="#LiberationSans-6f" transform="translate(66.699219 0)"/>
    <use xlink:href="#LiberationSans-78" transform="translate(122.314453 0)"/>
    <use xlink:href="#LiberationSans-70" transform="translate(172.314453 0)"/>
    <use xlink:href="#LiberationSans-6c" transform="translate(227.929688 0)"/>
    <use xlink:href="#LiberationSans-6f" transform="translate(250.146484 0)"/>
    <use xlink:href="#LiberationSans-74" transform="translate(305.761719 0)"/>
    <use xlink:href="#LiberationSans-20" transform="translate(333.544922 0)"/>
    <use xlink:href="#LiberationSans-67" transform="translate(361.328125 0)"/>
    <use xlink:href="#LiberationSans-72" transform="translate(416.943359 0)"/>
    <use xlink:href="#LiberationSans-6f" transform="translate(450.244141 0)"/>
    <use xlink:href="#LiberationSans-75" transform="translate(505.859375 0)"/>
    <use xlink:href="#LiberationSans-70" transform="translate(561.474609 0)"/>
    <use xlink:href="#LiberationSans-65" transform="translate(617.089844 0)"/>
    <use xlink:href="#LiberationSans-64" transform="translate(672.705078 0)"/>
    <use xlink:href="#LiberationSans-20" transform="translate(728.320312 0)"/>
    <use xlink:href="#LiberationSans-62" transform="translate(756.103516 0)"/>
    <use xlink:href="#LiberationSans-79" transform="translate(811.71875 0)"/>
    <use xlink:href="#LiberationSans-20" transform="translate(861.71875 0)"/>
    <use xlink:href="#LiberationSans-6d" transform="translate(889.501953 0)"/>
    <use xlink:href="#LiberationSans-6f" transform="translate(972.802734 0)"/>
    <use xlink:href="#LiberationSans-64" transform="translate(1028.417969 0)"/>
    <use xlink:href="#LiberationSans-65" transform="translate(1084.033203 0)"/>
    <use xlink:href="#LiberationSans-6c" transform="translate(1139.648438 0)"/>
   </g>
  </g>
 </g>
 <defs>
  <clipPath id="p1ce21e109d">
   <rect x="39.221875" y="41.76" width="691.2" height="324"/>
  </clipPath>
 </defs>
</svg>
