<?xml version="1.0" encoding="utf-8" standalone="no"?>
<!DOCTYPE svg PUBLIC "-//W3C//DTD SVG 1.1//EN"
  "http://www.w3.org/Graphics/SVG/1.1/DTD/svg11.dtd">
<svg xmlns:xlink="http://www.w3.org/1999/xlink" width="509.445312pt" height="406.987344pt" viewBox="0 0 509.445312 406.987344" xmlns="http://www.w3.org/2000/svg" version="1.1">
 <metadata>
  <rdf:RDF xmlns:dc="http://purl.org/dc/elements/1.1/" xmlns:cc="http://creativecommons.org/ns#" xmlns:rdf="http://www.w3.org/1999/02/22-rdf-syntax-ns#">
   <cc:Work>
    <dc:type rdf:resource="http://purl.org/dc/dcmitype/StillImage"/>
    <dc:date>2026-02-01T19:35:43.878508</dc:date>
    <dc:format>image/svg+xml</dc:format>
    <dc:creator>
     <cc:Agent>
      <dc:title>Matplotlib v3.10.0, https://matplotlib.org/</dc:title>
     </cc:Agent>
    </dc:creator>
   </cc:Work>
  </rdf:RDF>
 </metadata>
 <defs>
  <style type="text/css">*{stroke-linejoin: round; stroke-linecap: butt}</style>
 </defs>
 <g id="figure_1">
  <g id="patch_1">
   <path d="M 0 406.987344 
L 509.445312 406.987344 
L 509.445312 0 
L 0 0 
z
" style="fill: #ffffff"/>
  </g>
  <g id="axes_1">
   <g id="patch_2">
    <path d="M 41.445312 365.76 
L 502.245312 365.76 
L 502.245312 41.76 
L 41.445312 41.76 
z
" style="fill: #ffffff"/>
   </g>
   <g id="matplotlib.axis_1">
    <g id="xtick_1">
     <g id="line2d_1">
      <path d="M 79.845312 365.76 
L 79.845312 41.76 
" clip-path="url(#pd7338d9d1a)" style="fill: none; stroke: #cccccc; stroke-linecap: round"/>
     </g>
     <g id="line2d_2"/>
     <g id="text_1">
      <!-- knn -->
      <g style="fill: #262626" transform="translate(68.56 382.780937) scale(0.14 -0.14)">
       <defs>
        <path id="ArialMT-6b" d="M 425 0 
L 425 4581 
L 988 4581 
L 988 1969 
L 2319 3319 
L 3047 3319 
L 1778 2088 
L 3175 0 
L 2481 0 
L 1384 1697 
L 988 1316 
L 988 0 
L 425 0 
z
" transform="scale(0.015625)"/>
        <path id="ArialMT-6e" d="M 422 0 
L 422 3319 
L 928 3319 
L 928 2847 
Q 1294 3394 1984 3394 
Q 2284 3394 2536 3286 
Q 2788 3178 2913 3003 
Q 3038 2828 3088 2588 
Q 3119 2431 3119 2041 
L 3119 0 
L 2556 0 
L 2556 2019 
Q 2556 2363 2490 2533 
Q 2425 2703 2258 2804 
Q 2091 2906 1866 2906 
Q 1506 2906 1245 2678 
Q 984 2450 984 1813 
L 984 0 
L 422 0 
z
" transform="scale(0.015625)"/>
       </defs>
       <use xlink:href="#ArialMT-6b"/>
       <use xlink:href="#ArialMT-6e" transform="translate(50 0)"/>
       <use xlink:href="#ArialMT-6e" transform="translate(105.615234 0)"/>
      </g>
     </g>
    </g>
    <g id="xtick_2">
     <g id="line2d_3">
      <path d="M 156.645312 365.76 
L 156.645312 41.76 
" clip-path="url(#pd7338d9d1a)" style="fill: none; stroke: #cccccc; stroke-linecap: round"/>
     </g>
     <g id="line2d_4"/>
     <g id="text_2">
      <!-- svm -->
      <g style="fill: #262626" transform="translate(143.814531 382.780937) scale(0.14 -0.14)">
       <defs>
        <path id="ArialMT-73" d="M 197 991 
L 753 1078 
Q 800 744 1014 566 
Q 1228 388 1613 388 
Q 2000 388 2187 545 
Q 2375 703 2375 916 
Q 2375 1106 2209 1216 
Q 2094 1291 1634 1406 
Q 1016 1563 777 1677 
Q 538 1791 414 1992 
Q 291 2194 291 2438 
Q 291 2659 392 2848 
Q 494 3038 669 3163 
Q 800 3259 1026 3326 
Q 1253 3394 1513 3394 
Q 1903 3394 2198 3281 
Q 2494 3169 2634 2976 
Q 2775 2784 2828 2463 
L 2278 2388 
Q 2241 2644 2061 2787 
Q 1881 2931 1553 2931 
Q 1166 2931 1000 2803 
Q 834 2675 834 2503 
Q 834 2394 903 2306 
Q 972 2216 1119 2156 
Q 1203 2125 1616 2013 
Q 2213 1853 2448 1751 
Q 2684 1650 2818 1456 
Q 2953 1263 2953 975 
Q 2953 694 2789 445 
Q 2625 197 2315 61 
Q 2006 -75 1616 -75 
Q 969 -75 630 194 
Q 291 463 197 991 
z
" transform="scale(0.015625)"/>
        <path id="ArialMT-76" d="M 1344 0 
L 81 3319 
L 675 3319 
L 1388 1331 
Q 1503 1009 1600 663 
Q 1675 925 1809 1294 
L 2547 3319 
L 3125 3319 
L 1869 0 
L 1344 0 
z
" transform="scale(0.015625)"/>
        <path id="ArialMT-6d" d="M 422 0 
L 422 3319 
L 925 3319 
L 925 2853 
Q 1081 3097 1340 3245 
Q 1600 3394 1931 3394 
Q 2300 3394 2536 3241 
Q 2772 3088 2869 2813 
Q 3263 3394 3894 3394 
Q 4388 3394 4653 3120 
Q 4919 2847 4919 2278 
L 4919 0 
L 4359 0 
L 4359 2091 
Q 4359 2428 4304 2576 
Q 4250 2725 4106 2815 
Q 3963 2906 3769 2906 
Q 3419 2906 3187 2673 
Q 2956 2441 2956 1928 
L 2956 0 
L 2394 0 
L 2394 2156 
Q 2394 2531 2256 2718 
Q 2119 2906 1806 2906 
Q 1569 2906 1367 2781 
Q 1166 2656 1075 2415 
Q 984 2175 984 1722 
L 984 0 
L 422 0 
z
" transform="scale(0.015625)"/>
       </defs>
       <use xlink:href="#ArialMT-73"/>
       <use xlink:href="#ArialMT-76" transform="translate(50 0)"/>
       <use xlink:href="#ArialMT-6d" transform="translate(100 0)"/>
      </g>
     </g>
    </g>
    <g id="xtick_3">
     <g id="line2d_5">
      <path d="M 233.445312 365.76 
L 233.445312 41.76 
" clip-path="url(#pd7338d9d1a)" style="fill: none; stroke: #cccccc; stroke-linecap: round"/>
     </g>
     <g id="line2d_6"/>
     <g id="text_3">
      <!-- nb -->
      <g style="fill: #262626" transform="translate(225.66 382.780937) scale(0.14 -0.14)">
       <defs>
        <path id="ArialMT-62" d="M 941 0 
L 419 0 
L 419 4581 
L 981 4581 
L 981 2947 
Q 1338 3394 1891 3394 
Q 2197 3394 2470 3270 
Q 2744 3147 2920 2923 
Q 3097 2700 3197 2384 
Q 3297 2069 3297 1709 
Q 3297 856 2875 390 
Q 2453 -75 1863 -75 
Q 1275 -75 941 416 
L 941 0 
z
M 934 1684 
Q 934 1088 1097 822 
Q 1363 388 1816 388 
Q 2184 388 2453 708 
Q 2722 1028 2722 1663 
Q 2722 2313 2464 2622 
Q 2206 2931 1841 2931 
Q 1472 2931 1203 2611 
Q 934 2291 934 1684 
z
" transform="scale(0.015625)"/>
       </defs>
       <use xlink:href="#ArialMT-6e"/>
       <use xlink:href="#ArialMT-62" transform="translate(55.615234 0)"/>
      </g>
     </g>
    </g>
    <g id="xtick_4">
     <g id="line2d_7">
      <path d="M 310.245312 365.76 
L 310.245312 41.76 
" clip-path="url(#pd7338d9d1a)" style="fill: none; stroke: #cccccc; stroke-linecap: round"/>
     </g>
     <g id="line2d_8"/>
     <g id="text_4">
      <!-- lr -->
      <g style="fill: #262626" transform="translate(306.359219 382.780937) scale(0.14 -0.14)">
       <defs>
        <path id="ArialMT-6c" d="M 409 0 
L 409 4581 
L 972 4581 
L 972 0 
L 409 0 
z
" transform="scale(0.015625)"/>
        <path id="ArialMT-72" d="M 416 0 
L 416 3319 
L 922 3319 
L 922 2816 
Q 1116 3169 1280 3281 
Q 1444 3394 1641 3394 
Q 1925 3394 2219 3213 
L 2025 2691 
Q 1819 2813 1613 2813 
Q 1428 2813 1281 2702 
Q 1134 2591 1072 2394 
Q 978 2094 978 1738 
L 978 0 
L 416 0 
z
" transform="scale(0.015625)"/>
       </defs>
       <use xlink:href="#ArialMT-6c"/>
       <use xlink:href="#ArialMT-72" transform="translate(22.216797 0)"/>
      </g>
     </g>
    </g>
    <g id="xtick_5">
     <g id="line2d_9">
      <path d="M 387.045312 365.76 
L 387.045312 41.76 
" clip-path="url(#pd7338d9d1a)" style="fill: none; stroke: #cccccc; stroke-linecap: round"/>
     </g>
     <g id="line2d_10"/>
     <g id="text_5">
      <!-- rf -->
      <g style="fill: #262626" transform="translate(382.769844 382.780937) scale(0.14 -0.14)">
       <defs>
        <path id="ArialMT-66" d="M 556 0 
L 556 2881 
L 59 2881 
L 59 3319 
L 556 3319 
L 556 3672 
Q 556 4006 616 4169 
Q 697 4388 901 4523 
Q 1106 4659 1475 4659 
Q 1713 4659 2000 4603 
L 1916 4113 
Q 1741 4144 1584 4144 
Q 1328 4144 1222 4034 
Q 1116 3925 1116 3625 
L 1116 3319 
L 1763 3319 
L 1763 2881 
L 1116 2881 
L 1116 0 
L 556 0 
z
" transform="scale(0.015625)"/>
       </defs>
       <use xlink:href="#ArialMT-72"/>
       <use xlink:href="#ArialMT-66" transform="translate(33.300781 0)"/>
      </g>
     </g>
    </g>
    <g id="xtick_6">
     <g id="line2d_11">
      <path d="M 463.845312 365.76 
L 463.845312 41.76 
" clip-path="url(#pd7338d9d1a)" style="fill: none; stroke: #cccccc; stroke-linecap: round"/>
     </g>
     <g id="line2d_12"/>
     <g id="text_6">
      <!-- xgb -->
      <g style="fill: #262626" transform="translate(452.56 382.780937) scale(0.14 -0.14)">
       <defs>
        <path id="ArialMT-78" d="M 47 0 
L 1259 1725 
L 138 3319 
L 841 3319 
L 1350 2541 
Q 1494 2319 1581 2169 
Q 1719 2375 1834 2534 
L 2394 3319 
L 3066 3319 
L 1919 1756 
L 3153 0 
L 2463 0 
L 1781 1031 
L 1600 1309 
L 728 0 
L 47 0 
z
" transform="scale(0.015625)"/>
        <path id="ArialMT-67" d="M 319 -275 
L 866 -356 
Q 900 -609 1056 -725 
Q 1266 -881 1628 -881 
Q 2019 -881 2231 -725 
Q 2444 -569 2519 -288 
Q 2563 -116 2559 434 
Q 2191 0 1641 0 
Q 956 0 581 494 
Q 206 988 206 1678 
Q 206 2153 378 2554 
Q 550 2956 876 3175 
Q 1203 3394 1644 3394 
Q 2231 3394 2613 2919 
L 2613 3319 
L 3131 3319 
L 3131 450 
Q 3131 -325 2973 -648 
Q 2816 -972 2473 -1159 
Q 2131 -1347 1631 -1347 
Q 1038 -1347 672 -1080 
Q 306 -813 319 -275 
z
M 784 1719 
Q 784 1066 1043 766 
Q 1303 466 1694 466 
Q 2081 466 2343 764 
Q 2606 1063 2606 1700 
Q 2606 2309 2336 2618 
Q 2066 2928 1684 2928 
Q 1309 2928 1046 2623 
Q 784 2319 784 1719 
z
" transform="scale(0.015625)"/>
       </defs>
       <use xlink:href="#ArialMT-78"/>
       <use xlink:href="#ArialMT-67" transform="translate(50 0)"/>
       <use xlink:href="#ArialMT-62" transform="translate(105.615234 0)"/>
      </g>
     </g>
    </g>
    <g id="text_7">
     <!-- model -->
     <g style="fill: #262626" transform="translate(256.866406 397.601094) scale(0.11 -0.11)">
      <defs>
       <path id="ArialMT-6f" d="M 213 1659 
Q 213 2581 725 3025 
Q 1153 3394 1769 3394 
Q 2453 3394 2887 2945 
Q 3322 2497 3322 1706 
Q 3322 1066 3130 698 
Q 2938 331 2570 128 
Q 2203 -75 1769 -75 
Q 1072 -75 642 372 
Q 213 819 213 1659 
z
M 791 1659 
Q 791 1022 1069 705 
Q 1347 388 1769 388 
Q 2188 388 2466 706 
Q 2744 1025 2744 1678 
Q 2744 2294 2464 2611 
Q 2184 2928 1769 2928 
Q 1347 2928 1069 2612 
Q 791 2297 791 1659 
z
" transform="scale(0.015625)"/>
       <path id="ArialMT-64" d="M 2575 0 
L 2575 419 
Q 2259 -75 1647 -75 
Q 1250 -75 917 144 
Q 584 363 401 755 
Q 219 1147 219 1656 
Q 219 2153 384 2558 
Q 550 2963 881 3178 
Q 1213 3394 1622 3394 
Q 1922 3394 2156 3267 
Q 2391 3141 2538 2938 
L 2538 4581 
L 3097 4581 
L 3097 0 
L 2575 0 
z
M 797 1656 
Q 797 1019 1065 703 
Q 1334 388 1700 388 
Q 2069 388 2326 689 
Q 2584 991 2584 1609 
Q 2584 2291 2321 2609 
Q 2059 2928 1675 2928 
Q 1300 2928 1048 2622 
Q 797 2316 797 1656 
z
" transform="scale(0.015625)"/>
       <path id="ArialMT-65" d="M 2694 1069 
L 3275 997 
Q 3138 488 2766 206 
Q 2394 -75 1816 -75 
Q 1088 -75 661 373 
Q 234 822 234 1631 
Q 234 2469 665 2931 
Q 1097 3394 1784 3394 
Q 2450 3394 2872 2941 
Q 3294 2488 3294 1666 
Q 3294 1616 3291 1516 
L 816 1516 
Q 847 969 1125 678 
Q 1403 388 1819 388 
Q 2128 388 2347 550 
Q 2566 713 2694 1069 
z
M 847 1978 
L 2700 1978 
Q 2663 2397 2488 2606 
Q 2219 2931 1791 2931 
Q 1403 2931 1139 2672 
Q 875 2413 847 1978 
z
" transform="scale(0.015625)"/>
      </defs>
      <use xlink:href="#ArialMT-6d"/>
      <use xlink:href="#ArialMT-6f" transform="translate(83.300781 0)"/>
      <use xlink:href="#ArialMT-64" transform="translate(138.916016 0)"/>
      <use xlink:href="#ArialMT-65" transform="translate(194.53125 0)"/>
      <use xlink:href="#ArialMT-6c" transform="translate(250.146484 0)"/>
     </g>
    </g>
   </g>
   <g id="matplotlib.axis_2">
    <g id="ytick_1">
     <g id="line2d_13">
      <path d="M 41.445312 355.691539 
L 502.245312 355.691539 
" clip-path="url(#pd7338d9d1a)" style="fill: none; stroke: #cccccc; stroke-linecap: round"/>
     </g>
     <g id="line2d_14"/>
     <g id="text_8">
      <!-- 0.50 -->
      <g style="fill: #262626" transform="translate(7.2 360.702008) scale(0.14 -0.14)">
       <defs>
        <path id="ArialMT-30" d="M 266 2259 
Q 266 3072 433 3567 
Q 600 4063 929 4331 
Q 1259 4600 1759 4600 
Q 2128 4600 2406 4451 
Q 2684 4303 2865 4023 
Q 3047 3744 3150 3342 
Q 3253 2941 3253 2259 
Q 3253 1453 3087 958 
Q 2922 463 2592 192 
Q 2263 -78 1759 -78 
Q 1097 -78 719 397 
Q 266 969 266 2259 
z
M 844 2259 
Q 844 1131 1108 757 
Q 1372 384 1759 384 
Q 2147 384 2411 759 
Q 2675 1134 2675 2259 
Q 2675 3391 2411 3762 
Q 2147 4134 1753 4134 
Q 1366 4134 1134 3806 
Q 844 3388 844 2259 
z
" transform="scale(0.015625)"/>
        <path id="ArialMT-2e" d="M 581 0 
L 581 641 
L 1222 641 
L 1222 0 
L 581 0 
z
" transform="scale(0.015625)"/>
        <path id="ArialMT-35" d="M 266 1200 
L 856 1250 
Q 922 819 1161 601 
Q 1400 384 1738 384 
Q 2144 384 2425 690 
Q 2706 997 2706 1503 
Q 2706 1984 2436 2262 
Q 2166 2541 1728 2541 
Q 1456 2541 1237 2417 
Q 1019 2294 894 2097 
L 366 2166 
L 809 4519 
L 3088 4519 
L 3088 3981 
L 1259 3981 
L 1013 2750 
Q 1425 3038 1878 3038 
Q 2478 3038 2890 2622 
Q 3303 2206 3303 1553 
Q 3303 931 2941 478 
Q 2500 -78 1738 -78 
Q 1113 -78 717 272 
Q 322 622 266 1200 
z
" transform="scale(0.015625)"/>
       </defs>
       <use xlink:href="#ArialMT-30"/>
       <use xlink:href="#ArialMT-2e" transform="translate(55.615234 0)"/>
       <use xlink:href="#ArialMT-35" transform="translate(83.398438 0)"/>
       <use xlink:href="#ArialMT-30" transform="translate(139.013672 0)"/>
      </g>
     </g>
    </g>
    <g id="ytick_2">
     <g id="line2d_15">
      <path d="M 41.445312 306.774016 
L 502.245312 306.774016 
" clip-path="url(#pd7338d9d1a)" style="fill: none; stroke: #cccccc; stroke-linecap: round"/>
     </g>
     <g id="line2d_16"/>
     <g id="text_9">
      <!-- 0.55 -->
      <g style="fill: #262626" transform="translate(7.2 311.784485) scale(0.14 -0.14)">
       <use xlink:href="#ArialMT-30"/>
       <use xlink:href="#ArialMT-2e" transform="translate(55.615234 0)"/>
       <use xlink:href="#ArialMT-35" transform="translate(83.398438 0)"/>
       <use xlink:href="#ArialMT-35" transform="translate(139.013672 0)"/>
      </g>
     </g>
    </g>
    <g id="ytick_3">
     <g id="line2d_17">
      <path d="M 41.445312 257.856493 
L 502.245312 257.856493 
" clip-path="url(#pd7338d9d1a)" style="fill: none; stroke: #cccccc; stroke-linecap: round"/>
     </g>
     <g id="line2d_18"/>
     <g id="text_10">
      <!-- 0.60 -->
      <g style="fill: #262626" transform="translate(7.2 262.866962) scale(0.14 -0.14)">
       <defs>
        <path id="ArialMT-36" d="M 3184 3459 
L 2625 3416 
Q 2550 3747 2413 3897 
Q 2184 4138 1850 4138 
Q 1581 4138 1378 3988 
Q 1113 3794 959 3422 
Q 806 3050 800 2363 
Q 1003 2672 1297 2822 
Q 1591 2972 1913 2972 
Q 2475 2972 2870 2558 
Q 3266 2144 3266 1488 
Q 3266 1056 3080 686 
Q 2894 316 2569 119 
Q 2244 -78 1831 -78 
Q 1128 -78 684 439 
Q 241 956 241 2144 
Q 241 3472 731 4075 
Q 1159 4600 1884 4600 
Q 2425 4600 2770 4297 
Q 3116 3994 3184 3459 
z
M 888 1484 
Q 888 1194 1011 928 
Q 1134 663 1356 523 
Q 1578 384 1822 384 
Q 2178 384 2434 671 
Q 2691 959 2691 1453 
Q 2691 1928 2437 2201 
Q 2184 2475 1800 2475 
Q 1419 2475 1153 2201 
Q 888 1928 888 1484 
z
" transform="scale(0.015625)"/>
       </defs>
       <use xlink:href="#ArialMT-30"/>
       <use xlink:href="#ArialMT-2e" transform="translate(55.615234 0)"/>
       <use xlink:href="#ArialMT-36" transform="translate(83.398438 0)"/>
       <use xlink:href="#ArialMT-30" transform="translate(139.013672 0)"/>
      </g>
     </g>
    </g>
    <g id="ytick_4">
     <g id="line2d_19">
      <path d="M 41.445312 208.93897 
L 502.245312 208.93897 
" clip-path="url(#pd7338d9d1a)" style="fill: none; stroke: #cccccc; stroke-linecap: round"/>
     </g>
     <g id="line2d_20"/>
     <g id="text_11">
      <!-- 0.65 -->
      <g style="fill: #262626" transform="translate(7.2 213.949439) scale(0.14 -0.14)">
       <use xlink:href="#ArialMT-30"/>
       <use xlink:href="#ArialMT-2e" transform="translate(55.615234 0)"/>
       <use xlink:href="#ArialMT-36" transform="translate(83.398438 0)"/>
       <use xlink:href="#ArialMT-35" transform="translate(139.013672 0)"/>
      </g>
     </g>
    </g>
    <g id="ytick_5">
     <g id="line2d_21">
      <path d="M 41.445312 160.021447 
L 502.245312 160.021447 
" clip-path="url(#pd7338d9d1a)" style="fill: none; stroke: #cccccc; stroke-linecap: round"/>
     </g>
     <g id="line2d_22"/>
     <g id="text_12">
      <!-- 0.70 -->
      <g style="fill: #262626" transform="translate(7.2 165.031916) scale(0.14 -0.14)">
       <defs>
        <path id="ArialMT-37" d="M 303 3981 
L 303 4522 
L 3269 4522 
L 3269 4084 
Q 2831 3619 2401 2847 
Q 1972 2075 1738 1259 
Q 1569 684 1522 0 
L 944 0 
Q 953 541 1156 1306 
Q 1359 2072 1739 2783 
Q 2119 3494 2547 3981 
L 303 3981 
z
" transform="scale(0.015625)"/>
       </defs>
       <use xlink:href="#ArialMT-30"/>
       <use xlink:href="#ArialMT-2e" transform="translate(55.615234 0)"/>
       <use xlink:href="#ArialMT-37" transform="translate(83.398438 0)"/>
       <use xlink:href="#ArialMT-30" transform="translate(139.013672 0)"/>
      </g>
     </g>
    </g>
    <g id="ytick_6">
     <g id="line2d_23">
      <path d="M 41.445312 111.103925 
L 502.245312 111.103925 
" clip-path="url(#pd7338d9d1a)" style="fill: none; stroke: #cccccc; stroke-linecap: round"/>
     </g>
     <g id="line2d_24"/>
     <g id="text_13">
      <!-- 0.75 -->
      <g style="fill: #262626" transform="translate(7.2 116.114393) scale(0.14 -0.14)">
       <use xlink:href="#ArialMT-30"/>
       <use xlink:href="#ArialMT-2e" transform="translate(55.615234 0)"/>
       <use xlink:href="#ArialMT-37" transform="translate(83.398438 0)"/>
       <use xlink:href="#ArialMT-35" transform="translate(139.013672 0)"/>
      </g>
     </g>
    </g>
    <g id="ytick_7">
     <g id="line2d_25">
      <path d="M 41.445312 62.186402 
L 502.245312 62.186402 
" clip-path="url(#pd7338d9d1a)" style="fill: none; stroke: #cccccc; stroke-linecap: round"/>
     </g>
     <g id="line2d_26"/>
     <g id="text_14">
      <!-- 0.80 -->
      <g style="fill: #262626" transform="translate(7.2 67.19687) scale(0.14 -0.14)">
       <defs>
        <path id="ArialMT-38" d="M 1131 2484 
Q 781 2613 612 2850 
Q 444 3088 444 3419 
Q 444 3919 803 4259 
Q 1163 4600 1759 4600 
Q 2359 4600 2725 4251 
Q 3091 3903 3091 3403 
Q 3091 3084 2923 2848 
Q 2756 2613 2416 2484 
Q 2838 2347 3058 2040 
Q 3278 1734 3278 1309 
Q 3278 722 2862 322 
Q 2447 -78 1769 -78 
Q 1091 -78 675 323 
Q 259 725 259 1325 
Q 259 1772 486 2073 
Q 713 2375 1131 2484 
z
M 1019 3438 
Q 1019 3113 1228 2906 
Q 1438 2700 1772 2700 
Q 2097 2700 2305 2904 
Q 2513 3109 2513 3406 
Q 2513 3716 2298 3927 
Q 2084 4138 1766 4138 
Q 1444 4138 1231 3931 
Q 1019 3725 1019 3438 
z
M 838 1322 
Q 838 1081 952 856 
Q 1066 631 1291 507 
Q 1516 384 1775 384 
Q 2178 384 2440 643 
Q 2703 903 2703 1303 
Q 2703 1709 2433 1975 
Q 2163 2241 1756 2241 
Q 1359 2241 1098 1978 
Q 838 1716 838 1322 
z
" transform="scale(0.015625)"/>
       </defs>
       <use xlink:href="#ArialMT-30"/>
       <use xlink:href="#ArialMT-2e" transform="translate(55.615234 0)"/>
       <use xlink:href="#ArialMT-38" transform="translate(83.398438 0)"/>
       <use xlink:href="#ArialMT-30" transform="translate(139.013672 0)"/>
      </g>
     </g>
    </g>
   </g>
   <g id="line2d_27">
    <path d="M 60.645312 283.970359 
L 99.045312 283.970359 
L 99.045312 168.421895 
L 60.645312 168.421895 
L 60.645312 283.970359 
" clip-path="url(#pd7338d9d1a)" style="fill: none; stroke: #020202; stroke-linecap: round"/>
   </g>
   <g id="line2d_28">
    <path d="M 79.845312 283.970359 
L 79.845312 318.062675 
" clip-path="url(#pd7338d9d1a)" style="fill: none; stroke: #020202; stroke-linecap: round"/>
   </g>
   <g id="line2d_29">
    <path d="M 79.845312 168.421895 
L 79.845312 113.478562 
" clip-path="url(#pd7338d9d1a)" style="fill: none; stroke: #020202; stroke-linecap: round"/>
   </g>
   <g id="line2d_30">
    <path d="M 70.245312 318.062675 
L 89.445312 318.062675 
" clip-path="url(#pd7338d9d1a)" style="fill: none; stroke: #111111; stroke-linecap: round"/>
   </g>
   <g id="line2d_31">
    <path d="M 70.245312 113.478562 
L 89.445312 113.478562 
" clip-path="url(#pd7338d9d1a)" style="fill: none; stroke: #111111; stroke-linecap: round"/>
   </g>
   <g id="line2d_32"/>
   <g id="line2d_33">
    <path d="M 137.445312 193.639866 
L 175.845312 193.639866 
L 175.845312 141.112153 
L 137.445312 141.112153 
L 137.445312 193.639866 
" clip-path="url(#pd7338d9d1a)" style="fill: none; stroke: #020202; stroke-linecap: round"/>
   </g>
   <g id="line2d_34">
    <path d="M 156.645312 193.639866 
L 156.645312 248.53887 
" clip-path="url(#pd7338d9d1a)" style="fill: none; stroke: #020202; stroke-linecap: round"/>
   </g>
   <g id="line2d_35">
    <path d="M 156.645312 141.112153 
L 156.645312 103.980013 
" clip-path="url(#pd7338d9d1a)" style="fill: none; stroke: #020202; stroke-linecap: round"/>
   </g>
   <g id="line2d_36">
    <path d="M 147.045312 248.53887 
L 166.245312 248.53887 
" clip-path="url(#pd7338d9d1a)" style="fill: none; stroke: #111111; stroke-linecap: round"/>
   </g>
   <g id="line2d_37">
    <path d="M 147.045312 103.980013 
L 166.245312 103.980013 
" clip-path="url(#pd7338d9d1a)" style="fill: none; stroke: #111111; stroke-linecap: round"/>
   </g>
   <g id="line2d_38">
    <defs>
     <path id="m98925c3f68" d="M 0 3 
C 0.795609 3 1.55874 2.683901 2.12132 2.12132 
C 2.683901 1.55874 3 0.795609 3 0 
C 3 -0.795609 2.683901 -1.55874 2.12132 -2.12132 
C 1.55874 -2.683901 0.795609 -3 0 -3 
C -0.795609 -3 -1.55874 -2.683901 -2.12132 -2.12132 
C -2.683901 -1.55874 -3 -0.795609 -3 0 
C -3 0.795609 -2.683901 1.55874 -2.12132 2.12132 
C -1.55874 2.683901 -0.795609 3 0 3 
z
" style="stroke: #000000"/>
    </defs>
    <g clip-path="url(#pd7338d9d1a)">
     <use xlink:href="#m98925c3f68" x="156.645312" y="278.453345" style="fill-opacity: 0; stroke: #000000"/>
    </g>
   </g>
   <g id="line2d_39">
    <path d="M 214.245312 250.132674 
L 252.645312 250.132674 
L 252.645312 203.579075 
L 214.245312 203.579075 
L 214.245312 250.132674 
" clip-path="url(#pd7338d9d1a)" style="fill: none; stroke: #020202; stroke-linecap: round"/>
   </g>
   <g id="line2d_40">
    <path d="M 233.445312 250.132674 
L 233.445312 295.126987 
" clip-path="url(#pd7338d9d1a)" style="fill: none; stroke: #020202; stroke-linecap: round"/>
   </g>
   <g id="line2d_41">
    <path d="M 233.445312 203.579075 
L 233.445312 173.449787 
" clip-path="url(#pd7338d9d1a)" style="fill: none; stroke: #020202; stroke-linecap: round"/>
   </g>
   <g id="line2d_42">
    <path d="M 223.845312 295.126987 
L 243.045312 295.126987 
" clip-path="url(#pd7338d9d1a)" style="fill: none; stroke: #111111; stroke-linecap: round"/>
   </g>
   <g id="line2d_43">
    <path d="M 223.845312 173.449787 
L 243.045312 173.449787 
" clip-path="url(#pd7338d9d1a)" style="fill: none; stroke: #111111; stroke-linecap: round"/>
   </g>
   <g id="line2d_44"/>
   <g id="line2d_45">
    <path d="M 291.045312 290.202775 
L 329.445312 290.202775 
L 329.445312 248.721591 
L 291.045312 248.721591 
L 291.045312 290.202775 
" clip-path="url(#pd7338d9d1a)" style="fill: none; stroke: #020202; stroke-linecap: round"/>
   </g>
   <g id="line2d_46">
    <path d="M 310.245312 290.202775 
L 310.245312 351.032727 
" clip-path="url(#pd7338d9d1a)" style="fill: none; stroke: #020202; stroke-linecap: round"/>
   </g>
   <g id="line2d_47">
    <path d="M 310.245312 248.721591 
L 310.245312 192.633129 
" clip-path="url(#pd7338d9d1a)" style="fill: none; stroke: #020202; stroke-linecap: round"/>
   </g>
   <g id="line2d_48">
    <path d="M 300.645312 351.032727 
L 319.845312 351.032727 
" clip-path="url(#pd7338d9d1a)" style="fill: none; stroke: #111111; stroke-linecap: round"/>
   </g>
   <g id="line2d_49">
    <path d="M 300.645312 192.633129 
L 319.845312 192.633129 
" clip-path="url(#pd7338d9d1a)" style="fill: none; stroke: #111111; stroke-linecap: round"/>
   </g>
   <g id="line2d_50"/>
   <g id="line2d_51">
    <path d="M 367.845312 209.087505 
L 406.245312 209.087505 
L 406.245312 159.42031 
L 367.845312 159.42031 
L 367.845312 209.087505 
" clip-path="url(#pd7338d9d1a)" style="fill: none; stroke: #020202; stroke-linecap: round"/>
   </g>
   <g id="line2d_52">
    <path d="M 387.045312 209.087505 
L 387.045312 257.856493 
" clip-path="url(#pd7338d9d1a)" style="fill: none; stroke: #020202; stroke-linecap: round"/>
   </g>
   <g id="line2d_53">
    <path d="M 387.045312 159.42031 
L 387.045312 94.481465 
" clip-path="url(#pd7338d9d1a)" style="fill: none; stroke: #020202; stroke-linecap: round"/>
   </g>
   <g id="line2d_54">
    <path d="M 377.445312 257.856493 
L 396.645312 257.856493 
" clip-path="url(#pd7338d9d1a)" style="fill: none; stroke: #111111; stroke-linecap: round"/>
   </g>
   <g id="line2d_55">
    <path d="M 377.445312 94.481465 
L 396.645312 94.481465 
" clip-path="url(#pd7338d9d1a)" style="fill: none; stroke: #111111; stroke-linecap: round"/>
   </g>
   <g id="line2d_56"/>
   <g id="line2d_57">
    <path d="M 444.645312 209.087505 
L 483.045312 209.087505 
L 483.045312 137.21779 
L 444.645312 137.21779 
L 444.645312 209.087505 
" clip-path="url(#pd7338d9d1a)" style="fill: none; stroke: #020202; stroke-linecap: round"/>
   </g>
   <g id="line2d_58">
    <path d="M 463.845312 209.087505 
L 463.845312 252.212164 
" clip-path="url(#pd7338d9d1a)" style="fill: none; stroke: #020202; stroke-linecap: round"/>
   </g>
   <g id="line2d_59">
    <path d="M 463.845312 137.21779 
L 463.845312 56.487273 
" clip-path="url(#pd7338d9d1a)" style="fill: none; stroke: #020202; stroke-linecap: round"/>
   </g>
   <g id="line2d_60">
    <path d="M 454.245312 252.212164 
L 473.445312 252.212164 
" clip-path="url(#pd7338d9d1a)" style="fill: none; stroke: #111111; stroke-linecap: round"/>
   </g>
   <g id="line2d_61">
    <path d="M 454.245312 56.487273 
L 473.445312 56.487273 
" clip-path="url(#pd7338d9d1a)" style="fill: none; stroke: #111111; stroke-linecap: round"/>
   </g>
   <g id="line2d_62"/>
   <g id="line2d_63">
    <path d="M 60.645312 247.558067 
L 99.045312 247.558067 
" clip-path="url(#pd7338d9d1a)" style="fill: none; stroke: #a2a2a2"/>
   </g>
   <g id="line2d_64">
    <path d="M 137.445312 164.866669 
L 175.845312 164.866669 
" clip-path="url(#pd7338d9d1a)" style="fill: none; stroke: #a2a2a2"/>
   </g>
   <g id="line2d_65">
    <path d="M 214.245312 223.990516 
L 252.645312 223.990516 
" clip-path="url(#pd7338d9d1a)" style="fill: none; stroke: #a2a2a2"/>
   </g>
   <g id="line2d_66">
    <path d="M 291.045312 267.102929 
L 329.445312 267.102929 
" clip-path="url(#pd7338d9d1a)" style="fill: none; stroke: #a2a2a2"/>
   </g>
   <g id="line2d_67">
    <path d="M 367.845312 181.360974 
L 406.245312 181.360974 
" clip-path="url(#pd7338d9d1a)" style="fill: none; stroke: #a2a2a2"/>
   </g>
   <g id="line2d_68">
    <path d="M 444.645312 164.867765 
L 483.045312 164.867765 
" clip-path="url(#pd7338d9d1a)" style="fill: none; stroke: #a2a2a2"/>
   </g>
   <g id="patch_3">
    <path d="M 41.445312 365.76 
L 41.445312 41.76 
" style="fill: none; stroke: #cccccc; stroke-width: 1.25; stroke-linejoin: miter; stroke-linecap: square"/>
   </g>
   <g id="patch_4">
    <path d="M 502.245312 365.76 
L 502.245312 41.76 
" style="fill: none; stroke: #cccccc; stroke-width: 1.25; stroke-linejoin: miter; stroke-linecap: square"/>
   </g>
   <g id="patch_5">
    <path d="M 41.445312 365.76 
L 502.245312 365.76 
" style="fill: none; stroke: #cccccc; stroke-width: 1.25; stroke-linejoin: miter; stroke-linecap: square"/>
   </g>
   <g id="patch_6">
    <path d="M 41.445312 41.76 
L 502.245312 41.76 
" style="fill: none; stroke: #cccccc; stroke-width: 1.25; stroke-linejoin: miter; stroke-linecap: square"/>
   </g>
   <g id="text_15">
    <!-- accuracy -->
    <g style="fill: #262626" transform="translate(247.837812 35.76) scale(0.12 -0.12)">
     <defs>
      <path id="ArialMT-61" d="M 2588 409 
Q 2275 144 1986 34 
Q 1697 -75 1366 -75 
Q 819 -75 525 192 
Q 231 459 231 875 
Q 231 1119 342 1320 
Q 453 1522 633 1644 
Q 813 1766 1038 1828 
Q 1203 1872 1538 1913 
Q 2219 1994 2541 2106 
Q 2544 2222 2544 2253 
Q 2544 2597 2384 2738 
Q 2169 2928 1744 2928 
Q 1347 2928 1158 2789 
Q 969 2650 878 2297 
L 328 2372 
Q 403 2725 575 2942 
Q 747 3159 1072 3276 
Q 1397 3394 1825 3394 
Q 2250 3394 2515 3294 
Q 2781 3194 2906 3042 
Q 3031 2891 3081 2659 
Q 3109 2516 3109 2141 
L 3109 1391 
Q 3109 606 3145 398 
Q 3181 191 3288 0 
L 2700 0 
Q 2613 175 2588 409 
z
M 2541 1666 
Q 2234 1541 1622 1453 
Q 1275 1403 1131 1340 
Q 988 1278 909 1158 
Q 831 1038 831 891 
Q 831 666 1001 516 
Q 1172 366 1500 366 
Q 1825 366 2078 508 
Q 2331 650 2450 897 
Q 2541 1088 2541 1459 
L 2541 1666 
z
" transform="scale(0.015625)"/>
      <path id="ArialMT-63" d="M 2588 1216 
L 3141 1144 
Q 3050 572 2676 248 
Q 2303 -75 1759 -75 
Q 1078 -75 664 370 
Q 250 816 250 1647 
Q 250 2184 428 2587 
Q 606 2991 970 3192 
Q 1334 3394 1763 3394 
Q 2303 3394 2647 3120 
Q 2991 2847 3088 2344 
L 2541 2259 
Q 2463 2594 2264 2762 
Q 2066 2931 1784 2931 
Q 1359 2931 1093 2626 
Q 828 2322 828 1663 
Q 828 994 1084 691 
Q 1341 388 1753 388 
Q 2084 388 2306 591 
Q 2528 794 2588 1216 
z
" transform="scale(0.015625)"/>
      <path id="ArialMT-75" d="M 2597 0 
L 2597 488 
Q 2209 -75 1544 -75 
Q 1250 -75 995 37 
Q 741 150 617 320 
Q 494 491 444 738 
Q 409 903 409 1263 
L 409 3319 
L 972 3319 
L 972 1478 
Q 972 1038 1006 884 
Q 1059 663 1231 536 
Q 1403 409 1656 409 
Q 1909 409 2131 539 
Q 2353 669 2445 892 
Q 2538 1116 2538 1541 
L 2538 3319 
L 3100 3319 
L 3100 0 
L 2597 0 
z
" transform="scale(0.015625)"/>
      <path id="ArialMT-79" d="M 397 -1278 
L 334 -750 
Q 519 -800 656 -800 
Q 844 -800 956 -737 
Q 1069 -675 1141 -563 
Q 1194 -478 1313 -144 
Q 1328 -97 1363 -6 
L 103 3319 
L 709 3319 
L 1400 1397 
Q 1534 1031 1641 628 
Q 1738 1016 1872 1384 
L 2581 3319 
L 3144 3319 
L 1881 -56 
Q 1678 -603 1566 -809 
Q 1416 -1088 1222 -1217 
Q 1028 -1347 759 -1347 
Q 597 -1347 397 -1278 
z
" transform="scale(0.015625)"/>
     </defs>
     <use xlink:href="#ArialMT-61"/>
     <use xlink:href="#ArialMT-63" transform="translate(55.615234 0)"/>
     <use xlink:href="#ArialMT-63" transform="translate(105.615234 0)"/>
     <use xlink:href="#ArialMT-75" transform="translate(155.615234 0)"/>
     <use xlink:href="#ArialMT-72" transform="translate(211.230469 0)"/>
     <use xlink:href="#ArialMT-61" transform="translate(244.53125 0)"/>
     <use xlink:href="#ArialMT-63" transform="translate(300.146484 0)"/>
     <use xlink:href="#ArialMT-79" transform="translate(350.146484 0)"/>
    </g>
   </g>
  </g>
  <g id="text_16">
   <!-- Boxplot grouped by model -->
   <g style="fill: #262626" transform="translate(188.197062 17.50725) scale(0.144 -0.144)">
    <defs>
     <path id="ArialMT-42" d="M 469 0 
L 469 4581 
L 2188 4581 
Q 2713 4581 3030 4442 
Q 3347 4303 3526 4014 
Q 3706 3725 3706 3409 
Q 3706 3116 3547 2856 
Q 3388 2597 3066 2438 
Q 3481 2316 3704 2022 
Q 3928 1728 3928 1328 
Q 3928 1006 3792 729 
Q 3656 453 3456 303 
Q 3256 153 2954 76 
Q 2653 0 2216 0 
L 469 0 
z
M 1075 2656 
L 2066 2656 
Q 2469 2656 2644 2709 
Q 2875 2778 2992 2937 
Q 3109 3097 3109 3338 
Q 3109 3566 3000 3739 
Q 2891 3913 2687 3977 
Q 2484 4041 1991 4041 
L 1075 4041 
L 1075 2656 
z
M 1075 541 
L 2216 541 
Q 2509 541 2628 563 
Q 2838 600 2978 687 
Q 3119 775 3209 942 
Q 3300 1109 3300 1328 
Q 3300 1584 3169 1773 
Q 3038 1963 2805 2039 
Q 2572 2116 2134 2116 
L 1075 2116 
L 1075 541 
z
" transform="scale(0.015625)"/>
     <path id="ArialMT-70" d="M 422 -1272 
L 422 3319 
L 934 3319 
L 934 2888 
Q 1116 3141 1344 3267 
Q 1572 3394 1897 3394 
Q 2322 3394 2647 3175 
Q 2972 2956 3137 2557 
Q 3303 2159 3303 1684 
Q 3303 1175 3120 767 
Q 2938 359 2589 142 
Q 2241 -75 1856 -75 
Q 1575 -75 1351 44 
Q 1128 163 984 344 
L 984 -1272 
L 422 -1272 
z
M 931 1641 
Q 931 1000 1190 694 
Q 1450 388 1819 388 
Q 2194 388 2461 705 
Q 2728 1022 2728 1688 
Q 2728 2322 2467 2637 
Q 2206 2953 1844 2953 
Q 1484 2953 1207 2617 
Q 931 2281 931 1641 
z
" transform="scale(0.015625)"/>
     <path id="ArialMT-74" d="M 1650 503 
L 1731 6 
Q 1494 -44 1306 -44 
Q 1000 -44 831 53 
Q 663 150 594 308 
Q 525 466 525 972 
L 525 2881 
L 113 2881 
L 113 3319 
L 525 3319 
L 525 4141 
L 1084 4478 
L 1084 3319 
L 1650 3319 
L 1650 2881 
L 1084 2881 
L 1084 941 
Q 1084 700 1114 631 
Q 1144 563 1211 522 
Q 1278 481 1403 481 
Q 1497 481 1650 503 
z
" transform="scale(0.015625)"/>
     <path id="ArialMT-20" transform="scale(0.015625)"/>
    </defs>
    <use xlink:href="#ArialMT-42"/>
    <use xlink:href="#ArialMT-6f" transform="translate(66.699219 0)"/>
    <use xlink:href="#ArialMT-78" transform="translate(122.314453 0)"/>
    <use xlink:href="#ArialMT-70" transform="translate(172.314453 0)"/>
    <use xlink:href="#ArialMT-6c" transform="translate(227.929688 0)"/>
    <use xlink:href="#ArialMT-6f" transform="translate(250.146484 0)"/>
    <use xlink:href="#ArialMT-74" transform="translate(305.761719 0)"/>
    <use xlink:href="#ArialMT-20" transform="translate(333.544922 0)"/>
    <use xlink:href="#ArialMT-67" transform="translate(361.328125 0)"/>
    <use xlink:href="#ArialMT-72" transform="translate(416.943359 0)"/>
    <use xlink:href="#ArialMT-6f" transform="translate(450.244141 0)"/>
    <use xlink:href="#ArialMT-75" transform="translate(505.859375 0)"/>
    <use xlink:href="#ArialMT-70" transform="translate(561.474609 0)"/>
    <use xlink:href="#ArialMT-65" transform="translate(617.089844 0)"/>
    <use xlink:href="#ArialMT-64" transform="translate(672.705078 0)"/>
    <use xlink:href="#ArialMT-20" transform="translate(728.320312 0)"/>
    <use xlink:href="#ArialMT-62" transform="translate(756.103516 0)"/>
    <use xlink:href="#ArialMT-79" transform="translate(811.71875 0)"/>
    <use xlink:href="#ArialMT-20" transform="translate(861.71875 0)"/>
    <use xlink:href="#ArialMT-6d" transform="translate(889.501953 0)"/>
    <use xlink:href="#ArialMT-6f" transform="translate(972.802734 0)"/>
    <use xlink:href="#ArialMT-64" transform="translate(1028.417969 0)"/>
    <use xlink:href="#ArialMT-65" transform="translate(1084.033203 0)"/>
    <use xlink:href="#ArialMT-6c" transform="translate(1139.648438 0)"/>
   </g>
  </g>
 </g>
 <defs>
  <clipPath id="pd7338d9d1a">
   <rect x="41.445312" y="41.76" width="460.8" height="324"/>
  </clipPath>
 </defs>
</svg>
