<?xml version="1.0" encoding="utf-8" standalone="no"?>
<!DOCTYPE svg PUBLIC "-//W3C//DTD SVG 1.1//EN"
  "http://www.w3.org/Graphics/SVG/1.1/DTD/svg11.dtd">
<svg xmlns:xlink="http://www.w3.org/1999/xlink" width="852.736562pt" height="852.792812pt" viewBox="0 0 852.736562 852.792812" xmlns="http://www.w3.org/2000/svg" version="1.1">
 <metadata>
  <rdf:RDF xmlns:dc="http://purl.org/dc/elements/1.1/" xmlns:cc="http://creativecommons.org/ns#" xmlns:rdf="http://www.w3.org/1999/02/22-rdf-syntax-ns#">
   <cc:Work>
    <dc:type rdf:resource="http://purl.org/dc/dcmitype/StillImage"/>
    <dc:date>2025-12-28T13:45:12.768711</dc:date>
    <dc:format>image/svg+xml</dc:format>
    <dc:creator>
     <cc:Agent>
      <dc:title>Matplotlib v3.10.0, https://matplotlib.org/</dc:title>
     </cc:Agent>
    </dc:creator>
   </cc:Work>
  </rdf:RDF>
 </metadata>
 <defs>
  <style type="text/css">*{stroke-linejoin: round; stroke-linecap: butt}</style>
 </defs>
 <g id="figure_1">
  <g id="patch_1">
   <path d="M 0 852.792812 
L 852.736562 852.792812 
L 852.736562 0 
L 0 0 
z
" style="fill: #ffffff"/>
  </g>
  <g id="axes_1">
   <g id="patch_2">
    <path d="M 77.136562 775.65625 
L 845.536562 775.65625 
L 845.536562 21.89625 
L 77.136562 21.89625 
z
" style="fill: #ffffff"/>
   </g>
   <g id="matplotlib.axis_1">
    <g id="xtick_1">
     <g id="line2d_1">
      <path d="M 269.236562 775.65625 
L 269.236562 21.89625 
" clip-path="url(#pd8ed3fe25c)" style="fill: none; stroke: #cccccc; stroke-linecap: round"/>
     </g>
     <g id="line2d_2"/>
     <g id="text_1">
      <!-- no stress -->
      <g style="fill: #262626" transform="translate(272.339687 831.33875) rotate(-90) scale(0.12 -0.12)">
       <defs>
        <path id="LiberationSans-6e" d="M 2578 0 
L 2578 2144 
Q 2578 2478 2512 2662 
Q 2447 2847 2303 2928 
Q 2159 3009 1881 3009 
Q 1475 3009 1240 2731 
Q 1006 2453 1006 1959 
L 1006 0 
L 444 0 
L 444 2659 
Q 444 3250 425 3381 
L 956 3381 
Q 959 3366 962 3297 
Q 966 3228 970 3139 
Q 975 3050 981 2803 
L 991 2803 
Q 1184 3153 1439 3298 
Q 1694 3444 2072 3444 
Q 2628 3444 2886 3167 
Q 3144 2891 3144 2253 
L 3144 0 
L 2578 0 
z
" transform="scale(0.015625)"/>
        <path id="LiberationSans-6f" d="M 3291 1694 
Q 3291 806 2900 371 
Q 2509 -63 1766 -63 
Q 1025 -63 647 389 
Q 269 841 269 1694 
Q 269 3444 1784 3444 
Q 2559 3444 2925 3017 
Q 3291 2591 3291 1694 
z
M 2700 1694 
Q 2700 2394 2492 2711 
Q 2284 3028 1794 3028 
Q 1300 3028 1079 2704 
Q 859 2381 859 1694 
Q 859 1025 1076 689 
Q 1294 353 1759 353 
Q 2266 353 2483 678 
Q 2700 1003 2700 1694 
z
" transform="scale(0.015625)"/>
        <path id="LiberationSans-20" transform="scale(0.015625)"/>
        <path id="LiberationSans-73" d="M 2969 934 
Q 2969 456 2608 196 
Q 2247 -63 1597 -63 
Q 966 -63 623 145 
Q 281 353 178 794 
L 675 891 
Q 747 619 972 492 
Q 1197 366 1597 366 
Q 2025 366 2223 497 
Q 2422 628 2422 891 
Q 2422 1091 2284 1216 
Q 2147 1341 1841 1422 
L 1438 1528 
Q 953 1653 748 1773 
Q 544 1894 428 2066 
Q 313 2238 313 2488 
Q 313 2950 642 3192 
Q 972 3434 1603 3434 
Q 2163 3434 2492 3237 
Q 2822 3041 2909 2606 
L 2403 2544 
Q 2356 2769 2151 2889 
Q 1947 3009 1603 3009 
Q 1222 3009 1040 2893 
Q 859 2778 859 2544 
Q 859 2400 934 2306 
Q 1009 2213 1156 2147 
Q 1303 2081 1775 1966 
Q 2222 1853 2419 1758 
Q 2616 1663 2730 1547 
Q 2844 1431 2906 1279 
Q 2969 1128 2969 934 
z
" transform="scale(0.015625)"/>
        <path id="LiberationSans-74" d="M 1731 25 
Q 1453 -50 1163 -50 
Q 488 -50 488 716 
L 488 2972 
L 97 2972 
L 97 3381 
L 509 3381 
L 675 4138 
L 1050 4138 
L 1050 3381 
L 1675 3381 
L 1675 2972 
L 1050 2972 
L 1050 838 
Q 1050 594 1129 495 
Q 1209 397 1406 397 
Q 1519 397 1731 441 
L 1731 25 
z
" transform="scale(0.015625)"/>
        <path id="LiberationSans-72" d="M 444 0 
L 444 2594 
Q 444 2950 425 3381 
L 956 3381 
Q 981 2806 981 2691 
L 994 2691 
Q 1128 3125 1303 3284 
Q 1478 3444 1797 3444 
Q 1909 3444 2025 3413 
L 2025 2897 
Q 1913 2928 1725 2928 
Q 1375 2928 1190 2626 
Q 1006 2325 1006 1763 
L 1006 0 
L 444 0 
z
" transform="scale(0.015625)"/>
        <path id="LiberationSans-65" d="M 863 1572 
Q 863 991 1103 675 
Q 1344 359 1806 359 
Q 2172 359 2392 506 
Q 2613 653 2691 878 
L 3184 738 
Q 2881 -63 1806 -63 
Q 1056 -63 664 384 
Q 272 831 272 1713 
Q 272 2550 664 2997 
Q 1056 3444 1784 3444 
Q 3275 3444 3275 1647 
L 3275 1572 
L 863 1572 
z
M 2694 2003 
Q 2647 2538 2422 2783 
Q 2197 3028 1775 3028 
Q 1366 3028 1127 2754 
Q 888 2481 869 2003 
L 2694 2003 
z
" transform="scale(0.015625)"/>
       </defs>
       <use xlink:href="#LiberationSans-6e"/>
       <use xlink:href="#LiberationSans-6f" transform="translate(55.615234 0)"/>
       <use xlink:href="#LiberationSans-20" transform="translate(111.230469 0)"/>
       <use xlink:href="#LiberationSans-73" transform="translate(139.013672 0)"/>
       <use xlink:href="#LiberationSans-74" transform="translate(189.013672 0)"/>
       <use xlink:href="#LiberationSans-72" transform="translate(216.796875 0)"/>
       <use xlink:href="#LiberationSans-65" transform="translate(250.097656 0)"/>
       <use xlink:href="#LiberationSans-73" transform="translate(305.712891 0)"/>
       <use xlink:href="#LiberationSans-73" transform="translate(355.712891 0)"/>
      </g>
     </g>
    </g>
    <g id="xtick_2">
     <g id="line2d_3">
      <path d="M 653.436562 775.65625 
L 653.436562 21.89625 
" clip-path="url(#pd8ed3fe25c)" style="fill: none; stroke: #cccccc; stroke-linecap: round"/>
     </g>
     <g id="line2d_4"/>
     <g id="text_2">
      <!-- stress -->
      <g style="fill: #262626" transform="translate(656.539687 814.65875) rotate(-90) scale(0.12 -0.12)">
       <use xlink:href="#LiberationSans-73"/>
       <use xlink:href="#LiberationSans-74" transform="translate(50 0)"/>
       <use xlink:href="#LiberationSans-72" transform="translate(77.783203 0)"/>
       <use xlink:href="#LiberationSans-65" transform="translate(111.083984 0)"/>
       <use xlink:href="#LiberationSans-73" transform="translate(166.699219 0)"/>
       <use xlink:href="#LiberationSans-73" transform="translate(216.699219 0)"/>
      </g>
     </g>
    </g>
    <g id="text_3">
     <!-- Predicted Class -->
     <g style="fill: #262626" transform="translate(422.821953 843.310312) scale(0.11 -0.11)">
      <defs>
       <path id="LiberationSans-50" d="M 3931 3078 
Q 3931 2453 3523 2084 
Q 3116 1716 2416 1716 
L 1122 1716 
L 1122 0 
L 525 0 
L 525 4403 
L 2378 4403 
Q 3119 4403 3525 4056 
Q 3931 3709 3931 3078 
z
M 3331 3072 
Q 3331 3925 2306 3925 
L 1122 3925 
L 1122 2188 
L 2331 2188 
Q 3331 2188 3331 3072 
z
" transform="scale(0.015625)"/>
       <path id="LiberationSans-64" d="M 2566 544 
Q 2409 219 2151 78 
Q 1894 -63 1513 -63 
Q 872 -63 570 368 
Q 269 800 269 1675 
Q 269 3444 1513 3444 
Q 1897 3444 2153 3303 
Q 2409 3163 2566 2856 
L 2572 2856 
L 2566 3234 
L 2566 4638 
L 3128 4638 
L 3128 697 
Q 3128 169 3147 0 
L 2609 0 
Q 2600 50 2589 231 
Q 2578 413 2578 544 
L 2566 544 
z
M 859 1694 
Q 859 984 1046 678 
Q 1234 372 1656 372 
Q 2134 372 2350 703 
Q 2566 1034 2566 1731 
Q 2566 2403 2350 2715 
Q 2134 3028 1663 3028 
Q 1238 3028 1048 2714 
Q 859 2400 859 1694 
z
" transform="scale(0.015625)"/>
       <path id="LiberationSans-69" d="M 428 4100 
L 428 4638 
L 991 4638 
L 991 4100 
L 428 4100 
z
M 428 0 
L 428 3381 
L 991 3381 
L 991 0 
L 428 0 
z
" transform="scale(0.015625)"/>
       <path id="LiberationSans-63" d="M 859 1706 
Q 859 1031 1071 706 
Q 1284 381 1713 381 
Q 2013 381 2214 543 
Q 2416 706 2463 1044 
L 3031 1006 
Q 2966 519 2616 228 
Q 2266 -63 1728 -63 
Q 1019 -63 645 385 
Q 272 834 272 1694 
Q 272 2547 647 2995 
Q 1022 3444 1722 3444 
Q 2241 3444 2583 3175 
Q 2925 2906 3013 2434 
L 2434 2391 
Q 2391 2672 2212 2837 
Q 2034 3003 1706 3003 
Q 1259 3003 1059 2706 
Q 859 2409 859 1706 
z
" transform="scale(0.015625)"/>
       <path id="LiberationSans-43" d="M 2475 3981 
Q 1744 3981 1337 3511 
Q 931 3041 931 2222 
Q 931 1413 1354 920 
Q 1778 428 2500 428 
Q 3425 428 3891 1344 
L 4378 1100 
Q 4106 531 3614 234 
Q 3122 -63 2472 -63 
Q 1806 -63 1320 214 
Q 834 491 579 1005 
Q 325 1519 325 2222 
Q 325 3275 894 3872 
Q 1463 4469 2469 4469 
Q 3172 4469 3644 4194 
Q 4116 3919 4338 3378 
L 3772 3191 
Q 3619 3575 3280 3778 
Q 2941 3981 2475 3981 
z
" transform="scale(0.015625)"/>
       <path id="LiberationSans-6c" d="M 431 0 
L 431 4638 
L 994 4638 
L 994 0 
L 431 0 
z
" transform="scale(0.015625)"/>
       <path id="LiberationSans-61" d="M 1294 -63 
Q 784 -63 528 206 
Q 272 475 272 944 
Q 272 1469 617 1750 
Q 963 2031 1731 2050 
L 2491 2063 
L 2491 2247 
Q 2491 2659 2316 2837 
Q 2141 3016 1766 3016 
Q 1388 3016 1216 2887 
Q 1044 2759 1009 2478 
L 422 2531 
Q 566 3444 1778 3444 
Q 2416 3444 2737 3151 
Q 3059 2859 3059 2306 
L 3059 850 
Q 3059 600 3125 473 
Q 3191 347 3375 347 
Q 3456 347 3559 369 
L 3559 19 
Q 3347 -31 3125 -31 
Q 2813 -31 2670 133 
Q 2528 297 2509 647 
L 2491 647 
Q 2275 259 1989 98 
Q 1703 -63 1294 -63 
z
M 1422 359 
Q 1731 359 1972 500 
Q 2213 641 2352 886 
Q 2491 1131 2491 1391 
L 2491 1669 
L 1875 1656 
Q 1478 1650 1273 1575 
Q 1069 1500 959 1344 
Q 850 1188 850 934 
Q 850 659 998 509 
Q 1147 359 1422 359 
z
" transform="scale(0.015625)"/>
      </defs>
      <use xlink:href="#LiberationSans-50"/>
      <use xlink:href="#LiberationSans-72" transform="translate(66.699219 0)"/>
      <use xlink:href="#LiberationSans-65" transform="translate(100 0)"/>
      <use xlink:href="#LiberationSans-64" transform="translate(155.615234 0)"/>
      <use xlink:href="#LiberationSans-69" transform="translate(211.230469 0)"/>
      <use xlink:href="#LiberationSans-63" transform="translate(233.447266 0)"/>
      <use xlink:href="#LiberationSans-74" transform="translate(283.447266 0)"/>
      <use xlink:href="#LiberationSans-65" transform="translate(311.230469 0)"/>
      <use xlink:href="#LiberationSans-64" transform="translate(366.845703 0)"/>
      <use xlink:href="#LiberationSans-20" transform="translate(422.460938 0)"/>
      <use xlink:href="#LiberationSans-43" transform="translate(450.244141 0)"/>
      <use xlink:href="#LiberationSans-6c" transform="translate(522.460938 0)"/>
      <use xlink:href="#LiberationSans-61" transform="translate(544.677734 0)"/>
      <use xlink:href="#LiberationSans-73" transform="translate(600.292969 0)"/>
      <use xlink:href="#LiberationSans-73" transform="translate(650.292969 0)"/>
     </g>
    </g>
   </g>
   <g id="matplotlib.axis_2">
    <g id="ytick_1">
     <g id="line2d_5">
      <path d="M 77.136562 587.21625 
L 845.536562 587.21625 
" clip-path="url(#pd8ed3fe25c)" style="fill: none; stroke: #cccccc; stroke-linecap: round"/>
     </g>
     <g id="line2d_6"/>
     <g id="text_4">
      <!-- stress -->
      <g style="fill: #262626" transform="translate(38.134062 591.564375) scale(0.12 -0.12)">
       <use xlink:href="#LiberationSans-73"/>
       <use xlink:href="#LiberationSans-74" transform="translate(50 0)"/>
       <use xlink:href="#LiberationSans-72" transform="translate(77.783203 0)"/>
       <use xlink:href="#LiberationSans-65" transform="translate(111.083984 0)"/>
       <use xlink:href="#LiberationSans-73" transform="translate(166.699219 0)"/>
       <use xlink:href="#LiberationSans-73" transform="translate(216.699219 0)"/>
      </g>
     </g>
    </g>
    <g id="ytick_2">
     <g id="line2d_7">
      <path d="M 77.136562 210.33625 
L 845.536562 210.33625 
" clip-path="url(#pd8ed3fe25c)" style="fill: none; stroke: #cccccc; stroke-linecap: round"/>
     </g>
     <g id="line2d_8"/>
     <g id="text_5">
      <!-- no stress -->
      <g style="fill: #262626" transform="translate(21.454062 214.684375) scale(0.12 -0.12)">
       <use xlink:href="#LiberationSans-6e"/>
       <use xlink:href="#LiberationSans-6f" transform="translate(55.615234 0)"/>
       <use xlink:href="#LiberationSans-20" transform="translate(111.230469 0)"/>
       <use xlink:href="#LiberationSans-73" transform="translate(139.013672 0)"/>
       <use xlink:href="#LiberationSans-74" transform="translate(189.013672 0)"/>
       <use xlink:href="#LiberationSans-72" transform="translate(216.796875 0)"/>
       <use xlink:href="#LiberationSans-65" transform="translate(250.097656 0)"/>
       <use xlink:href="#LiberationSans-73" transform="translate(305.712891 0)"/>
       <use xlink:href="#LiberationSans-73" transform="translate(355.712891 0)"/>
      </g>
     </g>
    </g>
    <g id="text_6">
     <!-- True Class -->
     <g style="fill: #262626" transform="translate(15.171562 425.158203) rotate(-90) scale(0.11 -0.11)">
      <defs>
       <path id="LiberationSans-54" d="M 2250 3916 
L 2250 0 
L 1656 0 
L 1656 3916 
L 144 3916 
L 144 4403 
L 3763 4403 
L 3763 3916 
L 2250 3916 
z
" transform="scale(0.015625)"/>
       <path id="LiberationSans-75" d="M 981 3381 
L 981 1238 
Q 981 903 1047 718 
Q 1113 534 1256 453 
Q 1400 372 1678 372 
Q 2084 372 2318 650 
Q 2553 928 2553 1422 
L 2553 3381 
L 3116 3381 
L 3116 722 
Q 3116 131 3134 0 
L 2603 0 
Q 2600 16 2597 84 
Q 2594 153 2589 242 
Q 2584 331 2578 578 
L 2569 578 
Q 2375 228 2120 82 
Q 1866 -63 1488 -63 
Q 931 -63 673 214 
Q 416 491 416 1128 
L 416 3381 
L 981 3381 
z
" transform="scale(0.015625)"/>
      </defs>
      <use xlink:href="#LiberationSans-54"/>
      <use xlink:href="#LiberationSans-72" transform="translate(57.333984 0)"/>
      <use xlink:href="#LiberationSans-75" transform="translate(90.634766 0)"/>
      <use xlink:href="#LiberationSans-65" transform="translate(146.25 0)"/>
      <use xlink:href="#LiberationSans-20" transform="translate(201.865234 0)"/>
      <use xlink:href="#LiberationSans-43" transform="translate(229.648438 0)"/>
      <use xlink:href="#LiberationSans-6c" transform="translate(301.865234 0)"/>
      <use xlink:href="#LiberationSans-61" transform="translate(324.082031 0)"/>
      <use xlink:href="#LiberationSans-73" transform="translate(379.697266 0)"/>
      <use xlink:href="#LiberationSans-73" transform="translate(429.697266 0)"/>
     </g>
    </g>
   </g>
   <g id="QuadMesh_1">
    <path d="M 77.136562 775.65625 
L 461.336563 775.65625 
L 461.336563 398.77625 
L 77.136562 398.77625 
L 77.136562 775.65625 
" clip-path="url(#pd8ed3fe25c)" style="fill: #fd8d3c; stroke: #ffffff; stroke-width: 0.01"/>
    <path d="M 461.336563 775.65625 
L 845.536562 775.65625 
L 845.536562 398.77625 
L 461.336563 398.77625 
L 461.336563 775.65625 
" clip-path="url(#pd8ed3fe25c)" style="fill: #fed976; stroke: #111111; stroke-width: 0.01"/>
    <path d="M 77.136562 398.77625 
L 461.336563 398.77625 
L 461.336563 21.89625 
L 77.136562 21.89625 
L 77.136562 398.77625 
" clip-path="url(#pd8ed3fe25c)" style="fill: #800026; stroke: #111111; stroke-width: 0.01"/>
    <path d="M 461.336563 398.77625 
L 845.536562 398.77625 
L 845.536562 21.89625 
L 461.336563 21.89625 
L 461.336563 398.77625 
" clip-path="url(#pd8ed3fe25c)" style="fill: #ffeda0; stroke: #ffffff; stroke-width: 0.01"/>
   </g>
   <g id="patch_3">
    <path d="M 77.136562 775.65625 
L 77.136562 21.89625 
" style="fill: none; stroke: #cccccc; stroke-width: 1.25; stroke-linejoin: miter; stroke-linecap: square"/>
   </g>
   <g id="patch_4">
    <path d="M 845.536562 775.65625 
L 845.536562 21.89625 
" style="fill: none; stroke: #cccccc; stroke-width: 1.25; stroke-linejoin: miter; stroke-linecap: square"/>
   </g>
   <g id="patch_5">
    <path d="M 77.136562 775.65625 
L 845.536562 775.65625 
" style="fill: none; stroke: #cccccc; stroke-width: 1.25; stroke-linejoin: miter; stroke-linecap: square"/>
   </g>
   <g id="patch_6">
    <path d="M 77.136562 21.89625 
L 845.536562 21.89625 
" style="fill: none; stroke: #cccccc; stroke-width: 1.25; stroke-linejoin: miter; stroke-linecap: square"/>
   </g>
   <g id="text_7">
    <!-- 26 -->
    <g transform="translate(262.563437 590.319375) scale(0.12 -0.12)">
     <defs>
      <path id="LiberationSans-32" d="M 322 0 
L 322 397 
Q 481 763 711 1042 
Q 941 1322 1194 1548 
Q 1447 1775 1695 1969 
Q 1944 2163 2144 2356 
Q 2344 2550 2467 2762 
Q 2591 2975 2591 3244 
Q 2591 3606 2378 3806 
Q 2166 4006 1788 4006 
Q 1428 4006 1195 3811 
Q 963 3616 922 3263 
L 347 3316 
Q 409 3844 795 4156 
Q 1181 4469 1788 4469 
Q 2453 4469 2811 4155 
Q 3169 3841 3169 3263 
Q 3169 3006 3051 2753 
Q 2934 2500 2703 2247 
Q 2472 1994 1819 1463 
Q 1459 1169 1246 933 
Q 1034 697 941 478 
L 3238 478 
L 3238 0 
L 322 0 
z
" transform="scale(0.015625)"/>
      <path id="LiberationSans-36" d="M 3278 1441 
Q 3278 744 2900 340 
Q 2522 -63 1856 -63 
Q 1113 -63 719 490 
Q 325 1044 325 2100 
Q 325 3244 734 3856 
Q 1144 4469 1900 4469 
Q 2897 4469 3156 3572 
L 2619 3475 
Q 2453 4013 1894 4013 
Q 1413 4013 1148 3564 
Q 884 3116 884 2266 
Q 1038 2550 1316 2698 
Q 1594 2847 1953 2847 
Q 2563 2847 2920 2465 
Q 3278 2084 3278 1441 
z
M 2706 1416 
Q 2706 1894 2472 2153 
Q 2238 2413 1819 2413 
Q 1425 2413 1183 2183 
Q 941 1953 941 1550 
Q 941 1041 1192 716 
Q 1444 391 1838 391 
Q 2244 391 2475 664 
Q 2706 938 2706 1416 
z
" transform="scale(0.015625)"/>
     </defs>
     <use xlink:href="#LiberationSans-32"/>
     <use xlink:href="#LiberationSans-36" transform="translate(55.615234 0)"/>
    </g>
   </g>
   <g id="text_8">
    <!-- 14 -->
    <g transform="translate(646.763437 590.319375) scale(0.12 -0.12)">
     <defs>
      <path id="LiberationSans-31" d="M 488 0 
L 488 478 
L 1609 478 
L 1609 3866 
L 616 3156 
L 616 3688 
L 1656 4403 
L 2175 4403 
L 2175 478 
L 3247 478 
L 3247 0 
L 488 0 
z
" transform="scale(0.015625)"/>
      <path id="LiberationSans-34" d="M 2753 997 
L 2753 0 
L 2222 0 
L 2222 997 
L 147 997 
L 147 1434 
L 2163 4403 
L 2753 4403 
L 2753 1441 
L 3372 1441 
L 3372 997 
L 2753 997 
z
M 2222 3769 
Q 2216 3750 2134 3603 
Q 2053 3456 2013 3397 
L 884 1734 
L 716 1503 
L 666 1441 
L 2222 1441 
L 2222 3769 
z
" transform="scale(0.015625)"/>
     </defs>
     <use xlink:href="#LiberationSans-31"/>
     <use xlink:href="#LiberationSans-34" transform="translate(55.615234 0)"/>
    </g>
   </g>
   <g id="text_9">
    <!-- 48 -->
    <g style="fill: #ffffff" transform="translate(262.563437 213.439375) scale(0.12 -0.12)">
     <defs>
      <path id="LiberationSans-38" d="M 3281 1228 
Q 3281 619 2893 278 
Q 2506 -63 1781 -63 
Q 1075 -63 676 271 
Q 278 606 278 1222 
Q 278 1653 525 1947 
Q 772 2241 1156 2303 
L 1156 2316 
Q 797 2400 589 2681 
Q 381 2963 381 3341 
Q 381 3844 757 4156 
Q 1134 4469 1769 4469 
Q 2419 4469 2795 4162 
Q 3172 3856 3172 3334 
Q 3172 2956 2962 2675 
Q 2753 2394 2391 2322 
L 2391 2309 
Q 2813 2241 3047 1952 
Q 3281 1663 3281 1228 
z
M 2588 3303 
Q 2588 4050 1769 4050 
Q 1372 4050 1164 3862 
Q 956 3675 956 3303 
Q 956 2925 1170 2726 
Q 1384 2528 1775 2528 
Q 2172 2528 2380 2711 
Q 2588 2894 2588 3303 
z
M 2697 1281 
Q 2697 1691 2453 1898 
Q 2209 2106 1769 2106 
Q 1341 2106 1100 1882 
Q 859 1659 859 1269 
Q 859 359 1788 359 
Q 2247 359 2472 579 
Q 2697 800 2697 1281 
z
" transform="scale(0.015625)"/>
     </defs>
     <use xlink:href="#LiberationSans-34"/>
     <use xlink:href="#LiberationSans-38" transform="translate(55.615234 0)"/>
    </g>
   </g>
   <g id="text_10">
    <!-- 7 -->
    <g transform="translate(650.1 213.439375) scale(0.12 -0.12)">
     <defs>
      <path id="LiberationSans-37" d="M 3238 3947 
Q 2563 2916 2284 2331 
Q 2006 1747 1867 1178 
Q 1728 609 1728 0 
L 1141 0 
Q 1141 844 1498 1776 
Q 1856 2709 2694 3925 
L 328 3925 
L 328 4403 
L 3238 4403 
L 3238 3947 
z
" transform="scale(0.015625)"/>
     </defs>
     <use xlink:href="#LiberationSans-37"/>
    </g>
   </g>
   <g id="text_11">
    <!-- LogisticRegression Confusion Matrix -->
    <g style="fill: #262626" transform="translate(363.965 15.89625) scale(0.12 -0.12)">
     <defs>
      <path id="LiberationSans-4c" d="M 525 0 
L 525 4403 
L 1122 4403 
L 1122 488 
L 3347 488 
L 3347 0 
L 525 0 
z
" transform="scale(0.015625)"/>
      <path id="LiberationSans-67" d="M 1713 -1328 
Q 1159 -1328 831 -1111 
Q 503 -894 409 -494 
L 975 -413 
Q 1031 -647 1223 -773 
Q 1416 -900 1728 -900 
Q 2569 -900 2569 84 
L 2569 628 
L 2563 628 
Q 2403 303 2125 139 
Q 1847 -25 1475 -25 
Q 853 -25 561 387 
Q 269 800 269 1684 
Q 269 2581 583 3007 
Q 897 3434 1538 3434 
Q 1897 3434 2161 3270 
Q 2425 3106 2569 2803 
L 2575 2803 
Q 2575 2897 2587 3128 
Q 2600 3359 2613 3381 
L 3147 3381 
Q 3128 3213 3128 2681 
L 3128 97 
Q 3128 -1328 1713 -1328 
z
M 2569 1691 
Q 2569 2103 2456 2401 
Q 2344 2700 2139 2858 
Q 1934 3016 1675 3016 
Q 1244 3016 1047 2703 
Q 850 2391 850 1691 
Q 850 997 1034 694 
Q 1219 391 1666 391 
Q 1931 391 2137 547 
Q 2344 703 2456 995 
Q 2569 1288 2569 1691 
z
" transform="scale(0.015625)"/>
      <path id="LiberationSans-52" d="M 3638 0 
L 2494 1828 
L 1122 1828 
L 1122 0 
L 525 0 
L 525 4403 
L 2597 4403 
Q 3341 4403 3745 4070 
Q 4150 3738 4150 3144 
Q 4150 2653 3864 2318 
Q 3578 1984 3075 1897 
L 4325 0 
L 3638 0 
z
M 3550 3138 
Q 3550 3522 3289 3723 
Q 3028 3925 2538 3925 
L 1122 3925 
L 1122 2300 
L 2563 2300 
Q 3034 2300 3292 2520 
Q 3550 2741 3550 3138 
z
" transform="scale(0.015625)"/>
      <path id="LiberationSans-66" d="M 1128 2972 
L 1128 0 
L 566 0 
L 566 2972 
L 91 2972 
L 91 3381 
L 566 3381 
L 566 3763 
Q 566 4225 769 4428 
Q 972 4631 1391 4631 
Q 1625 4631 1788 4594 
L 1788 4166 
Q 1647 4191 1538 4191 
Q 1322 4191 1225 4081 
Q 1128 3972 1128 3684 
L 1128 3381 
L 1788 3381 
L 1788 2972 
L 1128 2972 
z
" transform="scale(0.015625)"/>
      <path id="LiberationSans-4d" d="M 4269 0 
L 4269 2938 
Q 4269 3425 4297 3875 
Q 4144 3316 4022 3000 
L 2884 0 
L 2466 0 
L 1313 3000 
L 1138 3531 
L 1034 3875 
L 1044 3528 
L 1056 2938 
L 1056 0 
L 525 0 
L 525 4403 
L 1309 4403 
L 2481 1350 
Q 2544 1166 2601 955 
Q 2659 744 2678 650 
Q 2703 775 2783 1029 
Q 2863 1284 2891 1350 
L 4041 4403 
L 4806 4403 
L 4806 0 
L 4269 0 
z
" transform="scale(0.015625)"/>
      <path id="LiberationSans-78" d="M 2503 0 
L 1594 1388 
L 678 0 
L 72 0 
L 1275 1738 
L 128 3381 
L 750 3381 
L 1594 2066 
L 2431 3381 
L 3059 3381 
L 1913 1744 
L 3131 0 
L 2503 0 
z
" transform="scale(0.015625)"/>
     </defs>
     <use xlink:href="#LiberationSans-4c"/>
     <use xlink:href="#LiberationSans-6f" transform="translate(55.615234 0)"/>
     <use xlink:href="#LiberationSans-67" transform="translate(111.230469 0)"/>
     <use xlink:href="#LiberationSans-69" transform="translate(166.845703 0)"/>
     <use xlink:href="#LiberationSans-73" transform="translate(189.0625 0)"/>
     <use xlink:href="#LiberationSans-74" transform="translate(239.0625 0)"/>
     <use xlink:href="#LiberationSans-69" transform="translate(266.845703 0)"/>
     <use xlink:href="#LiberationSans-63" transform="translate(289.0625 0)"/>
     <use xlink:href="#LiberationSans-52" transform="translate(339.0625 0)"/>
     <use xlink:href="#LiberationSans-65" transform="translate(411.279297 0)"/>
     <use xlink:href="#LiberationSans-67" transform="translate(466.894531 0)"/>
     <use xlink:href="#LiberationSans-72" transform="translate(522.509766 0)"/>
     <use xlink:href="#LiberationSans-65" transform="translate(555.810547 0)"/>
     <use xlink:href="#LiberationSans-73" transform="translate(611.425781 0)"/>
     <use xlink:href="#LiberationSans-73" transform="translate(661.425781 0)"/>
     <use xlink:href="#LiberationSans-69" transform="translate(711.425781 0)"/>
     <use xlink:href="#LiberationSans-6f" transform="translate(733.642578 0)"/>
     <use xlink:href="#LiberationSans-6e" transform="translate(789.257812 0)"/>
     <use xlink:href="#LiberationSans-20" transform="translate(844.873047 0)"/>
     <use xlink:href="#LiberationSans-43" transform="translate(872.65625 0)"/>
     <use xlink:href="#LiberationSans-6f" transform="translate(944.873047 0)"/>
     <use xlink:href="#LiberationSans-6e" transform="translate(1000.488281 0)"/>
     <use xlink:href="#LiberationSans-66" transform="translate(1056.103516 0)"/>
     <use xlink:href="#LiberationSans-75" transform="translate(1083.886719 0)"/>
     <use xlink:href="#LiberationSans-73" transform="translate(1139.501953 0)"/>
     <use xlink:href="#LiberationSans-69" transform="translate(1189.501953 0)"/>
     <use xlink:href="#LiberationSans-6f" transform="translate(1211.71875 0)"/>
     <use xlink:href="#LiberationSans-6e" transform="translate(1267.333984 0)"/>
     <use xlink:href="#LiberationSans-20" transform="translate(1322.949219 0)"/>
     <use xlink:href="#LiberationSans-4d" transform="translate(1350.732422 0)"/>
     <use xlink:href="#LiberationSans-61" transform="translate(1434.033203 0)"/>
     <use xlink:href="#LiberationSans-74" transform="translate(1489.648438 0)"/>
     <use xlink:href="#LiberationSans-72" transform="translate(1517.431641 0)"/>
     <use xlink:href="#LiberationSans-69" transform="translate(1550.732422 0)"/>
     <use xlink:href="#LiberationSans-78" transform="translate(1572.949219 0)"/>
    </g>
   </g>
  </g>
 </g>
 <defs>
  <clipPath id="pd8ed3fe25c">
   <rect x="77.136562" y="21.89625" width="768.4" height="753.76"/>
  </clipPath>
 </defs>
</svg>
