<?xml version="1.0" encoding="utf-8" standalone="no"?>
<!DOCTYPE svg PUBLIC "-//W3C//DTD SVG 1.1//EN"
  "http://www.w3.org/Graphics/SVG/1.1/DTD/svg11.dtd">
<svg xmlns:xlink="http://www.w3.org/1999/xlink" width="408.10125pt" height="325.986375pt" viewBox="0 0 408.10125 325.986375" xmlns="http://www.w3.org/2000/svg" version="1.1">
 <metadata>
  <rdf:RDF xmlns:dc="http://purl.org/dc/elements/1.1/" xmlns:cc="http://creativecommons.org/ns#" xmlns:rdf="http://www.w3.org/1999/02/22-rdf-syntax-ns#">
   <cc:Work>
    <dc:type rdf:resource="http://purl.org/dc/dcmitype/StillImage"/>
    <dc:date>2026-01-17T15:10:51.155979</dc:date>
    <dc:format>image/svg+xml</dc:format>
    <dc:creator>
     <cc:Agent>
      <dc:title>Matplotlib v3.10.0, https://matplotlib.org/</dc:title>
     </cc:Agent>
    </dc:creator>
   </cc:Work>
  </rdf:RDF>
 </metadata>
 <defs>
  <style type="text/css">*{stroke-linejoin: round; stroke-linecap: butt}</style>
 </defs>
 <g id="figure_1">
  <g id="patch_1">
   <path d="M 0 325.986375 
L 408.10125 325.986375 
L 408.10125 0 
L 0 0 
z
" style="fill: #ffffff"/>
  </g>
  <g id="axes_1">
   <g id="patch_2">
    <path d="M 43.78125 288.430125 
L 400.90125 288.430125 
L 400.90125 22.318125 
L 43.78125 22.318125 
z
" style="fill: #ffffff"/>
   </g>
   <g id="matplotlib.axis_1">
    <g id="xtick_1">
     <g id="line2d_1">
      <defs>
       <path id="madf9d12d75" d="M 0 0 
L 0 3.5 
" style="stroke: #000000; stroke-width: 0.8"/>
      </defs>
      <g>
       <use xlink:href="#madf9d12d75" x="58.65559" y="288.430125" style="stroke: #000000; stroke-width: 0.8"/>
      </g>
     </g>
     <g id="text_1">
      <!-- 0 -->
      <g transform="translate(55.47434 303.028562) scale(0.1 -0.1)">
       <defs>
        <path id="DejaVuSans-30" d="M 2034 4250 
Q 1547 4250 1301 3770 
Q 1056 3291 1056 2328 
Q 1056 1369 1301 889 
Q 1547 409 2034 409 
Q 2525 409 2770 889 
Q 3016 1369 3016 2328 
Q 3016 3291 2770 3770 
Q 2525 4250 2034 4250 
z
M 2034 4750 
Q 2819 4750 3233 4129 
Q 3647 3509 3647 2328 
Q 3647 1150 3233 529 
Q 2819 -91 2034 -91 
Q 1250 -91 836 529 
Q 422 1150 422 2328 
Q 422 3509 836 4129 
Q 1250 4750 2034 4750 
z
" transform="scale(0.015625)"/>
       </defs>
       <use xlink:href="#DejaVuSans-30"/>
      </g>
     </g>
    </g>
    <g id="xtick_2">
     <g id="line2d_2">
      <g>
       <use xlink:href="#madf9d12d75" x="112.991079" y="288.430125" style="stroke: #000000; stroke-width: 0.8"/>
      </g>
     </g>
     <g id="text_2">
      <!-- 5 -->
      <g transform="translate(109.809829 303.028562) scale(0.1 -0.1)">
       <defs>
        <path id="DejaVuSans-35" d="M 691 4666 
L 3169 4666 
L 3169 4134 
L 1269 4134 
L 1269 2991 
Q 1406 3038 1543 3061 
Q 1681 3084 1819 3084 
Q 2600 3084 3056 2656 
Q 3513 2228 3513 1497 
Q 3513 744 3044 326 
Q 2575 -91 1722 -91 
Q 1428 -91 1123 -41 
Q 819 9 494 109 
L 494 744 
Q 775 591 1075 516 
Q 1375 441 1709 441 
Q 2250 441 2565 725 
Q 2881 1009 2881 1497 
Q 2881 1984 2565 2268 
Q 2250 2553 1709 2553 
Q 1456 2553 1204 2497 
Q 953 2441 691 2322 
L 691 4666 
z
" transform="scale(0.015625)"/>
       </defs>
       <use xlink:href="#DejaVuSans-35"/>
      </g>
     </g>
    </g>
    <g id="xtick_3">
     <g id="line2d_3">
      <g>
       <use xlink:href="#madf9d12d75" x="167.326568" y="288.430125" style="stroke: #000000; stroke-width: 0.8"/>
      </g>
     </g>
     <g id="text_3">
      <!-- 10 -->
      <g transform="translate(160.964068 303.028562) scale(0.1 -0.1)">
       <defs>
        <path id="DejaVuSans-31" d="M 794 531 
L 1825 531 
L 1825 4091 
L 703 3866 
L 703 4441 
L 1819 4666 
L 2450 4666 
L 2450 531 
L 3481 531 
L 3481 0 
L 794 0 
L 794 531 
z
" transform="scale(0.015625)"/>
       </defs>
       <use xlink:href="#DejaVuSans-31"/>
       <use xlink:href="#DejaVuSans-30" transform="translate(63.623047 0)"/>
      </g>
     </g>
    </g>
    <g id="xtick_4">
     <g id="line2d_4">
      <g>
       <use xlink:href="#madf9d12d75" x="221.662056" y="288.430125" style="stroke: #000000; stroke-width: 0.8"/>
      </g>
     </g>
     <g id="text_4">
      <!-- 15 -->
      <g transform="translate(215.299556 303.028562) scale(0.1 -0.1)">
       <use xlink:href="#DejaVuSans-31"/>
       <use xlink:href="#DejaVuSans-35" transform="translate(63.623047 0)"/>
      </g>
     </g>
    </g>
    <g id="xtick_5">
     <g id="line2d_5">
      <g>
       <use xlink:href="#madf9d12d75" x="275.997545" y="288.430125" style="stroke: #000000; stroke-width: 0.8"/>
      </g>
     </g>
     <g id="text_5">
      <!-- 20 -->
      <g transform="translate(269.635045 303.028562) scale(0.1 -0.1)">
       <defs>
        <path id="DejaVuSans-32" d="M 1228 531 
L 3431 531 
L 3431 0 
L 469 0 
L 469 531 
Q 828 903 1448 1529 
Q 2069 2156 2228 2338 
Q 2531 2678 2651 2914 
Q 2772 3150 2772 3378 
Q 2772 3750 2511 3984 
Q 2250 4219 1831 4219 
Q 1534 4219 1204 4116 
Q 875 4013 500 3803 
L 500 4441 
Q 881 4594 1212 4672 
Q 1544 4750 1819 4750 
Q 2544 4750 2975 4387 
Q 3406 4025 3406 3419 
Q 3406 3131 3298 2873 
Q 3191 2616 2906 2266 
Q 2828 2175 2409 1742 
Q 1991 1309 1228 531 
z
" transform="scale(0.015625)"/>
       </defs>
       <use xlink:href="#DejaVuSans-32"/>
       <use xlink:href="#DejaVuSans-30" transform="translate(63.623047 0)"/>
      </g>
     </g>
    </g>
    <g id="xtick_6">
     <g id="line2d_6">
      <g>
       <use xlink:href="#madf9d12d75" x="330.333034" y="288.430125" style="stroke: #000000; stroke-width: 0.8"/>
      </g>
     </g>
     <g id="text_6">
      <!-- 25 -->
      <g transform="translate(323.970534 303.028562) scale(0.1 -0.1)">
       <use xlink:href="#DejaVuSans-32"/>
       <use xlink:href="#DejaVuSans-35" transform="translate(63.623047 0)"/>
      </g>
     </g>
    </g>
    <g id="xtick_7">
     <g id="line2d_7">
      <g>
       <use xlink:href="#madf9d12d75" x="384.668523" y="288.430125" style="stroke: #000000; stroke-width: 0.8"/>
      </g>
     </g>
     <g id="text_7">
      <!-- 30 -->
      <g transform="translate(378.306023 303.028562) scale(0.1 -0.1)">
       <defs>
        <path id="DejaVuSans-33" d="M 2597 2516 
Q 3050 2419 3304 2112 
Q 3559 1806 3559 1356 
Q 3559 666 3084 287 
Q 2609 -91 1734 -91 
Q 1441 -91 1130 -33 
Q 819 25 488 141 
L 488 750 
Q 750 597 1062 519 
Q 1375 441 1716 441 
Q 2309 441 2620 675 
Q 2931 909 2931 1356 
Q 2931 1769 2642 2001 
Q 2353 2234 1838 2234 
L 1294 2234 
L 1294 2753 
L 1863 2753 
Q 2328 2753 2575 2939 
Q 2822 3125 2822 3475 
Q 2822 3834 2567 4026 
Q 2313 4219 1838 4219 
Q 1578 4219 1281 4162 
Q 984 4106 628 3988 
L 628 4550 
Q 988 4650 1302 4700 
Q 1616 4750 1894 4750 
Q 2613 4750 3031 4423 
Q 3450 4097 3450 3541 
Q 3450 3153 3228 2886 
Q 3006 2619 2597 2516 
z
" transform="scale(0.015625)"/>
       </defs>
       <use xlink:href="#DejaVuSans-33"/>
       <use xlink:href="#DejaVuSans-30" transform="translate(63.623047 0)"/>
      </g>
     </g>
    </g>
    <g id="text_8">
     <!-- Time (s) -->
     <g transform="translate(202.012344 316.706687) scale(0.1 -0.1)">
      <defs>
       <path id="DejaVuSans-54" d="M -19 4666 
L 3928 4666 
L 3928 4134 
L 2272 4134 
L 2272 0 
L 1638 0 
L 1638 4134 
L -19 4134 
L -19 4666 
z
" transform="scale(0.015625)"/>
       <path id="DejaVuSans-69" d="M 603 3500 
L 1178 3500 
L 1178 0 
L 603 0 
L 603 3500 
z
M 603 4863 
L 1178 4863 
L 1178 4134 
L 603 4134 
L 603 4863 
z
" transform="scale(0.015625)"/>
       <path id="DejaVuSans-6d" d="M 3328 2828 
Q 3544 3216 3844 3400 
Q 4144 3584 4550 3584 
Q 5097 3584 5394 3201 
Q 5691 2819 5691 2113 
L 5691 0 
L 5113 0 
L 5113 2094 
Q 5113 2597 4934 2840 
Q 4756 3084 4391 3084 
Q 3944 3084 3684 2787 
Q 3425 2491 3425 1978 
L 3425 0 
L 2847 0 
L 2847 2094 
Q 2847 2600 2669 2842 
Q 2491 3084 2119 3084 
Q 1678 3084 1418 2786 
Q 1159 2488 1159 1978 
L 1159 0 
L 581 0 
L 581 3500 
L 1159 3500 
L 1159 2956 
Q 1356 3278 1631 3431 
Q 1906 3584 2284 3584 
Q 2666 3584 2933 3390 
Q 3200 3197 3328 2828 
z
" transform="scale(0.015625)"/>
       <path id="DejaVuSans-65" d="M 3597 1894 
L 3597 1613 
L 953 1613 
Q 991 1019 1311 708 
Q 1631 397 2203 397 
Q 2534 397 2845 478 
Q 3156 559 3463 722 
L 3463 178 
Q 3153 47 2828 -22 
Q 2503 -91 2169 -91 
Q 1331 -91 842 396 
Q 353 884 353 1716 
Q 353 2575 817 3079 
Q 1281 3584 2069 3584 
Q 2775 3584 3186 3129 
Q 3597 2675 3597 1894 
z
M 3022 2063 
Q 3016 2534 2758 2815 
Q 2500 3097 2075 3097 
Q 1594 3097 1305 2825 
Q 1016 2553 972 2059 
L 3022 2063 
z
" transform="scale(0.015625)"/>
       <path id="DejaVuSans-20" transform="scale(0.015625)"/>
       <path id="DejaVuSans-28" d="M 1984 4856 
Q 1566 4138 1362 3434 
Q 1159 2731 1159 2009 
Q 1159 1288 1364 580 
Q 1569 -128 1984 -844 
L 1484 -844 
Q 1016 -109 783 600 
Q 550 1309 550 2009 
Q 550 2706 781 3412 
Q 1013 4119 1484 4856 
L 1984 4856 
z
" transform="scale(0.015625)"/>
       <path id="DejaVuSans-73" d="M 2834 3397 
L 2834 2853 
Q 2591 2978 2328 3040 
Q 2066 3103 1784 3103 
Q 1356 3103 1142 2972 
Q 928 2841 928 2578 
Q 928 2378 1081 2264 
Q 1234 2150 1697 2047 
L 1894 2003 
Q 2506 1872 2764 1633 
Q 3022 1394 3022 966 
Q 3022 478 2636 193 
Q 2250 -91 1575 -91 
Q 1294 -91 989 -36 
Q 684 19 347 128 
L 347 722 
Q 666 556 975 473 
Q 1284 391 1588 391 
Q 1994 391 2212 530 
Q 2431 669 2431 922 
Q 2431 1156 2273 1281 
Q 2116 1406 1581 1522 
L 1381 1569 
Q 847 1681 609 1914 
Q 372 2147 372 2553 
Q 372 3047 722 3315 
Q 1072 3584 1716 3584 
Q 2034 3584 2315 3537 
Q 2597 3491 2834 3397 
z
" transform="scale(0.015625)"/>
       <path id="DejaVuSans-29" d="M 513 4856 
L 1013 4856 
Q 1481 4119 1714 3412 
Q 1947 2706 1947 2009 
Q 1947 1309 1714 600 
Q 1481 -109 1013 -844 
L 513 -844 
Q 928 -128 1133 580 
Q 1338 1288 1338 2009 
Q 1338 2731 1133 3434 
Q 928 4138 513 4856 
z
" transform="scale(0.015625)"/>
      </defs>
      <use xlink:href="#DejaVuSans-54"/>
      <use xlink:href="#DejaVuSans-69" transform="translate(57.958984 0)"/>
      <use xlink:href="#DejaVuSans-6d" transform="translate(85.742188 0)"/>
      <use xlink:href="#DejaVuSans-65" transform="translate(183.154297 0)"/>
      <use xlink:href="#DejaVuSans-20" transform="translate(244.677734 0)"/>
      <use xlink:href="#DejaVuSans-28" transform="translate(276.464844 0)"/>
      <use xlink:href="#DejaVuSans-73" transform="translate(315.478516 0)"/>
      <use xlink:href="#DejaVuSans-29" transform="translate(367.578125 0)"/>
     </g>
    </g>
   </g>
   <g id="matplotlib.axis_2">
    <g id="ytick_1">
     <g id="line2d_8">
      <defs>
       <path id="m21739ce478" d="M 0 0 
L -3.5 0 
" style="stroke: #000000; stroke-width: 0.8"/>
      </defs>
      <g>
       <use xlink:href="#m21739ce478" x="43.78125" y="276.567074" style="stroke: #000000; stroke-width: 0.8"/>
      </g>
     </g>
     <g id="text_9">
      <!-- 0.0 -->
      <g transform="translate(20.878125 280.366293) scale(0.1 -0.1)">
       <defs>
        <path id="DejaVuSans-2e" d="M 684 794 
L 1344 794 
L 1344 0 
L 684 0 
L 684 794 
z
" transform="scale(0.015625)"/>
       </defs>
       <use xlink:href="#DejaVuSans-30"/>
       <use xlink:href="#DejaVuSans-2e" transform="translate(63.623047 0)"/>
       <use xlink:href="#DejaVuSans-30" transform="translate(95.410156 0)"/>
      </g>
     </g>
    </g>
    <g id="ytick_2">
     <g id="line2d_9">
      <g>
       <use xlink:href="#m21739ce478" x="43.78125" y="240.8522" style="stroke: #000000; stroke-width: 0.8"/>
      </g>
     </g>
     <g id="text_10">
      <!-- 0.2 -->
      <g transform="translate(20.878125 244.651419) scale(0.1 -0.1)">
       <use xlink:href="#DejaVuSans-30"/>
       <use xlink:href="#DejaVuSans-2e" transform="translate(63.623047 0)"/>
       <use xlink:href="#DejaVuSans-32" transform="translate(95.410156 0)"/>
      </g>
     </g>
    </g>
    <g id="ytick_3">
     <g id="line2d_10">
      <g>
       <use xlink:href="#m21739ce478" x="43.78125" y="205.137326" style="stroke: #000000; stroke-width: 0.8"/>
      </g>
     </g>
     <g id="text_11">
      <!-- 0.4 -->
      <g transform="translate(20.878125 208.936545) scale(0.1 -0.1)">
       <defs>
        <path id="DejaVuSans-34" d="M 2419 4116 
L 825 1625 
L 2419 1625 
L 2419 4116 
z
M 2253 4666 
L 3047 4666 
L 3047 1625 
L 3713 1625 
L 3713 1100 
L 3047 1100 
L 3047 0 
L 2419 0 
L 2419 1100 
L 313 1100 
L 313 1709 
L 2253 4666 
z
" transform="scale(0.015625)"/>
       </defs>
       <use xlink:href="#DejaVuSans-30"/>
       <use xlink:href="#DejaVuSans-2e" transform="translate(63.623047 0)"/>
       <use xlink:href="#DejaVuSans-34" transform="translate(95.410156 0)"/>
      </g>
     </g>
    </g>
    <g id="ytick_4">
     <g id="line2d_11">
      <g>
       <use xlink:href="#m21739ce478" x="43.78125" y="169.422452" style="stroke: #000000; stroke-width: 0.8"/>
      </g>
     </g>
     <g id="text_12">
      <!-- 0.6 -->
      <g transform="translate(20.878125 173.221671) scale(0.1 -0.1)">
       <defs>
        <path id="DejaVuSans-36" d="M 2113 2584 
Q 1688 2584 1439 2293 
Q 1191 2003 1191 1497 
Q 1191 994 1439 701 
Q 1688 409 2113 409 
Q 2538 409 2786 701 
Q 3034 994 3034 1497 
Q 3034 2003 2786 2293 
Q 2538 2584 2113 2584 
z
M 3366 4563 
L 3366 3988 
Q 3128 4100 2886 4159 
Q 2644 4219 2406 4219 
Q 1781 4219 1451 3797 
Q 1122 3375 1075 2522 
Q 1259 2794 1537 2939 
Q 1816 3084 2150 3084 
Q 2853 3084 3261 2657 
Q 3669 2231 3669 1497 
Q 3669 778 3244 343 
Q 2819 -91 2113 -91 
Q 1303 -91 875 529 
Q 447 1150 447 2328 
Q 447 3434 972 4092 
Q 1497 4750 2381 4750 
Q 2619 4750 2861 4703 
Q 3103 4656 3366 4563 
z
" transform="scale(0.015625)"/>
       </defs>
       <use xlink:href="#DejaVuSans-30"/>
       <use xlink:href="#DejaVuSans-2e" transform="translate(63.623047 0)"/>
       <use xlink:href="#DejaVuSans-36" transform="translate(95.410156 0)"/>
      </g>
     </g>
    </g>
    <g id="ytick_5">
     <g id="line2d_12">
      <g>
       <use xlink:href="#m21739ce478" x="43.78125" y="133.707578" style="stroke: #000000; stroke-width: 0.8"/>
      </g>
     </g>
     <g id="text_13">
      <!-- 0.8 -->
      <g transform="translate(20.878125 137.506797) scale(0.1 -0.1)">
       <defs>
        <path id="DejaVuSans-38" d="M 2034 2216 
Q 1584 2216 1326 1975 
Q 1069 1734 1069 1313 
Q 1069 891 1326 650 
Q 1584 409 2034 409 
Q 2484 409 2743 651 
Q 3003 894 3003 1313 
Q 3003 1734 2745 1975 
Q 2488 2216 2034 2216 
z
M 1403 2484 
Q 997 2584 770 2862 
Q 544 3141 544 3541 
Q 544 4100 942 4425 
Q 1341 4750 2034 4750 
Q 2731 4750 3128 4425 
Q 3525 4100 3525 3541 
Q 3525 3141 3298 2862 
Q 3072 2584 2669 2484 
Q 3125 2378 3379 2068 
Q 3634 1759 3634 1313 
Q 3634 634 3220 271 
Q 2806 -91 2034 -91 
Q 1263 -91 848 271 
Q 434 634 434 1313 
Q 434 1759 690 2068 
Q 947 2378 1403 2484 
z
M 1172 3481 
Q 1172 3119 1398 2916 
Q 1625 2713 2034 2713 
Q 2441 2713 2670 2916 
Q 2900 3119 2900 3481 
Q 2900 3844 2670 4047 
Q 2441 4250 2034 4250 
Q 1625 4250 1398 4047 
Q 1172 3844 1172 3481 
z
" transform="scale(0.015625)"/>
       </defs>
       <use xlink:href="#DejaVuSans-30"/>
       <use xlink:href="#DejaVuSans-2e" transform="translate(63.623047 0)"/>
       <use xlink:href="#DejaVuSans-38" transform="translate(95.410156 0)"/>
      </g>
     </g>
    </g>
    <g id="ytick_6">
     <g id="line2d_13">
      <g>
       <use xlink:href="#m21739ce478" x="43.78125" y="97.992704" style="stroke: #000000; stroke-width: 0.8"/>
      </g>
     </g>
     <g id="text_14">
      <!-- 1.0 -->
      <g transform="translate(20.878125 101.791923) scale(0.1 -0.1)">
       <use xlink:href="#DejaVuSans-31"/>
       <use xlink:href="#DejaVuSans-2e" transform="translate(63.623047 0)"/>
       <use xlink:href="#DejaVuSans-30" transform="translate(95.410156 0)"/>
      </g>
     </g>
    </g>
    <g id="ytick_7">
     <g id="line2d_14">
      <g>
       <use xlink:href="#m21739ce478" x="43.78125" y="62.27783" style="stroke: #000000; stroke-width: 0.8"/>
      </g>
     </g>
     <g id="text_15">
      <!-- 1.2 -->
      <g transform="translate(20.878125 66.077049) scale(0.1 -0.1)">
       <use xlink:href="#DejaVuSans-31"/>
       <use xlink:href="#DejaVuSans-2e" transform="translate(63.623047 0)"/>
       <use xlink:href="#DejaVuSans-32" transform="translate(95.410156 0)"/>
      </g>
     </g>
    </g>
    <g id="ytick_8">
     <g id="line2d_15">
      <g>
       <use xlink:href="#m21739ce478" x="43.78125" y="26.562957" style="stroke: #000000; stroke-width: 0.8"/>
      </g>
     </g>
     <g id="text_16">
      <!-- 1.4 -->
      <g transform="translate(20.878125 30.362175) scale(0.1 -0.1)">
       <use xlink:href="#DejaVuSans-31"/>
       <use xlink:href="#DejaVuSans-2e" transform="translate(63.623047 0)"/>
       <use xlink:href="#DejaVuSans-34" transform="translate(95.410156 0)"/>
      </g>
     </g>
    </g>
    <g id="text_17">
     <!-- Amplitude -->
     <g transform="translate(14.798438 180.996781) rotate(-90) scale(0.1 -0.1)">
      <defs>
       <path id="DejaVuSans-41" d="M 2188 4044 
L 1331 1722 
L 3047 1722 
L 2188 4044 
z
M 1831 4666 
L 2547 4666 
L 4325 0 
L 3669 0 
L 3244 1197 
L 1141 1197 
L 716 0 
L 50 0 
L 1831 4666 
z
" transform="scale(0.015625)"/>
       <path id="DejaVuSans-70" d="M 1159 525 
L 1159 -1331 
L 581 -1331 
L 581 3500 
L 1159 3500 
L 1159 2969 
Q 1341 3281 1617 3432 
Q 1894 3584 2278 3584 
Q 2916 3584 3314 3078 
Q 3713 2572 3713 1747 
Q 3713 922 3314 415 
Q 2916 -91 2278 -91 
Q 1894 -91 1617 61 
Q 1341 213 1159 525 
z
M 3116 1747 
Q 3116 2381 2855 2742 
Q 2594 3103 2138 3103 
Q 1681 3103 1420 2742 
Q 1159 2381 1159 1747 
Q 1159 1113 1420 752 
Q 1681 391 2138 391 
Q 2594 391 2855 752 
Q 3116 1113 3116 1747 
z
" transform="scale(0.015625)"/>
       <path id="DejaVuSans-6c" d="M 603 4863 
L 1178 4863 
L 1178 0 
L 603 0 
L 603 4863 
z
" transform="scale(0.015625)"/>
       <path id="DejaVuSans-74" d="M 1172 4494 
L 1172 3500 
L 2356 3500 
L 2356 3053 
L 1172 3053 
L 1172 1153 
Q 1172 725 1289 603 
Q 1406 481 1766 481 
L 2356 481 
L 2356 0 
L 1766 0 
Q 1100 0 847 248 
Q 594 497 594 1153 
L 594 3053 
L 172 3053 
L 172 3500 
L 594 3500 
L 594 4494 
L 1172 4494 
z
" transform="scale(0.015625)"/>
       <path id="DejaVuSans-75" d="M 544 1381 
L 544 3500 
L 1119 3500 
L 1119 1403 
Q 1119 906 1312 657 
Q 1506 409 1894 409 
Q 2359 409 2629 706 
Q 2900 1003 2900 1516 
L 2900 3500 
L 3475 3500 
L 3475 0 
L 2900 0 
L 2900 538 
Q 2691 219 2414 64 
Q 2138 -91 1772 -91 
Q 1169 -91 856 284 
Q 544 659 544 1381 
z
M 1991 3584 
L 1991 3584 
z
" transform="scale(0.015625)"/>
       <path id="DejaVuSans-64" d="M 2906 2969 
L 2906 4863 
L 3481 4863 
L 3481 0 
L 2906 0 
L 2906 525 
Q 2725 213 2448 61 
Q 2172 -91 1784 -91 
Q 1150 -91 751 415 
Q 353 922 353 1747 
Q 353 2572 751 3078 
Q 1150 3584 1784 3584 
Q 2172 3584 2448 3432 
Q 2725 3281 2906 2969 
z
M 947 1747 
Q 947 1113 1208 752 
Q 1469 391 1925 391 
Q 2381 391 2643 752 
Q 2906 1113 2906 1747 
Q 2906 2381 2643 2742 
Q 2381 3103 1925 3103 
Q 1469 3103 1208 2742 
Q 947 2381 947 1747 
z
" transform="scale(0.015625)"/>
      </defs>
      <use xlink:href="#DejaVuSans-41"/>
      <use xlink:href="#DejaVuSans-6d" transform="translate(68.408203 0)"/>
      <use xlink:href="#DejaVuSans-70" transform="translate(165.820312 0)"/>
      <use xlink:href="#DejaVuSans-6c" transform="translate(229.296875 0)"/>
      <use xlink:href="#DejaVuSans-69" transform="translate(257.080078 0)"/>
      <use xlink:href="#DejaVuSans-74" transform="translate(284.863281 0)"/>
      <use xlink:href="#DejaVuSans-75" transform="translate(324.072266 0)"/>
      <use xlink:href="#DejaVuSans-64" transform="translate(387.451172 0)"/>
      <use xlink:href="#DejaVuSans-65" transform="translate(450.927734 0)"/>
     </g>
    </g>
   </g>
   <g id="line2d_16">
    <path d="M 60.013977 111.740277 
L 62.730752 110.670019 
L 64.089139 108.522461 
L 65.447526 107.093103 
L 66.805913 105.487716 
L 68.164301 103.3472 
L 69.522688 100.664513 
L 70.881075 98.700026 
L 72.239462 97.629768 
L 73.597849 95.848351 
L 74.956237 94.418994 
L 76.314624 93.700794 
L 77.673011 92.630536 
L 79.031398 92.095407 
L 80.389786 92.095407 
L 81.748173 91.025149 
L 83.10656 92.095407 
L 84.464947 92.095407 
L 85.823334 92.630536 
L 87.181722 92.630536 
L 88.540109 93.700794 
L 89.898496 94.418994 
L 91.256883 95.848351 
L 92.615271 97.629768 
L 96.690432 97.629768 
L 98.048819 99.242196 
L 99.407207 100.129384 
L 100.765594 100.664513 
L 102.123981 100.664513 
L 103.482368 102.276942 
L 111.632692 102.276942 
L 112.991079 100.664513 
L 114.349466 99.242196 
L 115.707853 97.629768 
L 118.424628 91.025149 
L 119.783015 87.096175 
L 121.141402 83.70233 
L 122.499789 76.91464 
L 125.216564 66.205017 
L 127.933338 58.882198 
L 129.291725 55.129253 
L 130.650113 50.130021 
L 133.366887 42.272073 
L 134.725274 41.736944 
L 136.083662 38.343099 
L 137.442049 37.80797 
L 138.800436 36.378612 
L 140.158823 34.414125 
L 141.51721 36.378612 
L 142.875598 36.378612 
L 144.233985 37.80797 
L 145.592372 38.343099 
L 149.667534 44.23656 
L 151.025921 44.23656 
L 152.384308 45.665918 
L 153.742695 46.201047 
L 156.45947 50.130021 
L 157.817857 50.130021 
L 159.176244 51.918479 
L 160.534632 53.347837 
L 161.893019 53.882966 
L 163.251406 55.664382 
L 164.609793 55.664382 
L 165.96818 57.09374 
L 167.326568 57.628869 
L 168.684955 58.882198 
L 170.043342 58.882198 
L 171.401729 60.670656 
L 172.760116 61.381814 
L 174.118504 61.381814 
L 175.476891 63.170272 
L 178.193665 63.170272 
L 179.552053 64.416559 
L 180.91044 64.416559 
L 182.268827 64.951688 
L 183.627214 66.205017 
L 184.985601 66.740146 
L 187.702376 66.740146 
L 189.060763 68.521563 
L 191.777538 68.521563 
L 193.135925 69.774891 
L 197.211086 69.774891 
L 198.569474 71.563349 
L 199.927861 70.31002 
L 201.286248 71.563349 
L 202.644635 72.098478 
L 204.003023 72.098478 
L 205.36141 73.344765 
L 206.719797 73.879895 
L 210.794959 73.879895 
L 212.153346 75.133223 
L 213.511733 75.133223 
L 214.87012 75.668352 
L 216.228508 75.668352 
L 217.586895 76.91464 
L 218.945282 76.91464 
L 220.303669 77.449769 
L 223.020444 77.449769 
L 224.378831 79.238227 
L 225.737218 79.238227 
L 227.095605 79.773356 
L 228.453992 79.238227 
L 229.81238 80.308485 
L 231.170767 80.843614 
L 235.245929 80.843614 
L 236.604316 82.096942 
L 237.962703 82.096942 
L 239.32109 82.632071 
L 240.679477 82.632071 
L 242.037865 83.70233 
L 243.396252 83.70233 
L 244.754639 84.237459 
L 247.471414 84.237459 
L 248.829801 84.772588 
L 250.188188 86.025916 
L 255.621737 86.025916 
L 256.980124 87.096175 
L 259.696899 87.096175 
L 261.055286 87.631304 
L 265.130447 87.631304 
L 266.488835 88.884632 
L 267.847222 88.884632 
L 269.205609 89.419761 
L 273.280771 89.419761 
L 274.639158 90.49002 
L 275.997545 90.49002 
L 277.355932 91.025149 
L 280.072707 91.025149 
L 281.431094 92.095407 
L 285.506256 92.095407 
L 286.864643 92.630536 
L 289.581417 92.630536 
L 290.939805 93.700794 
L 292.298192 93.700794 
L 293.656579 94.418994 
L 296.373353 94.418994 
L 297.731741 95.848351 
L 301.806902 95.848351 
L 303.16529 96.55951 
L 304.523677 97.629768 
L 314.032387 97.629768 
L 315.390775 98.700026 
L 318.107549 98.700026 
L 319.465936 99.242196 
L 320.824323 98.700026 
L 335.766583 98.700026 
L 337.12497 99.242196 
L 341.200132 99.242196 
L 342.558519 98.700026 
L 343.916906 97.988868 
L 345.275293 97.629768 
L 346.633681 95.848351 
L 347.992068 95.489252 
L 349.350455 93.700794 
L 350.708842 92.630536 
L 352.067229 92.095407 
L 353.425617 91.025149 
L 361.57594 91.025149 
L 362.934327 92.095407 
L 365.651102 92.095407 
L 367.009489 92.630536 
L 368.367876 94.418994 
L 371.084651 94.418994 
L 372.443038 95.848351 
L 373.801425 95.848351 
L 375.159812 96.55951 
L 376.518199 97.629768 
L 379.234974 97.629768 
L 380.593361 98.700026 
L 381.951748 99.242196 
L 383.310136 99.242196 
L 384.668523 100.129384 
L 384.668523 100.129384 
" clip-path="url(#p6f5a87a894)" style="fill: none; stroke: #000000; stroke-width: 1.5; stroke-linecap: square"/>
   </g>
   <g id="line2d_17">
    <path d="M 60.013977 273.431568 
L 61.372364 272.802759 
L 62.730752 270.581838 
L 65.447526 263.869616 
L 66.805913 260.539468 
L 69.522688 251.407242 
L 70.881075 247.785108 
L 74.956237 238.30928 
L 76.314624 236.396555 
L 77.673011 235.293419 
L 79.031398 234.837091 
L 80.389786 234.893298 
L 81.748173 235.351489 
L 83.10656 236.120843 
L 84.464947 237.12694 
L 87.181722 239.617454 
L 91.256883 243.937606 
L 96.690432 249.771367 
L 100.765594 253.783185 
L 103.482368 256.210937 
L 106.199143 258.428655 
L 108.915917 260.438351 
L 110.274304 261.367705 
L 111.632692 262.063904 
L 112.991079 261.542179 
L 114.349466 259.4106 
L 115.707853 256.427261 
L 117.06624 251.885044 
L 121.141402 233.11119 
L 123.858177 212.141582 
L 125.216564 203.9703 
L 126.574951 197.348732 
L 127.933338 191.722163 
L 129.291725 185.106164 
L 130.650113 176.954364 
L 132.0085 169.799052 
L 133.366887 165.105343 
L 134.725274 162.092664 
L 137.442049 157.040844 
L 138.800436 155.630085 
L 140.158823 155.640642 
L 141.51721 156.850377 
L 142.875598 158.989923 
L 144.233985 161.838478 
L 145.592372 165.215586 
L 149.667534 176.657865 
L 153.742695 185.156703 
L 159.176244 198.015261 
L 161.893019 204.038755 
L 163.251406 206.695668 
L 172.760116 222.91842 
L 174.118504 225.152373 
L 175.476891 227.135112 
L 180.91044 233.161382 
L 184.985601 238.236517 
L 193.135925 246.36094 
L 198.569474 249.824 
L 202.644635 252.988747 
L 205.36141 255.102622 
L 210.794959 258.758795 
L 214.87012 261.337948 
L 218.945282 263.669855 
L 223.020444 265.716242 
L 227.095605 267.47886 
L 231.170767 268.978724 
L 235.245929 270.244693 
L 239.32109 271.307369 
L 244.754639 272.458256 
L 250.188188 273.361084 
L 256.980124 274.218326 
L 263.77206 274.847448 
L 271.922384 275.384667 
L 282.789481 275.849681 
L 296.373353 276.183037 
L 307.240451 276.334125 
L 308.598838 276.273499 
L 314.032387 275.566537 
L 319.465936 275.135906 
L 323.541098 273.18499 
L 330.333034 270.871953 
L 333.049808 269.855936 
L 334.408196 269.524423 
L 335.766583 269.333947 
L 338.483357 269.126381 
L 339.841744 268.81591 
L 341.200132 268.10816 
L 342.558519 266.837129 
L 343.916906 265.29121 
L 345.275293 263.350546 
L 347.992068 258.479285 
L 350.708842 253.066403 
L 352.067229 251.106202 
L 353.425617 249.665247 
L 354.784004 248.750972 
L 356.142391 248.30914 
L 360.217553 247.350124 
L 361.57594 247.436875 
L 362.934327 247.74234 
L 364.292714 248.164538 
L 365.651102 248.726271 
L 368.367876 250.27723 
L 371.084651 251.867668 
L 373.801425 253.459887 
L 376.518199 255.115512 
L 380.593361 256.709005 
L 383.310136 258.066508 
L 384.668523 258.800978 
L 384.668523 258.800978 
" clip-path="url(#p6f5a87a894)" style="fill: none; stroke: #ff0000; stroke-width: 1.5; stroke-linecap: square"/>
   </g>
   <g id="line2d_18">
    <path d="M 60.013977 162.179671 
L 64.089139 163.138899 
L 68.164301 163.861392 
L 72.239462 164.326026 
L 76.314624 164.511674 
L 80.389786 164.39721 
L 84.464947 163.976809 
L 88.540109 163.269127 
L 92.615271 162.294348 
L 96.690432 161.072659 
L 100.765594 159.624245 
L 104.840756 157.96929 
L 110.274304 155.476289 
L 115.707853 152.699839 
L 121.141402 149.687786 
L 127.933338 145.664296 
L 137.442049 139.716483 
L 157.817857 126.844161 
L 164.609793 122.851324 
L 170.043342 119.871967 
L 175.476891 117.135478 
L 180.91044 114.689705 
L 184.985601 113.074939 
L 189.060763 111.670801 
L 193.135925 110.48682 
L 197.211086 109.515483 
L 201.286248 108.748209 
L 205.36141 108.176418 
L 209.436571 107.791528 
L 213.511733 107.584961 
L 218.945282 107.572098 
L 224.378831 107.840658 
L 229.81238 108.370305 
L 235.245929 109.140699 
L 240.679477 110.131501 
L 246.113026 111.322374 
L 252.904962 113.061329 
L 259.696899 115.041391 
L 267.847222 117.679795 
L 277.355932 121.032873 
L 289.581417 125.611252 
L 316.749162 135.865275 
L 328.974647 140.231273 
L 339.841744 143.878906 
L 349.350455 146.838944 
L 357.500778 149.170529 
L 365.651102 151.284352 
L 373.801425 153.153898 
L 380.593361 154.506122 
L 384.668523 155.22081 
L 384.668523 155.22081 
" clip-path="url(#p6f5a87a894)" style="fill: none; stroke: #0000ff; stroke-width: 1.5; stroke-linecap: square"/>
   </g>
   <g id="patch_3">
    <path d="M 43.78125 288.430125 
L 43.78125 22.318125 
" style="fill: none; stroke: #000000; stroke-width: 0.8; stroke-linejoin: miter; stroke-linecap: square"/>
   </g>
   <g id="patch_4">
    <path d="M 400.90125 288.430125 
L 400.90125 22.318125 
" style="fill: none; stroke: #000000; stroke-width: 0.8; stroke-linejoin: miter; stroke-linecap: square"/>
   </g>
   <g id="patch_5">
    <path d="M 43.78125 288.430125 
L 400.90125 288.430125 
" style="fill: none; stroke: #000000; stroke-width: 0.8; stroke-linejoin: miter; stroke-linecap: square"/>
   </g>
   <g id="patch_6">
    <path d="M 43.78125 22.318125 
L 400.90125 22.318125 
" style="fill: none; stroke: #000000; stroke-width: 0.8; stroke-linejoin: miter; stroke-linecap: square"/>
   </g>
   <g id="text_18">
    <!-- EDA Signal Decomposition - Nonstress Segment -->
    <g transform="translate(78.192188 16.318125) scale(0.12 -0.12)">
     <defs>
      <path id="DejaVuSans-45" d="M 628 4666 
L 3578 4666 
L 3578 4134 
L 1259 4134 
L 1259 2753 
L 3481 2753 
L 3481 2222 
L 1259 2222 
L 1259 531 
L 3634 531 
L 3634 0 
L 628 0 
L 628 4666 
z
" transform="scale(0.015625)"/>
      <path id="DejaVuSans-44" d="M 1259 4147 
L 1259 519 
L 2022 519 
Q 2988 519 3436 956 
Q 3884 1394 3884 2338 
Q 3884 3275 3436 3711 
Q 2988 4147 2022 4147 
L 1259 4147 
z
M 628 4666 
L 1925 4666 
Q 3281 4666 3915 4102 
Q 4550 3538 4550 2338 
Q 4550 1131 3912 565 
Q 3275 0 1925 0 
L 628 0 
L 628 4666 
z
" transform="scale(0.015625)"/>
      <path id="DejaVuSans-53" d="M 3425 4513 
L 3425 3897 
Q 3066 4069 2747 4153 
Q 2428 4238 2131 4238 
Q 1616 4238 1336 4038 
Q 1056 3838 1056 3469 
Q 1056 3159 1242 3001 
Q 1428 2844 1947 2747 
L 2328 2669 
Q 3034 2534 3370 2195 
Q 3706 1856 3706 1288 
Q 3706 609 3251 259 
Q 2797 -91 1919 -91 
Q 1588 -91 1214 -16 
Q 841 59 441 206 
L 441 856 
Q 825 641 1194 531 
Q 1563 422 1919 422 
Q 2459 422 2753 634 
Q 3047 847 3047 1241 
Q 3047 1584 2836 1778 
Q 2625 1972 2144 2069 
L 1759 2144 
Q 1053 2284 737 2584 
Q 422 2884 422 3419 
Q 422 4038 858 4394 
Q 1294 4750 2059 4750 
Q 2388 4750 2728 4690 
Q 3069 4631 3425 4513 
z
" transform="scale(0.015625)"/>
      <path id="DejaVuSans-67" d="M 2906 1791 
Q 2906 2416 2648 2759 
Q 2391 3103 1925 3103 
Q 1463 3103 1205 2759 
Q 947 2416 947 1791 
Q 947 1169 1205 825 
Q 1463 481 1925 481 
Q 2391 481 2648 825 
Q 2906 1169 2906 1791 
z
M 3481 434 
Q 3481 -459 3084 -895 
Q 2688 -1331 1869 -1331 
Q 1566 -1331 1297 -1286 
Q 1028 -1241 775 -1147 
L 775 -588 
Q 1028 -725 1275 -790 
Q 1522 -856 1778 -856 
Q 2344 -856 2625 -561 
Q 2906 -266 2906 331 
L 2906 616 
Q 2728 306 2450 153 
Q 2172 0 1784 0 
Q 1141 0 747 490 
Q 353 981 353 1791 
Q 353 2603 747 3093 
Q 1141 3584 1784 3584 
Q 2172 3584 2450 3431 
Q 2728 3278 2906 2969 
L 2906 3500 
L 3481 3500 
L 3481 434 
z
" transform="scale(0.015625)"/>
      <path id="DejaVuSans-6e" d="M 3513 2113 
L 3513 0 
L 2938 0 
L 2938 2094 
Q 2938 2591 2744 2837 
Q 2550 3084 2163 3084 
Q 1697 3084 1428 2787 
Q 1159 2491 1159 1978 
L 1159 0 
L 581 0 
L 581 3500 
L 1159 3500 
L 1159 2956 
Q 1366 3272 1645 3428 
Q 1925 3584 2291 3584 
Q 2894 3584 3203 3211 
Q 3513 2838 3513 2113 
z
" transform="scale(0.015625)"/>
      <path id="DejaVuSans-61" d="M 2194 1759 
Q 1497 1759 1228 1600 
Q 959 1441 959 1056 
Q 959 750 1161 570 
Q 1363 391 1709 391 
Q 2188 391 2477 730 
Q 2766 1069 2766 1631 
L 2766 1759 
L 2194 1759 
z
M 3341 1997 
L 3341 0 
L 2766 0 
L 2766 531 
Q 2569 213 2275 61 
Q 1981 -91 1556 -91 
Q 1019 -91 701 211 
Q 384 513 384 1019 
Q 384 1609 779 1909 
Q 1175 2209 1959 2209 
L 2766 2209 
L 2766 2266 
Q 2766 2663 2505 2880 
Q 2244 3097 1772 3097 
Q 1472 3097 1187 3025 
Q 903 2953 641 2809 
L 641 3341 
Q 956 3463 1253 3523 
Q 1550 3584 1831 3584 
Q 2591 3584 2966 3190 
Q 3341 2797 3341 1997 
z
" transform="scale(0.015625)"/>
      <path id="DejaVuSans-63" d="M 3122 3366 
L 3122 2828 
Q 2878 2963 2633 3030 
Q 2388 3097 2138 3097 
Q 1578 3097 1268 2742 
Q 959 2388 959 1747 
Q 959 1106 1268 751 
Q 1578 397 2138 397 
Q 2388 397 2633 464 
Q 2878 531 3122 666 
L 3122 134 
Q 2881 22 2623 -34 
Q 2366 -91 2075 -91 
Q 1284 -91 818 406 
Q 353 903 353 1747 
Q 353 2603 823 3093 
Q 1294 3584 2113 3584 
Q 2378 3584 2631 3529 
Q 2884 3475 3122 3366 
z
" transform="scale(0.015625)"/>
      <path id="DejaVuSans-6f" d="M 1959 3097 
Q 1497 3097 1228 2736 
Q 959 2375 959 1747 
Q 959 1119 1226 758 
Q 1494 397 1959 397 
Q 2419 397 2687 759 
Q 2956 1122 2956 1747 
Q 2956 2369 2687 2733 
Q 2419 3097 1959 3097 
z
M 1959 3584 
Q 2709 3584 3137 3096 
Q 3566 2609 3566 1747 
Q 3566 888 3137 398 
Q 2709 -91 1959 -91 
Q 1206 -91 779 398 
Q 353 888 353 1747 
Q 353 2609 779 3096 
Q 1206 3584 1959 3584 
z
" transform="scale(0.015625)"/>
      <path id="DejaVuSans-2d" d="M 313 2009 
L 1997 2009 
L 1997 1497 
L 313 1497 
L 313 2009 
z
" transform="scale(0.015625)"/>
      <path id="DejaVuSans-4e" d="M 628 4666 
L 1478 4666 
L 3547 763 
L 3547 4666 
L 4159 4666 
L 4159 0 
L 3309 0 
L 1241 3903 
L 1241 0 
L 628 0 
L 628 4666 
z
" transform="scale(0.015625)"/>
      <path id="DejaVuSans-72" d="M 2631 2963 
Q 2534 3019 2420 3045 
Q 2306 3072 2169 3072 
Q 1681 3072 1420 2755 
Q 1159 2438 1159 1844 
L 1159 0 
L 581 0 
L 581 3500 
L 1159 3500 
L 1159 2956 
Q 1341 3275 1631 3429 
Q 1922 3584 2338 3584 
Q 2397 3584 2469 3576 
Q 2541 3569 2628 3553 
L 2631 2963 
z
" transform="scale(0.015625)"/>
     </defs>
     <use xlink:href="#DejaVuSans-45"/>
     <use xlink:href="#DejaVuSans-44" transform="translate(63.183594 0)"/>
     <use xlink:href="#DejaVuSans-41" transform="translate(138.435547 0)"/>
     <use xlink:href="#DejaVuSans-20" transform="translate(206.84375 0)"/>
     <use xlink:href="#DejaVuSans-53" transform="translate(238.630859 0)"/>
     <use xlink:href="#DejaVuSans-69" transform="translate(302.107422 0)"/>
     <use xlink:href="#DejaVuSans-67" transform="translate(329.890625 0)"/>
     <use xlink:href="#DejaVuSans-6e" transform="translate(393.367188 0)"/>
     <use xlink:href="#DejaVuSans-61" transform="translate(456.746094 0)"/>
     <use xlink:href="#DejaVuSans-6c" transform="translate(518.025391 0)"/>
     <use xlink:href="#DejaVuSans-20" transform="translate(545.808594 0)"/>
     <use xlink:href="#DejaVuSans-44" transform="translate(577.595703 0)"/>
     <use xlink:href="#DejaVuSans-65" transform="translate(654.597656 0)"/>
     <use xlink:href="#DejaVuSans-63" transform="translate(716.121094 0)"/>
     <use xlink:href="#DejaVuSans-6f" transform="translate(771.101562 0)"/>
     <use xlink:href="#DejaVuSans-6d" transform="translate(832.283203 0)"/>
     <use xlink:href="#DejaVuSans-70" transform="translate(929.695312 0)"/>
     <use xlink:href="#DejaVuSans-6f" transform="translate(993.171875 0)"/>
     <use xlink:href="#DejaVuSans-73" transform="translate(1054.353516 0)"/>
     <use xlink:href="#DejaVuSans-69" transform="translate(1106.453125 0)"/>
     <use xlink:href="#DejaVuSans-74" transform="translate(1134.236328 0)"/>
     <use xlink:href="#DejaVuSans-69" transform="translate(1173.445312 0)"/>
     <use xlink:href="#DejaVuSans-6f" transform="translate(1201.228516 0)"/>
     <use xlink:href="#DejaVuSans-6e" transform="translate(1262.410156 0)"/>
     <use xlink:href="#DejaVuSans-20" transform="translate(1325.789062 0)"/>
     <use xlink:href="#DejaVuSans-2d" transform="translate(1357.576172 0)"/>
     <use xlink:href="#DejaVuSans-20" transform="translate(1393.660156 0)"/>
     <use xlink:href="#DejaVuSans-4e" transform="translate(1425.447266 0)"/>
     <use xlink:href="#DejaVuSans-6f" transform="translate(1500.251953 0)"/>
     <use xlink:href="#DejaVuSans-6e" transform="translate(1561.433594 0)"/>
     <use xlink:href="#DejaVuSans-73" transform="translate(1624.8125 0)"/>
     <use xlink:href="#DejaVuSans-74" transform="translate(1676.912109 0)"/>
     <use xlink:href="#DejaVuSans-72" transform="translate(1716.121094 0)"/>
     <use xlink:href="#DejaVuSans-65" transform="translate(1754.984375 0)"/>
     <use xlink:href="#DejaVuSans-73" transform="translate(1816.507812 0)"/>
     <use xlink:href="#DejaVuSans-73" transform="translate(1868.607422 0)"/>
     <use xlink:href="#DejaVuSans-20" transform="translate(1920.707031 0)"/>
     <use xlink:href="#DejaVuSans-53" transform="translate(1952.494141 0)"/>
     <use xlink:href="#DejaVuSans-65" transform="translate(2015.970703 0)"/>
     <use xlink:href="#DejaVuSans-67" transform="translate(2077.494141 0)"/>
     <use xlink:href="#DejaVuSans-6d" transform="translate(2140.970703 0)"/>
     <use xlink:href="#DejaVuSans-65" transform="translate(2238.382812 0)"/>
     <use xlink:href="#DejaVuSans-6e" transform="translate(2299.90625 0)"/>
     <use xlink:href="#DejaVuSans-74" transform="translate(2363.285156 0)"/>
    </g>
   </g>
   <g id="legend_1">
    <g id="patch_7">
     <path d="M 270.168437 283.430125 
L 393.90125 283.430125 
Q 395.90125 283.430125 395.90125 281.430125 
L 395.90125 238.39575 
Q 395.90125 236.39575 393.90125 236.39575 
L 270.168437 236.39575 
Q 268.168437 236.39575 268.168437 238.39575 
L 268.168437 281.430125 
Q 268.168437 283.430125 270.168437 283.430125 
z
" style="fill: #ffffff; opacity: 0.8; stroke: #cccccc; stroke-linejoin: miter"/>
    </g>
    <g id="line2d_19">
     <path d="M 272.168437 244.494187 
L 282.168437 244.494187 
L 292.168437 244.494187 
" style="fill: none; stroke: #000000; stroke-width: 1.5; stroke-linecap: square"/>
    </g>
    <g id="text_19">
     <!-- Segment -->
     <g transform="translate(300.168437 247.994187) scale(0.1 -0.1)">
      <use xlink:href="#DejaVuSans-53"/>
      <use xlink:href="#DejaVuSans-65" transform="translate(63.476562 0)"/>
      <use xlink:href="#DejaVuSans-67" transform="translate(125 0)"/>
      <use xlink:href="#DejaVuSans-6d" transform="translate(188.476562 0)"/>
      <use xlink:href="#DejaVuSans-65" transform="translate(285.888672 0)"/>
      <use xlink:href="#DejaVuSans-6e" transform="translate(347.412109 0)"/>
      <use xlink:href="#DejaVuSans-74" transform="translate(410.791016 0)"/>
     </g>
    </g>
    <g id="line2d_20">
     <path d="M 272.168437 259.172312 
L 282.168437 259.172312 
L 292.168437 259.172312 
" style="fill: none; stroke: #ff0000; stroke-width: 1.5; stroke-linecap: square"/>
    </g>
    <g id="text_20">
     <!-- Phasic component -->
     <g transform="translate(300.168437 262.672312) scale(0.1 -0.1)">
      <defs>
       <path id="DejaVuSans-50" d="M 1259 4147 
L 1259 2394 
L 2053 2394 
Q 2494 2394 2734 2622 
Q 2975 2850 2975 3272 
Q 2975 3691 2734 3919 
Q 2494 4147 2053 4147 
L 1259 4147 
z
M 628 4666 
L 2053 4666 
Q 2838 4666 3239 4311 
Q 3641 3956 3641 3272 
Q 3641 2581 3239 2228 
Q 2838 1875 2053 1875 
L 1259 1875 
L 1259 0 
L 628 0 
L 628 4666 
z
" transform="scale(0.015625)"/>
       <path id="DejaVuSans-68" d="M 3513 2113 
L 3513 0 
L 2938 0 
L 2938 2094 
Q 2938 2591 2744 2837 
Q 2550 3084 2163 3084 
Q 1697 3084 1428 2787 
Q 1159 2491 1159 1978 
L 1159 0 
L 581 0 
L 581 4863 
L 1159 4863 
L 1159 2956 
Q 1366 3272 1645 3428 
Q 1925 3584 2291 3584 
Q 2894 3584 3203 3211 
Q 3513 2838 3513 2113 
z
" transform="scale(0.015625)"/>
      </defs>
      <use xlink:href="#DejaVuSans-50"/>
      <use xlink:href="#DejaVuSans-68" transform="translate(60.302734 0)"/>
      <use xlink:href="#DejaVuSans-61" transform="translate(123.681641 0)"/>
      <use xlink:href="#DejaVuSans-73" transform="translate(184.960938 0)"/>
      <use xlink:href="#DejaVuSans-69" transform="translate(237.060547 0)"/>
      <use xlink:href="#DejaVuSans-63" transform="translate(264.84375 0)"/>
      <use xlink:href="#DejaVuSans-20" transform="translate(319.824219 0)"/>
      <use xlink:href="#DejaVuSans-63" transform="translate(351.611328 0)"/>
      <use xlink:href="#DejaVuSans-6f" transform="translate(406.591797 0)"/>
      <use xlink:href="#DejaVuSans-6d" transform="translate(467.773438 0)"/>
      <use xlink:href="#DejaVuSans-70" transform="translate(565.185547 0)"/>
      <use xlink:href="#DejaVuSans-6f" transform="translate(628.662109 0)"/>
      <use xlink:href="#DejaVuSans-6e" transform="translate(689.84375 0)"/>
      <use xlink:href="#DejaVuSans-65" transform="translate(753.222656 0)"/>
      <use xlink:href="#DejaVuSans-6e" transform="translate(814.746094 0)"/>
      <use xlink:href="#DejaVuSans-74" transform="translate(878.125 0)"/>
     </g>
    </g>
    <g id="line2d_21">
     <path d="M 272.168437 273.850437 
L 282.168437 273.850437 
L 292.168437 273.850437 
" style="fill: none; stroke: #0000ff; stroke-width: 1.5; stroke-linecap: square"/>
    </g>
    <g id="text_21">
     <!-- Tonic component -->
     <g transform="translate(300.168437 277.350437) scale(0.1 -0.1)">
      <use xlink:href="#DejaVuSans-54"/>
      <use xlink:href="#DejaVuSans-6f" transform="translate(44.083984 0)"/>
      <use xlink:href="#DejaVuSans-6e" transform="translate(105.265625 0)"/>
      <use xlink:href="#DejaVuSans-69" transform="translate(168.644531 0)"/>
      <use xlink:href="#DejaVuSans-63" transform="translate(196.427734 0)"/>
      <use xlink:href="#DejaVuSans-20" transform="translate(251.408203 0)"/>
      <use xlink:href="#DejaVuSans-63" transform="translate(283.195312 0)"/>
      <use xlink:href="#DejaVuSans-6f" transform="translate(338.175781 0)"/>
      <use xlink:href="#DejaVuSans-6d" transform="translate(399.357422 0)"/>
      <use xlink:href="#DejaVuSans-70" transform="translate(496.769531 0)"/>
      <use xlink:href="#DejaVuSans-6f" transform="translate(560.246094 0)"/>
      <use xlink:href="#DejaVuSans-6e" transform="translate(621.427734 0)"/>
      <use xlink:href="#DejaVuSans-65" transform="translate(684.806641 0)"/>
      <use xlink:href="#DejaVuSans-6e" transform="translate(746.330078 0)"/>
      <use xlink:href="#DejaVuSans-74" transform="translate(809.708984 0)"/>
     </g>
    </g>
   </g>
  </g>
 </g>
 <defs>
  <clipPath id="p6f5a87a894">
   <rect x="43.78125" y="22.318125" width="357.12" height="266.112"/>
  </clipPath>
 </defs>
</svg>
