<?xml version="1.0" encoding="utf-8" standalone="no"?>
<!DOCTYPE svg PUBLIC "-//W3C//DTD SVG 1.1//EN"
  "http://www.w3.org/Graphics/SVG/1.1/DTD/svg11.dtd">
<svg xmlns:xlink="http://www.w3.org/1999/xlink" width="394.423125pt" height="297.190125pt" viewBox="0 0 394.423125 297.190125" xmlns="http://www.w3.org/2000/svg" version="1.1">
 <metadata>
  <rdf:RDF xmlns:dc="http://purl.org/dc/elements/1.1/" xmlns:cc="http://creativecommons.org/ns#" xmlns:rdf="http://www.w3.org/1999/02/22-rdf-syntax-ns#">
   <cc:Work>
    <dc:type rdf:resource="http://purl.org/dc/dcmitype/StillImage"/>
    <dc:date>2026-01-17T14:50:14.049945</dc:date>
    <dc:format>image/svg+xml</dc:format>
    <dc:creator>
     <cc:Agent>
      <dc:title>Matplotlib v3.10.0, https://matplotlib.org/</dc:title>
     </cc:Agent>
    </dc:creator>
   </cc:Work>
  </rdf:RDF>
 </metadata>
 <defs>
  <style type="text/css">*{stroke-linejoin: round; stroke-linecap: butt}</style>
 </defs>
 <g id="figure_1">
  <g id="patch_1">
   <path d="M 0 297.190125 
L 394.423125 297.190125 
L 394.423125 0 
L 0 0 
z
" style="fill: #ffffff"/>
  </g>
  <g id="axes_1">
   <g id="patch_2">
    <path d="M 30.103125 273.312 
L 387.223125 273.312 
L 387.223125 7.2 
L 30.103125 7.2 
z
" style="fill: #ffffff"/>
   </g>
   <g id="matplotlib.axis_1">
    <g id="xtick_1">
     <g id="line2d_1">
      <defs>
       <path id="m84d1cf394e" d="M 0 0 
L 0 3.5 
" style="stroke: #000000; stroke-width: 0.8"/>
      </defs>
      <g>
       <use xlink:href="#m84d1cf394e" x="44.977465" y="273.312" style="stroke: #000000; stroke-width: 0.8"/>
      </g>
     </g>
     <g id="text_1">
      <!-- 0 -->
      <g transform="translate(41.796215 287.910437) scale(0.1 -0.1)">
       <defs>
        <path id="DejaVuSans-30" d="M 2034 4250 
Q 1547 4250 1301 3770 
Q 1056 3291 1056 2328 
Q 1056 1369 1301 889 
Q 1547 409 2034 409 
Q 2525 409 2770 889 
Q 3016 1369 3016 2328 
Q 3016 3291 2770 3770 
Q 2525 4250 2034 4250 
z
M 2034 4750 
Q 2819 4750 3233 4129 
Q 3647 3509 3647 2328 
Q 3647 1150 3233 529 
Q 2819 -91 2034 -91 
Q 1250 -91 836 529 
Q 422 1150 422 2328 
Q 422 3509 836 4129 
Q 1250 4750 2034 4750 
z
" transform="scale(0.015625)"/>
       </defs>
       <use xlink:href="#DejaVuSans-30"/>
      </g>
     </g>
    </g>
    <g id="xtick_2">
     <g id="line2d_2">
      <g>
       <use xlink:href="#m84d1cf394e" x="99.312954" y="273.312" style="stroke: #000000; stroke-width: 0.8"/>
      </g>
     </g>
     <g id="text_2">
      <!-- 5 -->
      <g transform="translate(96.131704 287.910437) scale(0.1 -0.1)">
       <defs>
        <path id="DejaVuSans-35" d="M 691 4666 
L 3169 4666 
L 3169 4134 
L 1269 4134 
L 1269 2991 
Q 1406 3038 1543 3061 
Q 1681 3084 1819 3084 
Q 2600 3084 3056 2656 
Q 3513 2228 3513 1497 
Q 3513 744 3044 326 
Q 2575 -91 1722 -91 
Q 1428 -91 1123 -41 
Q 819 9 494 109 
L 494 744 
Q 775 591 1075 516 
Q 1375 441 1709 441 
Q 2250 441 2565 725 
Q 2881 1009 2881 1497 
Q 2881 1984 2565 2268 
Q 2250 2553 1709 2553 
Q 1456 2553 1204 2497 
Q 953 2441 691 2322 
L 691 4666 
z
" transform="scale(0.015625)"/>
       </defs>
       <use xlink:href="#DejaVuSans-35"/>
      </g>
     </g>
    </g>
    <g id="xtick_3">
     <g id="line2d_3">
      <g>
       <use xlink:href="#m84d1cf394e" x="153.648443" y="273.312" style="stroke: #000000; stroke-width: 0.8"/>
      </g>
     </g>
     <g id="text_3">
      <!-- 10 -->
      <g transform="translate(147.285943 287.910437) scale(0.1 -0.1)">
       <defs>
        <path id="DejaVuSans-31" d="M 794 531 
L 1825 531 
L 1825 4091 
L 703 3866 
L 703 4441 
L 1819 4666 
L 2450 4666 
L 2450 531 
L 3481 531 
L 3481 0 
L 794 0 
L 794 531 
z
" transform="scale(0.015625)"/>
       </defs>
       <use xlink:href="#DejaVuSans-31"/>
       <use xlink:href="#DejaVuSans-30" transform="translate(63.623047 0)"/>
      </g>
     </g>
    </g>
    <g id="xtick_4">
     <g id="line2d_4">
      <g>
       <use xlink:href="#m84d1cf394e" x="207.983931" y="273.312" style="stroke: #000000; stroke-width: 0.8"/>
      </g>
     </g>
     <g id="text_4">
      <!-- 15 -->
      <g transform="translate(201.621431 287.910437) scale(0.1 -0.1)">
       <use xlink:href="#DejaVuSans-31"/>
       <use xlink:href="#DejaVuSans-35" transform="translate(63.623047 0)"/>
      </g>
     </g>
    </g>
    <g id="xtick_5">
     <g id="line2d_5">
      <g>
       <use xlink:href="#m84d1cf394e" x="262.31942" y="273.312" style="stroke: #000000; stroke-width: 0.8"/>
      </g>
     </g>
     <g id="text_5">
      <!-- 20 -->
      <g transform="translate(255.95692 287.910437) scale(0.1 -0.1)">
       <defs>
        <path id="DejaVuSans-32" d="M 1228 531 
L 3431 531 
L 3431 0 
L 469 0 
L 469 531 
Q 828 903 1448 1529 
Q 2069 2156 2228 2338 
Q 2531 2678 2651 2914 
Q 2772 3150 2772 3378 
Q 2772 3750 2511 3984 
Q 2250 4219 1831 4219 
Q 1534 4219 1204 4116 
Q 875 4013 500 3803 
L 500 4441 
Q 881 4594 1212 4672 
Q 1544 4750 1819 4750 
Q 2544 4750 2975 4387 
Q 3406 4025 3406 3419 
Q 3406 3131 3298 2873 
Q 3191 2616 2906 2266 
Q 2828 2175 2409 1742 
Q 1991 1309 1228 531 
z
" transform="scale(0.015625)"/>
       </defs>
       <use xlink:href="#DejaVuSans-32"/>
       <use xlink:href="#DejaVuSans-30" transform="translate(63.623047 0)"/>
      </g>
     </g>
    </g>
    <g id="xtick_6">
     <g id="line2d_6">
      <g>
       <use xlink:href="#m84d1cf394e" x="316.654909" y="273.312" style="stroke: #000000; stroke-width: 0.8"/>
      </g>
     </g>
     <g id="text_6">
      <!-- 25 -->
      <g transform="translate(310.292409 287.910437) scale(0.1 -0.1)">
       <use xlink:href="#DejaVuSans-32"/>
       <use xlink:href="#DejaVuSans-35" transform="translate(63.623047 0)"/>
      </g>
     </g>
    </g>
    <g id="xtick_7">
     <g id="line2d_7">
      <g>
       <use xlink:href="#m84d1cf394e" x="370.990398" y="273.312" style="stroke: #000000; stroke-width: 0.8"/>
      </g>
     </g>
     <g id="text_7">
      <!-- 30 -->
      <g transform="translate(364.627898 287.910437) scale(0.1 -0.1)">
       <defs>
        <path id="DejaVuSans-33" d="M 2597 2516 
Q 3050 2419 3304 2112 
Q 3559 1806 3559 1356 
Q 3559 666 3084 287 
Q 2609 -91 1734 -91 
Q 1441 -91 1130 -33 
Q 819 25 488 141 
L 488 750 
Q 750 597 1062 519 
Q 1375 441 1716 441 
Q 2309 441 2620 675 
Q 2931 909 2931 1356 
Q 2931 1769 2642 2001 
Q 2353 2234 1838 2234 
L 1294 2234 
L 1294 2753 
L 1863 2753 
Q 2328 2753 2575 2939 
Q 2822 3125 2822 3475 
Q 2822 3834 2567 4026 
Q 2313 4219 1838 4219 
Q 1578 4219 1281 4162 
Q 984 4106 628 3988 
L 628 4550 
Q 988 4650 1302 4700 
Q 1616 4750 1894 4750 
Q 2613 4750 3031 4423 
Q 3450 4097 3450 3541 
Q 3450 3153 3228 2886 
Q 3006 2619 2597 2516 
z
" transform="scale(0.015625)"/>
       </defs>
       <use xlink:href="#DejaVuSans-33"/>
       <use xlink:href="#DejaVuSans-30" transform="translate(63.623047 0)"/>
      </g>
     </g>
    </g>
   </g>
   <g id="matplotlib.axis_2">
    <g id="ytick_1">
     <g id="line2d_8">
      <defs>
       <path id="m86a6bc5640" d="M 0 0 
L -3.5 0 
" style="stroke: #000000; stroke-width: 0.8"/>
      </defs>
      <g>
       <use xlink:href="#m86a6bc5640" x="30.103125" y="262.396267" style="stroke: #000000; stroke-width: 0.8"/>
      </g>
     </g>
     <g id="text_8">
      <!-- 0.0 -->
      <g transform="translate(7.2 266.195486) scale(0.1 -0.1)">
       <defs>
        <path id="DejaVuSans-2e" d="M 684 794 
L 1344 794 
L 1344 0 
L 684 0 
L 684 794 
z
" transform="scale(0.015625)"/>
       </defs>
       <use xlink:href="#DejaVuSans-30"/>
       <use xlink:href="#DejaVuSans-2e" transform="translate(63.623047 0)"/>
       <use xlink:href="#DejaVuSans-30" transform="translate(95.410156 0)"/>
      </g>
     </g>
    </g>
    <g id="ytick_2">
     <g id="line2d_9">
      <g>
       <use xlink:href="#m86a6bc5640" x="30.103125" y="232.29042" style="stroke: #000000; stroke-width: 0.8"/>
      </g>
     </g>
     <g id="text_9">
      <!-- 0.2 -->
      <g transform="translate(7.2 236.089639) scale(0.1 -0.1)">
       <use xlink:href="#DejaVuSans-30"/>
       <use xlink:href="#DejaVuSans-2e" transform="translate(63.623047 0)"/>
       <use xlink:href="#DejaVuSans-32" transform="translate(95.410156 0)"/>
      </g>
     </g>
    </g>
    <g id="ytick_3">
     <g id="line2d_10">
      <g>
       <use xlink:href="#m86a6bc5640" x="30.103125" y="202.184572" style="stroke: #000000; stroke-width: 0.8"/>
      </g>
     </g>
     <g id="text_10">
      <!-- 0.4 -->
      <g transform="translate(7.2 205.983791) scale(0.1 -0.1)">
       <defs>
        <path id="DejaVuSans-34" d="M 2419 4116 
L 825 1625 
L 2419 1625 
L 2419 4116 
z
M 2253 4666 
L 3047 4666 
L 3047 1625 
L 3713 1625 
L 3713 1100 
L 3047 1100 
L 3047 0 
L 2419 0 
L 2419 1100 
L 313 1100 
L 313 1709 
L 2253 4666 
z
" transform="scale(0.015625)"/>
       </defs>
       <use xlink:href="#DejaVuSans-30"/>
       <use xlink:href="#DejaVuSans-2e" transform="translate(63.623047 0)"/>
       <use xlink:href="#DejaVuSans-34" transform="translate(95.410156 0)"/>
      </g>
     </g>
    </g>
    <g id="ytick_4">
     <g id="line2d_11">
      <g>
       <use xlink:href="#m86a6bc5640" x="30.103125" y="172.078725" style="stroke: #000000; stroke-width: 0.8"/>
      </g>
     </g>
     <g id="text_11">
      <!-- 0.6 -->
      <g transform="translate(7.2 175.877943) scale(0.1 -0.1)">
       <defs>
        <path id="DejaVuSans-36" d="M 2113 2584 
Q 1688 2584 1439 2293 
Q 1191 2003 1191 1497 
Q 1191 994 1439 701 
Q 1688 409 2113 409 
Q 2538 409 2786 701 
Q 3034 994 3034 1497 
Q 3034 2003 2786 2293 
Q 2538 2584 2113 2584 
z
M 3366 4563 
L 3366 3988 
Q 3128 4100 2886 4159 
Q 2644 4219 2406 4219 
Q 1781 4219 1451 3797 
Q 1122 3375 1075 2522 
Q 1259 2794 1537 2939 
Q 1816 3084 2150 3084 
Q 2853 3084 3261 2657 
Q 3669 2231 3669 1497 
Q 3669 778 3244 343 
Q 2819 -91 2113 -91 
Q 1303 -91 875 529 
Q 447 1150 447 2328 
Q 447 3434 972 4092 
Q 1497 4750 2381 4750 
Q 2619 4750 2861 4703 
Q 3103 4656 3366 4563 
z
" transform="scale(0.015625)"/>
       </defs>
       <use xlink:href="#DejaVuSans-30"/>
       <use xlink:href="#DejaVuSans-2e" transform="translate(63.623047 0)"/>
       <use xlink:href="#DejaVuSans-36" transform="translate(95.410156 0)"/>
      </g>
     </g>
    </g>
    <g id="ytick_5">
     <g id="line2d_12">
      <g>
       <use xlink:href="#m86a6bc5640" x="30.103125" y="141.972877" style="stroke: #000000; stroke-width: 0.8"/>
      </g>
     </g>
     <g id="text_12">
      <!-- 0.8 -->
      <g transform="translate(7.2 145.772096) scale(0.1 -0.1)">
       <defs>
        <path id="DejaVuSans-38" d="M 2034 2216 
Q 1584 2216 1326 1975 
Q 1069 1734 1069 1313 
Q 1069 891 1326 650 
Q 1584 409 2034 409 
Q 2484 409 2743 651 
Q 3003 894 3003 1313 
Q 3003 1734 2745 1975 
Q 2488 2216 2034 2216 
z
M 1403 2484 
Q 997 2584 770 2862 
Q 544 3141 544 3541 
Q 544 4100 942 4425 
Q 1341 4750 2034 4750 
Q 2731 4750 3128 4425 
Q 3525 4100 3525 3541 
Q 3525 3141 3298 2862 
Q 3072 2584 2669 2484 
Q 3125 2378 3379 2068 
Q 3634 1759 3634 1313 
Q 3634 634 3220 271 
Q 2806 -91 2034 -91 
Q 1263 -91 848 271 
Q 434 634 434 1313 
Q 434 1759 690 2068 
Q 947 2378 1403 2484 
z
M 1172 3481 
Q 1172 3119 1398 2916 
Q 1625 2713 2034 2713 
Q 2441 2713 2670 2916 
Q 2900 3119 2900 3481 
Q 2900 3844 2670 4047 
Q 2441 4250 2034 4250 
Q 1625 4250 1398 4047 
Q 1172 3844 1172 3481 
z
" transform="scale(0.015625)"/>
       </defs>
       <use xlink:href="#DejaVuSans-30"/>
       <use xlink:href="#DejaVuSans-2e" transform="translate(63.623047 0)"/>
       <use xlink:href="#DejaVuSans-38" transform="translate(95.410156 0)"/>
      </g>
     </g>
    </g>
    <g id="ytick_6">
     <g id="line2d_13">
      <g>
       <use xlink:href="#m86a6bc5640" x="30.103125" y="111.86703" style="stroke: #000000; stroke-width: 0.8"/>
      </g>
     </g>
     <g id="text_13">
      <!-- 1.0 -->
      <g transform="translate(7.2 115.666248) scale(0.1 -0.1)">
       <use xlink:href="#DejaVuSans-31"/>
       <use xlink:href="#DejaVuSans-2e" transform="translate(63.623047 0)"/>
       <use xlink:href="#DejaVuSans-30" transform="translate(95.410156 0)"/>
      </g>
     </g>
    </g>
    <g id="ytick_7">
     <g id="line2d_14">
      <g>
       <use xlink:href="#m86a6bc5640" x="30.103125" y="81.761182" style="stroke: #000000; stroke-width: 0.8"/>
      </g>
     </g>
     <g id="text_14">
      <!-- 1.2 -->
      <g transform="translate(7.2 85.560401) scale(0.1 -0.1)">
       <use xlink:href="#DejaVuSans-31"/>
       <use xlink:href="#DejaVuSans-2e" transform="translate(63.623047 0)"/>
       <use xlink:href="#DejaVuSans-32" transform="translate(95.410156 0)"/>
      </g>
     </g>
    </g>
    <g id="ytick_8">
     <g id="line2d_15">
      <g>
       <use xlink:href="#m86a6bc5640" x="30.103125" y="51.655335" style="stroke: #000000; stroke-width: 0.8"/>
      </g>
     </g>
     <g id="text_15">
      <!-- 1.4 -->
      <g transform="translate(7.2 55.454553) scale(0.1 -0.1)">
       <use xlink:href="#DejaVuSans-31"/>
       <use xlink:href="#DejaVuSans-2e" transform="translate(63.623047 0)"/>
       <use xlink:href="#DejaVuSans-34" transform="translate(95.410156 0)"/>
      </g>
     </g>
    </g>
    <g id="ytick_9">
     <g id="line2d_16">
      <g>
       <use xlink:href="#m86a6bc5640" x="30.103125" y="21.549487" style="stroke: #000000; stroke-width: 0.8"/>
      </g>
     </g>
     <g id="text_16">
      <!-- 1.6 -->
      <g transform="translate(7.2 25.348706) scale(0.1 -0.1)">
       <use xlink:href="#DejaVuSans-31"/>
       <use xlink:href="#DejaVuSans-2e" transform="translate(63.623047 0)"/>
       <use xlink:href="#DejaVuSans-36" transform="translate(95.410156 0)"/>
      </g>
     </g>
    </g>
   </g>
   <g id="line2d_17">
    <path d="M 46.335852 71.521188 
L 47.694239 71.521188 
L 49.052627 69.865224 
L 50.411014 69.865224 
L 51.769401 69.414137 
L 53.127788 67.758173 
L 54.486176 66.553296 
L 55.844563 64.446245 
L 57.20295 62.790281 
L 58.561337 59.92944 
L 59.919724 59.92944 
L 61.278112 57.674005 
L 62.636499 57.674005 
L 63.994886 56.023976 
L 69.428435 56.023976 
L 70.786822 57.674005 
L 72.145209 58.273476 
L 73.503597 59.478353 
L 74.861984 59.478353 
L 76.220371 59.92944 
L 77.578758 61.134317 
L 78.937146 61.134317 
L 80.295533 62.790281 
L 81.65392 63.241368 
L 83.012307 64.446245 
L 84.370694 64.897332 
L 85.729082 64.897332 
L 87.087469 66.553296 
L 88.445856 66.553296 
L 89.804243 67.758173 
L 91.162631 66.553296 
L 92.521018 67.758173 
L 93.879405 69.414137 
L 96.596179 69.414137 
L 97.954567 69.865224 
L 99.312954 70.921717 
L 102.029728 70.921717 
L 103.388115 71.521188 
L 104.746503 71.521188 
L 106.10489 72.577681 
L 107.463277 71.521188 
L 108.821664 71.521188 
L 110.180052 72.577681 
L 114.255213 72.577681 
L 115.6136 74.233645 
L 119.688762 74.233645 
L 121.047149 75.73529 
L 122.405537 74.684732 
L 123.763924 74.684732 
L 125.122311 75.73529 
L 126.480698 76.186377 
L 129.197473 76.186377 
L 130.55586 77.391254 
L 135.989409 77.391254 
L 137.347796 78.898834 
L 142.781345 78.898834 
L 144.139732 80.406414 
L 146.856507 80.406414 
L 148.214894 81.005885 
L 149.573281 81.005885 
L 150.931668 82.056443 
L 153.648443 82.056443 
L 155.00683 82.513465 
L 157.723604 82.513465 
L 159.081991 83.564023 
L 167.232315 83.564023 
L 168.590702 81.005885 
L 169.949089 78.898834 
L 171.307476 77.391254 
L 174.024251 70.921717 
L 176.741025 62.19081 
L 178.099413 59.478353 
L 180.816187 52.563664 
L 182.174574 50.753381 
L 183.532961 49.548504 
L 184.891349 47.744156 
L 186.249736 47.293069 
L 187.608123 45.488721 
L 188.96651 47.293069 
L 190.324898 47.293069 
L 191.683285 47.744156 
L 193.041672 49.548504 
L 194.400059 49.548504 
L 198.475221 54.819099 
L 199.833608 56.023976 
L 202.550383 56.023976 
L 203.90877 56.469128 
L 205.267157 57.674005 
L 206.625544 56.469128 
L 209.342319 56.469128 
L 210.700706 57.674005 
L 216.134255 57.674005 
L 217.492642 58.273476 
L 218.851029 59.92944 
L 220.209416 59.92944 
L 221.567804 61.134317 
L 222.926191 61.134317 
L 224.284578 62.19081 
L 225.642965 61.134317 
L 227.001352 62.790281 
L 231.076514 62.790281 
L 232.434901 63.241368 
L 233.793289 64.446245 
L 235.151676 64.897332 
L 236.510063 64.897332 
L 237.86845 66.102209 
L 239.226837 66.102209 
L 240.585225 66.553296 
L 243.301999 66.553296 
L 244.660386 67.758173 
L 251.452322 67.758173 
L 252.81071 68.20926 
L 254.169097 68.20926 
L 255.527484 69.414137 
L 259.602646 69.414137 
L 260.961033 69.865224 
L 263.677807 69.865224 
L 265.036195 70.921717 
L 267.752969 70.921717 
L 269.111356 71.521188 
L 271.828131 71.521188 
L 273.186518 72.577681 
L 274.544905 71.521188 
L 275.903292 71.521188 
L 277.26168 72.577681 
L 290.845552 72.577681 
L 292.203939 73.028768 
L 293.562326 73.628239 
L 294.920713 73.028768 
L 296.279101 73.028768 
L 297.637488 74.233645 
L 309.862973 74.233645 
L 311.22136 74.684732 
L 312.579747 75.73529 
L 313.938135 75.73529 
L 315.296522 74.684732 
L 316.654909 75.73529 
L 318.013296 75.73529 
L 319.371683 76.186377 
L 320.730071 77.391254 
L 327.522007 77.391254 
L 328.880394 77.842341 
L 330.238781 78.447747 
L 331.597168 78.898834 
L 332.955556 77.842341 
L 334.313943 78.898834 
L 341.105879 78.898834 
L 342.464266 77.391254 
L 343.822653 76.186377 
L 345.181041 74.233645 
L 346.539428 72.577681 
L 349.256202 62.790281 
L 353.331364 47.744156 
L 354.689751 43.678438 
L 356.048138 36.455111 
L 357.406526 31.338835 
L 358.764913 28.323675 
L 360.1233 25.011747 
L 361.481687 23.207399 
L 362.840074 19.296 
L 369.632011 19.296 
L 370.990398 21.248732 
L 370.990398 21.248732 
" clip-path="url(#p6c2cc293f7)" style="fill: none; stroke: #0000ff; stroke-width: 1.5; stroke-linecap: square"/>
   </g>
   <g id="line2d_18">
    <path d="M 46.335852 259.399783 
L 47.694239 259.148589 
L 49.052627 258.12186 
L 50.411014 256.927048 
L 51.769401 255.36724 
L 53.127788 252.718864 
L 54.486176 249.500114 
L 55.844563 245.791466 
L 57.20295 241.536745 
L 58.561337 237.786726 
L 59.919724 234.838876 
L 61.278112 232.219913 
L 62.636499 230.049007 
L 63.994886 228.582006 
L 65.353273 227.765785 
L 66.711661 227.468794 
L 68.070048 227.582556 
L 69.428435 228.017792 
L 70.786822 228.701186 
L 73.503597 230.571535 
L 77.578758 233.78025 
L 83.012307 238.382596 
L 87.087469 241.077749 
L 88.445856 241.828295 
L 92.521018 243.604843 
L 95.237792 244.950564 
L 99.312954 246.567637 
L 104.746503 247.546798 
L 108.821664 247.158205 
L 110.180052 247.274564 
L 112.896826 247.85379 
L 118.330375 249.432581 
L 125.122311 250.552903 
L 129.197473 251.764359 
L 140.06457 255.233497 
L 145.498119 256.683613 
L 150.931668 257.881774 
L 156.365217 258.848493 
L 163.157153 259.783419 
L 165.873928 260.086463 
L 167.232315 259.359987 
L 168.590702 256.622015 
L 171.307476 248.771869 
L 172.665864 243.968328 
L 174.024251 237.15769 
L 175.382638 229.004683 
L 176.741025 221.794699 
L 179.4578 209.373409 
L 180.816187 203.947451 
L 182.174574 199.851062 
L 183.532961 196.557419 
L 184.891349 194.275838 
L 186.249736 193.160681 
L 187.608123 192.972724 
L 188.96651 193.514855 
L 190.324898 194.625007 
L 191.683285 196.17025 
L 193.041672 198.041858 
L 195.758446 202.426291 
L 199.833608 209.667308 
L 201.191995 211.496715 
L 202.550383 212.413431 
L 203.90877 213.143167 
L 205.267157 213.715378 
L 207.983931 213.624552 
L 209.342319 214.075032 
L 212.059093 215.662962 
L 214.775867 216.777081 
L 216.134255 217.699758 
L 217.492642 218.868499 
L 220.209416 221.698517 
L 221.567804 223.264945 
L 222.926191 224.595817 
L 225.642965 226.182529 
L 228.35974 227.712307 
L 229.718127 228.46002 
L 232.434901 230.411651 
L 235.151676 232.747051 
L 237.86845 235.200081 
L 239.226837 236.212912 
L 246.018774 239.988297 
L 250.093935 241.063361 
L 252.81071 242.265299 
L 256.885871 244.407098 
L 262.31942 246.671175 
L 270.469743 250.434189 
L 271.828131 250.886078 
L 281.336841 253.091486 
L 289.487165 253.467644 
L 293.562326 254.250979 
L 311.22136 258.167582 
L 318.013296 259.246806 
L 324.805232 260.069427 
L 332.955556 260.787246 
L 339.747492 261.216 
L 341.105879 261.204745 
L 342.464266 260.070969 
L 343.822653 257.177135 
L 345.181041 253.984104 
L 346.539428 249.662408 
L 347.897815 241.634636 
L 350.614589 222.099543 
L 354.689751 194.435066 
L 356.048138 183.171815 
L 357.406526 173.21692 
L 358.764913 166.284417 
L 361.481687 155.697196 
L 362.840074 151.76548 
L 364.198462 149.776677 
L 365.556849 149.001451 
L 366.915236 148.854872 
L 368.273623 149.535585 
L 369.632011 151.191478 
L 370.990398 153.596871 
L 370.990398 153.596871 
" clip-path="url(#p6c2cc293f7)" style="fill: none; stroke: #ff0000; stroke-width: 1.5; stroke-linecap: square"/>
   </g>
   <g id="line2d_19">
    <path d="M 46.335852 67.985978 
L 65.353273 72.421322 
L 106.10489 82.091766 
L 116.971988 84.374115 
L 126.480698 86.160452 
L 134.631022 87.497509 
L 142.781345 88.624044 
L 150.931668 89.510342 
L 157.723604 90.043972 
L 164.51554 90.372942 
L 171.307476 90.480056 
L 178.099413 90.35176 
L 184.891349 90.003632 
L 193.041672 89.335582 
L 201.191995 88.440707 
L 210.700706 87.175301 
L 222.926191 85.317668 
L 252.81071 80.662994 
L 262.31942 79.439415 
L 270.469743 78.592657 
L 278.620067 77.984046 
L 285.412003 77.692331 
L 293.562326 77.596179 
L 301.71265 77.733665 
L 311.22136 78.127306 
L 323.446845 78.888805 
L 360.1233 81.397161 
L 369.632011 81.735002 
L 370.990398 81.762713 
L 370.990398 81.762713 
" clip-path="url(#p6c2cc293f7)" style="fill: none; stroke: #000000; stroke-width: 1.5; stroke-linecap: square"/>
   </g>
   <g id="patch_3">
    <path d="M 30.103125 273.312 
L 30.103125 7.2 
" style="fill: none; stroke: #000000; stroke-width: 0.8; stroke-linejoin: miter; stroke-linecap: square"/>
   </g>
   <g id="patch_4">
    <path d="M 387.223125 273.312 
L 387.223125 7.2 
" style="fill: none; stroke: #000000; stroke-width: 0.8; stroke-linejoin: miter; stroke-linecap: square"/>
   </g>
   <g id="patch_5">
    <path d="M 30.103125 273.312 
L 387.223125 273.312 
" style="fill: none; stroke: #000000; stroke-width: 0.8; stroke-linejoin: miter; stroke-linecap: square"/>
   </g>
   <g id="patch_6">
    <path d="M 30.103125 7.2 
L 387.223125 7.2 
" style="fill: none; stroke: #000000; stroke-width: 0.8; stroke-linejoin: miter; stroke-linecap: square"/>
   </g>
   <g id="legend_1">
    <g id="patch_7">
     <path d="M 256.490312 268.312 
L 380.223125 268.312 
Q 382.223125 268.312 382.223125 266.312 
L 382.223125 223.277625 
Q 382.223125 221.277625 380.223125 221.277625 
L 256.490312 221.277625 
Q 254.490312 221.277625 254.490312 223.277625 
L 254.490312 266.312 
Q 254.490312 268.312 256.490312 268.312 
z
" style="fill: #ffffff; opacity: 0.8; stroke: #cccccc; stroke-linejoin: miter"/>
    </g>
    <g id="line2d_20">
     <path d="M 258.490312 229.376062 
L 268.490312 229.376062 
L 278.490312 229.376062 
" style="fill: none; stroke: #0000ff; stroke-width: 1.5; stroke-linecap: square"/>
    </g>
    <g id="text_17">
     <!-- Segment -->
     <g transform="translate(286.490312 232.876062) scale(0.1 -0.1)">
      <defs>
       <path id="DejaVuSans-53" d="M 3425 4513 
L 3425 3897 
Q 3066 4069 2747 4153 
Q 2428 4238 2131 4238 
Q 1616 4238 1336 4038 
Q 1056 3838 1056 3469 
Q 1056 3159 1242 3001 
Q 1428 2844 1947 2747 
L 2328 2669 
Q 3034 2534 3370 2195 
Q 3706 1856 3706 1288 
Q 3706 609 3251 259 
Q 2797 -91 1919 -91 
Q 1588 -91 1214 -16 
Q 841 59 441 206 
L 441 856 
Q 825 641 1194 531 
Q 1563 422 1919 422 
Q 2459 422 2753 634 
Q 3047 847 3047 1241 
Q 3047 1584 2836 1778 
Q 2625 1972 2144 2069 
L 1759 2144 
Q 1053 2284 737 2584 
Q 422 2884 422 3419 
Q 422 4038 858 4394 
Q 1294 4750 2059 4750 
Q 2388 4750 2728 4690 
Q 3069 4631 3425 4513 
z
" transform="scale(0.015625)"/>
       <path id="DejaVuSans-65" d="M 3597 1894 
L 3597 1613 
L 953 1613 
Q 991 1019 1311 708 
Q 1631 397 2203 397 
Q 2534 397 2845 478 
Q 3156 559 3463 722 
L 3463 178 
Q 3153 47 2828 -22 
Q 2503 -91 2169 -91 
Q 1331 -91 842 396 
Q 353 884 353 1716 
Q 353 2575 817 3079 
Q 1281 3584 2069 3584 
Q 2775 3584 3186 3129 
Q 3597 2675 3597 1894 
z
M 3022 2063 
Q 3016 2534 2758 2815 
Q 2500 3097 2075 3097 
Q 1594 3097 1305 2825 
Q 1016 2553 972 2059 
L 3022 2063 
z
" transform="scale(0.015625)"/>
       <path id="DejaVuSans-67" d="M 2906 1791 
Q 2906 2416 2648 2759 
Q 2391 3103 1925 3103 
Q 1463 3103 1205 2759 
Q 947 2416 947 1791 
Q 947 1169 1205 825 
Q 1463 481 1925 481 
Q 2391 481 2648 825 
Q 2906 1169 2906 1791 
z
M 3481 434 
Q 3481 -459 3084 -895 
Q 2688 -1331 1869 -1331 
Q 1566 -1331 1297 -1286 
Q 1028 -1241 775 -1147 
L 775 -588 
Q 1028 -725 1275 -790 
Q 1522 -856 1778 -856 
Q 2344 -856 2625 -561 
Q 2906 -266 2906 331 
L 2906 616 
Q 2728 306 2450 153 
Q 2172 0 1784 0 
Q 1141 0 747 490 
Q 353 981 353 1791 
Q 353 2603 747 3093 
Q 1141 3584 1784 3584 
Q 2172 3584 2450 3431 
Q 2728 3278 2906 2969 
L 2906 3500 
L 3481 3500 
L 3481 434 
z
" transform="scale(0.015625)"/>
       <path id="DejaVuSans-6d" d="M 3328 2828 
Q 3544 3216 3844 3400 
Q 4144 3584 4550 3584 
Q 5097 3584 5394 3201 
Q 5691 2819 5691 2113 
L 5691 0 
L 5113 0 
L 5113 2094 
Q 5113 2597 4934 2840 
Q 4756 3084 4391 3084 
Q 3944 3084 3684 2787 
Q 3425 2491 3425 1978 
L 3425 0 
L 2847 0 
L 2847 2094 
Q 2847 2600 2669 2842 
Q 2491 3084 2119 3084 
Q 1678 3084 1418 2786 
Q 1159 2488 1159 1978 
L 1159 0 
L 581 0 
L 581 3500 
L 1159 3500 
L 1159 2956 
Q 1356 3278 1631 3431 
Q 1906 3584 2284 3584 
Q 2666 3584 2933 3390 
Q 3200 3197 3328 2828 
z
" transform="scale(0.015625)"/>
       <path id="DejaVuSans-6e" d="M 3513 2113 
L 3513 0 
L 2938 0 
L 2938 2094 
Q 2938 2591 2744 2837 
Q 2550 3084 2163 3084 
Q 1697 3084 1428 2787 
Q 1159 2491 1159 1978 
L 1159 0 
L 581 0 
L 581 3500 
L 1159 3500 
L 1159 2956 
Q 1366 3272 1645 3428 
Q 1925 3584 2291 3584 
Q 2894 3584 3203 3211 
Q 3513 2838 3513 2113 
z
" transform="scale(0.015625)"/>
       <path id="DejaVuSans-74" d="M 1172 4494 
L 1172 3500 
L 2356 3500 
L 2356 3053 
L 1172 3053 
L 1172 1153 
Q 1172 725 1289 603 
Q 1406 481 1766 481 
L 2356 481 
L 2356 0 
L 1766 0 
Q 1100 0 847 248 
Q 594 497 594 1153 
L 594 3053 
L 172 3053 
L 172 3500 
L 594 3500 
L 594 4494 
L 1172 4494 
z
" transform="scale(0.015625)"/>
      </defs>
      <use xlink:href="#DejaVuSans-53"/>
      <use xlink:href="#DejaVuSans-65" transform="translate(63.476562 0)"/>
      <use xlink:href="#DejaVuSans-67" transform="translate(125 0)"/>
      <use xlink:href="#DejaVuSans-6d" transform="translate(188.476562 0)"/>
      <use xlink:href="#DejaVuSans-65" transform="translate(285.888672 0)"/>
      <use xlink:href="#DejaVuSans-6e" transform="translate(347.412109 0)"/>
      <use xlink:href="#DejaVuSans-74" transform="translate(410.791016 0)"/>
     </g>
    </g>
    <g id="line2d_21">
     <path d="M 258.490312 244.054187 
L 268.490312 244.054187 
L 278.490312 244.054187 
" style="fill: none; stroke: #ff0000; stroke-width: 1.5; stroke-linecap: square"/>
    </g>
    <g id="text_18">
     <!-- Phasic component -->
     <g transform="translate(286.490312 247.554187) scale(0.1 -0.1)">
      <defs>
       <path id="DejaVuSans-50" d="M 1259 4147 
L 1259 2394 
L 2053 2394 
Q 2494 2394 2734 2622 
Q 2975 2850 2975 3272 
Q 2975 3691 2734 3919 
Q 2494 4147 2053 4147 
L 1259 4147 
z
M 628 4666 
L 2053 4666 
Q 2838 4666 3239 4311 
Q 3641 3956 3641 3272 
Q 3641 2581 3239 2228 
Q 2838 1875 2053 1875 
L 1259 1875 
L 1259 0 
L 628 0 
L 628 4666 
z
" transform="scale(0.015625)"/>
       <path id="DejaVuSans-68" d="M 3513 2113 
L 3513 0 
L 2938 0 
L 2938 2094 
Q 2938 2591 2744 2837 
Q 2550 3084 2163 3084 
Q 1697 3084 1428 2787 
Q 1159 2491 1159 1978 
L 1159 0 
L 581 0 
L 581 4863 
L 1159 4863 
L 1159 2956 
Q 1366 3272 1645 3428 
Q 1925 3584 2291 3584 
Q 2894 3584 3203 3211 
Q 3513 2838 3513 2113 
z
" transform="scale(0.015625)"/>
       <path id="DejaVuSans-61" d="M 2194 1759 
Q 1497 1759 1228 1600 
Q 959 1441 959 1056 
Q 959 750 1161 570 
Q 1363 391 1709 391 
Q 2188 391 2477 730 
Q 2766 1069 2766 1631 
L 2766 1759 
L 2194 1759 
z
M 3341 1997 
L 3341 0 
L 2766 0 
L 2766 531 
Q 2569 213 2275 61 
Q 1981 -91 1556 -91 
Q 1019 -91 701 211 
Q 384 513 384 1019 
Q 384 1609 779 1909 
Q 1175 2209 1959 2209 
L 2766 2209 
L 2766 2266 
Q 2766 2663 2505 2880 
Q 2244 3097 1772 3097 
Q 1472 3097 1187 3025 
Q 903 2953 641 2809 
L 641 3341 
Q 956 3463 1253 3523 
Q 1550 3584 1831 3584 
Q 2591 3584 2966 3190 
Q 3341 2797 3341 1997 
z
" transform="scale(0.015625)"/>
       <path id="DejaVuSans-73" d="M 2834 3397 
L 2834 2853 
Q 2591 2978 2328 3040 
Q 2066 3103 1784 3103 
Q 1356 3103 1142 2972 
Q 928 2841 928 2578 
Q 928 2378 1081 2264 
Q 1234 2150 1697 2047 
L 1894 2003 
Q 2506 1872 2764 1633 
Q 3022 1394 3022 966 
Q 3022 478 2636 193 
Q 2250 -91 1575 -91 
Q 1294 -91 989 -36 
Q 684 19 347 128 
L 347 722 
Q 666 556 975 473 
Q 1284 391 1588 391 
Q 1994 391 2212 530 
Q 2431 669 2431 922 
Q 2431 1156 2273 1281 
Q 2116 1406 1581 1522 
L 1381 1569 
Q 847 1681 609 1914 
Q 372 2147 372 2553 
Q 372 3047 722 3315 
Q 1072 3584 1716 3584 
Q 2034 3584 2315 3537 
Q 2597 3491 2834 3397 
z
" transform="scale(0.015625)"/>
       <path id="DejaVuSans-69" d="M 603 3500 
L 1178 3500 
L 1178 0 
L 603 0 
L 603 3500 
z
M 603 4863 
L 1178 4863 
L 1178 4134 
L 603 4134 
L 603 4863 
z
" transform="scale(0.015625)"/>
       <path id="DejaVuSans-63" d="M 3122 3366 
L 3122 2828 
Q 2878 2963 2633 3030 
Q 2388 3097 2138 3097 
Q 1578 3097 1268 2742 
Q 959 2388 959 1747 
Q 959 1106 1268 751 
Q 1578 397 2138 397 
Q 2388 397 2633 464 
Q 2878 531 3122 666 
L 3122 134 
Q 2881 22 2623 -34 
Q 2366 -91 2075 -91 
Q 1284 -91 818 406 
Q 353 903 353 1747 
Q 353 2603 823 3093 
Q 1294 3584 2113 3584 
Q 2378 3584 2631 3529 
Q 2884 3475 3122 3366 
z
" transform="scale(0.015625)"/>
       <path id="DejaVuSans-20" transform="scale(0.015625)"/>
       <path id="DejaVuSans-6f" d="M 1959 3097 
Q 1497 3097 1228 2736 
Q 959 2375 959 1747 
Q 959 1119 1226 758 
Q 1494 397 1959 397 
Q 2419 397 2687 759 
Q 2956 1122 2956 1747 
Q 2956 2369 2687 2733 
Q 2419 3097 1959 3097 
z
M 1959 3584 
Q 2709 3584 3137 3096 
Q 3566 2609 3566 1747 
Q 3566 888 3137 398 
Q 2709 -91 1959 -91 
Q 1206 -91 779 398 
Q 353 888 353 1747 
Q 353 2609 779 3096 
Q 1206 3584 1959 3584 
z
" transform="scale(0.015625)"/>
       <path id="DejaVuSans-70" d="M 1159 525 
L 1159 -1331 
L 581 -1331 
L 581 3500 
L 1159 3500 
L 1159 2969 
Q 1341 3281 1617 3432 
Q 1894 3584 2278 3584 
Q 2916 3584 3314 3078 
Q 3713 2572 3713 1747 
Q 3713 922 3314 415 
Q 2916 -91 2278 -91 
Q 1894 -91 1617 61 
Q 1341 213 1159 525 
z
M 3116 1747 
Q 3116 2381 2855 2742 
Q 2594 3103 2138 3103 
Q 1681 3103 1420 2742 
Q 1159 2381 1159 1747 
Q 1159 1113 1420 752 
Q 1681 391 2138 391 
Q 2594 391 2855 752 
Q 3116 1113 3116 1747 
z
" transform="scale(0.015625)"/>
      </defs>
      <use xlink:href="#DejaVuSans-50"/>
      <use xlink:href="#DejaVuSans-68" transform="translate(60.302734 0)"/>
      <use xlink:href="#DejaVuSans-61" transform="translate(123.681641 0)"/>
      <use xlink:href="#DejaVuSans-73" transform="translate(184.960938 0)"/>
      <use xlink:href="#DejaVuSans-69" transform="translate(237.060547 0)"/>
      <use xlink:href="#DejaVuSans-63" transform="translate(264.84375 0)"/>
      <use xlink:href="#DejaVuSans-20" transform="translate(319.824219 0)"/>
      <use xlink:href="#DejaVuSans-63" transform="translate(351.611328 0)"/>
      <use xlink:href="#DejaVuSans-6f" transform="translate(406.591797 0)"/>
      <use xlink:href="#DejaVuSans-6d" transform="translate(467.773438 0)"/>
      <use xlink:href="#DejaVuSans-70" transform="translate(565.185547 0)"/>
      <use xlink:href="#DejaVuSans-6f" transform="translate(628.662109 0)"/>
      <use xlink:href="#DejaVuSans-6e" transform="translate(689.84375 0)"/>
      <use xlink:href="#DejaVuSans-65" transform="translate(753.222656 0)"/>
      <use xlink:href="#DejaVuSans-6e" transform="translate(814.746094 0)"/>
      <use xlink:href="#DejaVuSans-74" transform="translate(878.125 0)"/>
     </g>
    </g>
    <g id="line2d_22">
     <path d="M 258.490312 258.732312 
L 268.490312 258.732312 
L 278.490312 258.732312 
" style="fill: none; stroke: #000000; stroke-width: 1.5; stroke-linecap: square"/>
    </g>
    <g id="text_19">
     <!-- Tonic component -->
     <g transform="translate(286.490312 262.232312) scale(0.1 -0.1)">
      <defs>
       <path id="DejaVuSans-54" d="M -19 4666 
L 3928 4666 
L 3928 4134 
L 2272 4134 
L 2272 0 
L 1638 0 
L 1638 4134 
L -19 4134 
L -19 4666 
z
" transform="scale(0.015625)"/>
      </defs>
      <use xlink:href="#DejaVuSans-54"/>
      <use xlink:href="#DejaVuSans-6f" transform="translate(44.083984 0)"/>
      <use xlink:href="#DejaVuSans-6e" transform="translate(105.265625 0)"/>
      <use xlink:href="#DejaVuSans-69" transform="translate(168.644531 0)"/>
      <use xlink:href="#DejaVuSans-63" transform="translate(196.427734 0)"/>
      <use xlink:href="#DejaVuSans-20" transform="translate(251.408203 0)"/>
      <use xlink:href="#DejaVuSans-63" transform="translate(283.195312 0)"/>
      <use xlink:href="#DejaVuSans-6f" transform="translate(338.175781 0)"/>
      <use xlink:href="#DejaVuSans-6d" transform="translate(399.357422 0)"/>
      <use xlink:href="#DejaVuSans-70" transform="translate(496.769531 0)"/>
      <use xlink:href="#DejaVuSans-6f" transform="translate(560.246094 0)"/>
      <use xlink:href="#DejaVuSans-6e" transform="translate(621.427734 0)"/>
      <use xlink:href="#DejaVuSans-65" transform="translate(684.806641 0)"/>
      <use xlink:href="#DejaVuSans-6e" transform="translate(746.330078 0)"/>
      <use xlink:href="#DejaVuSans-74" transform="translate(809.708984 0)"/>
     </g>
    </g>
   </g>
  </g>
 </g>
 <defs>
  <clipPath id="p6c2cc293f7">
   <rect x="30.103125" y="7.2" width="357.12" height="266.112"/>
  </clipPath>
 </defs>
</svg>
